<svg width="156" height="33" viewBox="0 0 156 33" fill="none" xmlns="http://www.w3.org/2000/svg">
<rect width="156" height="33" rx="8" fill="#0B59DE"/>
<path d="M141.151 23.5909C140.597 23.5909 140.121 23.5156 139.723 23.365C139.326 23.2173 139.006 23.0184 138.765 22.7684C138.523 22.5184 138.355 22.2414 138.262 21.9374L139.651 21.6008C139.713 21.7286 139.804 21.8551 139.924 21.9801C140.043 22.1079 140.204 22.213 140.405 22.2954C140.61 22.3806 140.867 22.4232 141.177 22.4232C141.614 22.4232 141.976 22.3167 142.263 22.1036C142.55 21.8934 142.694 21.5468 142.694 21.0639V19.8238H142.617C142.537 19.9829 142.421 20.1463 142.267 20.3139C142.117 20.4815 141.917 20.6221 141.667 20.7357C141.419 20.8494 141.108 20.9062 140.733 20.9062C140.23 20.9062 139.775 20.7883 139.365 20.5525C138.959 20.3139 138.635 19.9588 138.394 19.4872C138.155 19.0127 138.036 18.419 138.036 17.7059C138.036 16.9872 138.155 16.3806 138.394 15.8863C138.635 15.3891 138.961 15.0127 139.37 14.757C139.779 14.4985 140.235 14.3693 140.738 14.3693C141.121 14.3693 141.436 14.4346 141.684 14.5653C141.934 14.6931 142.132 14.848 142.28 15.0298C142.428 15.2088 142.54 15.3778 142.617 15.5369H142.702V14.4545H144.223V21.1065C144.223 21.6661 144.09 22.1292 143.823 22.4957C143.556 22.8622 143.191 23.1363 142.728 23.3181C142.265 23.4999 141.739 23.5909 141.151 23.5909ZM141.164 19.696C141.49 19.696 141.769 19.6164 141.999 19.4573C142.229 19.2982 142.404 19.0695 142.523 18.7713C142.642 18.473 142.702 18.115 142.702 17.6974C142.702 17.2855 142.642 16.9247 142.523 16.615C142.407 16.3053 142.233 16.0653 142.003 15.8948C141.776 15.7215 141.496 15.6349 141.164 15.6349C140.82 15.6349 140.533 15.7244 140.303 15.9034C140.073 16.0823 139.9 16.3281 139.783 16.6406C139.667 16.9502 139.608 17.3025 139.608 17.6974C139.608 18.098 139.667 18.4488 139.783 18.7499C139.902 19.0482 140.077 19.2812 140.307 19.4488C140.54 19.6136 140.826 19.696 141.164 19.696Z" fill="white"/>
<path d="M132.534 17.1647V20.9999H130.992V14.4545H132.466V15.5667H132.543C132.693 15.2002 132.933 14.909 133.263 14.6931C133.595 14.4772 134.006 14.3693 134.495 14.3693C134.946 14.3693 135.34 14.4659 135.675 14.659C136.013 14.8522 136.274 15.132 136.459 15.4985C136.647 15.865 136.739 16.3096 136.736 16.8323V20.9999H135.193V17.071C135.193 16.6335 135.08 16.2911 134.853 16.044C134.628 15.7968 134.317 15.6732 133.919 15.6732C133.649 15.6732 133.409 15.7329 133.199 15.8522C132.992 15.9687 132.828 16.1377 132.709 16.3593C132.593 16.5809 132.534 16.8494 132.534 17.1647Z" fill="white"/>
<path d="M127.863 21V14.4545H129.405V21H127.863ZM128.638 13.5255C128.394 13.5255 128.184 13.4446 128.008 13.2826C127.831 13.1179 127.743 12.9204 127.743 12.6903C127.743 12.4574 127.831 12.2599 128.008 12.098C128.184 11.9332 128.394 11.8508 128.638 11.8508C128.885 11.8508 129.096 11.9332 129.269 12.098C129.445 12.2599 129.533 12.4574 129.533 12.6903C129.533 12.9204 129.445 13.1179 129.269 13.2826C129.096 13.4446 128.885 13.5255 128.638 13.5255Z" fill="white"/>
<path d="M122.046 17.1648V21H120.503V12.2727H122.012V15.5667H122.089C122.242 15.1974 122.479 14.9062 122.8 14.6932C123.124 14.4773 123.536 14.3693 124.036 14.3693C124.491 14.3693 124.887 14.4645 125.225 14.6548C125.563 14.8451 125.824 15.1236 126.009 15.49C126.197 15.8565 126.29 16.304 126.29 16.8324V21H124.748V17.071C124.748 16.6307 124.634 16.2883 124.407 16.044C124.182 15.7969 123.867 15.6733 123.461 15.6733C123.188 15.6733 122.944 15.7329 122.728 15.8523C122.515 15.9687 122.347 16.1378 122.225 16.3594C122.106 16.5809 122.046 16.8494 122.046 17.1648Z" fill="white"/>
<path d="M119.073 14.4545V15.6477H115.31V14.4545H119.073ZM116.239 12.8864H117.781V19.0312C117.781 19.2386 117.813 19.3977 117.875 19.5085C117.941 19.6165 118.026 19.6903 118.131 19.7301C118.236 19.7699 118.352 19.7898 118.48 19.7898C118.577 19.7898 118.665 19.7827 118.744 19.7685C118.827 19.7543 118.889 19.7415 118.932 19.7301L119.192 20.9361C119.11 20.9645 118.992 20.9957 118.838 21.0298C118.688 21.0639 118.503 21.0838 118.284 21.0895C117.898 21.1008 117.55 21.0426 117.24 20.9148C116.931 20.7841 116.685 20.5824 116.503 20.3096C116.324 20.0369 116.236 19.696 116.239 19.2869V12.8864Z" fill="white"/>
<path d="M109.849 23.4545C109.639 23.4545 109.444 23.4374 109.265 23.4033C109.089 23.3721 108.948 23.3352 108.843 23.2925L109.201 22.0908C109.426 22.1562 109.626 22.1874 109.802 22.1846C109.978 22.1817 110.133 22.1263 110.267 22.0184C110.403 21.9133 110.518 21.7371 110.612 21.49L110.744 21.1363L108.37 14.4545H110.007L111.515 19.3976H111.583L113.096 14.4545H114.737L112.116 21.7925C111.994 22.1391 111.832 22.436 111.63 22.6832C111.429 22.9332 111.181 23.1235 110.889 23.2542C110.599 23.3877 110.252 23.4545 109.849 23.4545Z" fill="white"/>
<path d="M103.355 17.1647V20.9999H101.812V14.4545H103.286V15.5667H103.363C103.514 15.2002 103.754 14.909 104.083 14.6931C104.416 14.4772 104.826 14.3693 105.315 14.3693C105.767 14.3693 106.16 14.4659 106.495 14.659C106.833 14.8522 107.095 15.132 107.279 15.4985C107.467 15.865 107.559 16.3096 107.556 16.8323V20.9999H106.014V17.071C106.014 16.6335 105.9 16.2911 105.673 16.044C105.448 15.7968 105.137 15.6732 104.74 15.6732C104.47 15.6732 104.23 15.7329 104.019 15.8522C103.812 15.9687 103.649 16.1377 103.529 16.3593C103.413 16.5809 103.355 16.8494 103.355 17.1647Z" fill="white"/>
<path d="M96.8048 21.132C96.3901 21.132 96.0165 21.0582 95.6841 20.9105C95.3546 20.7599 95.0932 20.5383 94.9 20.2457C94.7097 19.9531 94.6145 19.5923 94.6145 19.1633C94.6145 18.794 94.6827 18.4886 94.819 18.2471C94.9554 18.0056 95.1415 17.8124 95.3773 17.6676C95.6131 17.5227 95.8787 17.4133 96.1742 17.3394C96.4725 17.2627 96.7807 17.2073 97.0989 17.1732C97.4824 17.1335 97.7935 17.098 98.0321 17.0667C98.2708 17.0326 98.444 16.9815 98.552 16.9133C98.6628 16.8423 98.7182 16.7329 98.7182 16.5852V16.5596C98.7182 16.2386 98.623 15.99 98.4327 15.8139C98.2423 15.6377 97.9682 15.5497 97.6102 15.5497C97.2324 15.5497 96.9327 15.632 96.7111 15.7968C96.4923 15.9616 96.3446 16.1562 96.2679 16.3806L94.8276 16.1761C94.9412 15.7784 95.1287 15.446 95.3901 15.1789C95.6514 14.909 95.971 14.7073 96.3489 14.5738C96.7267 14.4374 97.1443 14.3693 97.6017 14.3693C97.9171 14.3693 98.231 14.4062 98.5435 14.4801C98.856 14.5539 99.1415 14.6761 99.4 14.8465C99.6585 15.0141 99.8659 15.2428 100.022 15.5326C100.181 15.8224 100.261 16.1846 100.261 16.6193V20.9999H98.7779V20.1008H98.7267C98.633 20.2826 98.5009 20.4531 98.3304 20.6122C98.1628 20.7684 97.9512 20.8948 97.6955 20.9914C97.4426 21.0852 97.1458 21.132 96.8048 21.132ZM97.2054 19.9985C97.5151 19.9985 97.7835 19.9374 98.0108 19.8153C98.2381 19.6903 98.4128 19.5255 98.535 19.321C98.66 19.1164 98.7225 18.8934 98.7225 18.6519V17.8806C98.6742 17.9204 98.5918 17.9573 98.4753 17.9914C98.3617 18.0255 98.2338 18.0553 98.0918 18.0809C97.9497 18.1065 97.8091 18.1292 97.6699 18.1491C97.5307 18.169 97.41 18.186 97.3077 18.2002C97.0776 18.2315 96.8716 18.2826 96.6898 18.3536C96.508 18.4247 96.3645 18.5241 96.2594 18.6519C96.1543 18.7769 96.1017 18.9389 96.1017 19.1377C96.1017 19.4218 96.2054 19.6363 96.4128 19.7812C96.6202 19.9261 96.8844 19.9985 97.2054 19.9985Z" fill="white"/>
<path d="M86.9377 21.132C86.5229 21.132 86.1493 21.0582 85.8169 20.9105C85.4874 20.7599 85.226 20.5383 85.0328 20.2457C84.8425 19.9531 84.7473 19.5923 84.7473 19.1633C84.7473 18.794 84.8155 18.4886 84.9519 18.2471C85.0882 18.0056 85.2743 17.8124 85.5101 17.6676C85.7459 17.5227 86.0115 17.4133 86.307 17.3394C86.6053 17.2627 86.9135 17.2073 87.2317 17.1732C87.6152 17.1335 87.9263 17.098 88.1649 17.0667C88.4036 17.0326 88.5769 16.9815 88.6848 16.9133C88.7956 16.8423 88.851 16.7329 88.851 16.5852V16.5596C88.851 16.2386 88.7558 15.99 88.5655 15.8139C88.3752 15.6377 88.101 15.5497 87.7431 15.5497C87.3652 15.5497 87.0655 15.632 86.8439 15.7968C86.6252 15.9616 86.4774 16.1562 86.4007 16.3806L84.9604 16.1761C85.074 15.7784 85.2615 15.446 85.5229 15.1789C85.7842 14.909 86.1038 14.7073 86.4817 14.5738C86.8595 14.4374 87.2771 14.3693 87.7345 14.3693C88.0499 14.3693 88.3638 14.4062 88.6763 14.4801C88.9888 14.5539 89.2743 14.6761 89.5328 14.8465C89.7914 15.0141 89.9987 15.2428 90.155 15.5326C90.3141 15.8224 90.3936 16.1846 90.3936 16.6193V20.9999H88.9107V20.1008H88.8595C88.7658 20.2826 88.6337 20.4531 88.4632 20.6122C88.2956 20.7684 88.084 20.8948 87.8283 20.9914C87.5754 21.0852 87.2786 21.132 86.9377 21.132ZM87.3382 19.9985C87.6479 19.9985 87.9164 19.9374 88.1436 19.8153C88.3709 19.6903 88.5456 19.5255 88.6678 19.321C88.7928 19.1164 88.8553 18.8934 88.8553 18.6519V17.8806C88.807 17.9204 88.7246 17.9573 88.6081 17.9914C88.4945 18.0255 88.3666 18.0553 88.2246 18.0809C88.0825 18.1065 87.9419 18.1292 87.8027 18.1491C87.6635 18.169 87.5428 18.186 87.4405 18.2002C87.2104 18.2315 87.0044 18.2826 86.8226 18.3536C86.6408 18.4247 86.4973 18.5241 86.3922 18.6519C86.2871 18.7769 86.2345 18.9389 86.2345 19.1377C86.2345 19.4218 86.3382 19.6363 86.5456 19.7812C86.753 19.9261 87.0172 19.9985 87.3382 19.9985Z" fill="white"/>
<path d="M79.2843 17.1647V20.9999H77.7417V14.4545H79.2161V15.5667H79.2928C79.4434 15.2002 79.6835 14.909 80.013 14.6931C80.3454 14.4772 80.7559 14.3693 81.2445 14.3693C81.6962 14.3693 82.0897 14.4659 82.4249 14.659C82.763 14.8522 83.0244 15.132 83.209 15.4985C83.3965 15.865 83.4889 16.3096 83.486 16.8323V20.9999H81.9434V17.071C81.9434 16.6335 81.8298 16.2911 81.6025 16.044C81.3781 15.7968 81.067 15.6732 80.6693 15.6732C80.3994 15.6732 80.1593 15.7329 79.9491 15.8522C79.7417 15.9687 79.5783 16.1377 79.459 16.3593C79.3426 16.5809 79.2843 16.8494 79.2843 17.1647Z" fill="white"/>
<path d="M76.0978 12.2727V21H74.5168V12.2727H76.0978Z" fill="white"/>
<path d="M66.9541 21H65.2666L68.339 12.2727H70.2907L73.3675 21H71.68L69.349 14.0625H69.2808L66.9541 21ZM67.0095 17.5781H71.6118V18.848H67.0095V17.5781Z" fill="white"/>
<path d="M57.3628 18.946L57.3585 17.0838H57.6057L59.958 14.4545H61.7605L58.8671 17.6761H58.5475L57.3628 18.946ZM55.9565 21V12.2727H57.4992V21H55.9565ZM60.0645 21L57.9338 18.0213L58.9736 16.9346L61.9097 21H60.0645Z" fill="white"/>
<path d="M54.5439 16.1846L53.1376 16.338C53.0979 16.196 53.0283 16.0624 52.9288 15.9374C52.8322 15.8124 52.7015 15.7116 52.5368 15.6349C52.372 15.5582 52.1703 15.5198 51.9317 15.5198C51.6106 15.5198 51.3408 15.5894 51.122 15.7286C50.9061 15.8678 50.7996 16.0482 50.8024 16.2698C50.7996 16.4602 50.8692 16.615 51.0112 16.7343C51.1561 16.8536 51.3947 16.9516 51.7271 17.0284L52.8436 17.267C53.4629 17.4005 53.9231 17.6122 54.2243 17.9019C54.5283 18.1917 54.6817 18.571 54.6845 19.0397C54.6817 19.4516 54.5609 19.8153 54.3223 20.1306C54.0865 20.4431 53.7584 20.6874 53.3379 20.8636C52.9175 21.0397 52.4345 21.1278 51.889 21.1278C51.0879 21.1278 50.443 20.9602 49.9544 20.6249C49.4658 20.2869 49.1746 19.8167 49.0808 19.2144L50.5851 19.0695C50.6533 19.365 50.7981 19.588 51.0197 19.7386C51.2413 19.8891 51.5297 19.9644 51.8848 19.9644C52.2513 19.9644 52.5453 19.8891 52.7669 19.7386C52.9913 19.588 53.1035 19.4019 53.1035 19.1803C53.1035 18.9928 53.0311 18.838 52.8862 18.7159C52.7442 18.5937 52.5226 18.4999 52.2214 18.4346L51.105 18.2002C50.4771 18.0695 50.0126 17.8494 49.7115 17.5397C49.4104 17.2272 49.2612 16.8323 49.264 16.3551C49.2612 15.9516 49.3706 15.6022 49.5922 15.3068C49.8166 15.0085 50.1277 14.7784 50.5254 14.6164C50.926 14.4516 51.3876 14.3693 51.9104 14.3693C52.6774 14.3693 53.2811 14.5326 53.7214 14.8593C54.1646 15.186 54.4388 15.6278 54.5439 16.1846Z" fill="white"/>
<path d="M41.9814 21H40.2939L43.3664 12.2727H45.3181L48.3948 21H46.7073L44.3763 14.0625H44.3082L41.9814 21ZM42.0368 17.5781H46.6391V18.848H42.0368V17.5781Z" fill="white"/>
<path d="M34.8745 17.9491C35.042 17.9817 35.042 18.1955 34.8745 18.228L30.4565 19.1112C28.866 19.4272 27.6289 21.0867 27.4243 23.1691L26.9732 27.7801C26.9546 27.9521 26.6756 27.9521 26.6616 27.7801L26.2105 23.1691C26.0059 21.082 24.7688 19.4272 23.1783 19.1112L18.7603 18.228C18.5929 18.1955 18.5975 17.9817 18.7603 17.9491L23.1318 17.1496C24.7456 16.8521 26.0059 15.1834 26.2105 13.0731L26.6616 8.40169C26.6802 8.22971 26.9593 8.22971 26.9732 8.40169L27.4243 13.0731C27.6289 15.1834 28.8893 16.8521 30.503 17.1496L34.8745 17.9491Z" fill="white"/>
<path d="M25.1149 9.83821C25.2042 9.85447 25.2042 9.96138 25.1149 9.97765L22.7586 10.4192C21.9103 10.5773 21.2506 11.407 21.1414 12.4482L20.9009 14.7537C20.8909 14.8397 20.7421 14.8397 20.7347 14.7537L20.4941 12.4482C20.3849 11.4047 19.7252 10.5773 18.8769 10.4192L16.5206 9.97765C16.4313 9.96138 16.4338 9.85447 16.5206 9.83821L18.8521 9.43846C19.7128 9.28972 20.3849 8.45536 20.4941 7.40022L20.7347 5.06449C20.7446 4.9785 20.8934 4.9785 20.9009 5.06449L21.1414 7.40022C21.2506 8.45536 21.9227 9.28972 22.7834 9.43846L25.1149 9.83821Z" fill="white"/>
<path d="M17.4952 15.3085C17.5622 15.3211 17.5622 15.4043 17.4952 15.4169L15.728 15.7604C15.0918 15.8833 14.597 16.5286 14.5151 17.3384L14.3347 19.1316C14.3273 19.1985 14.2156 19.1985 14.2101 19.1316L14.0296 17.3384C13.9478 16.5268 13.4529 15.8833 12.8167 15.7604L11.0495 15.4169C10.9826 15.4043 10.9844 15.3211 11.0495 15.3085L12.7981 14.9975C13.4436 14.8819 13.9478 14.2329 14.0296 13.4122L14.2101 11.5956C14.2175 11.5287 14.3291 11.5287 14.3347 11.5956L14.5151 13.4122C14.597 14.2329 15.1011 14.8819 15.7466 14.9975L17.4952 15.3085Z" fill="white"/>
</svg>
