<svg width="73" height="79" viewBox="0 0 73 79" fill="none" xmlns="http://www.w3.org/2000/svg">
<path d="M41.8675 2.55802C25.2834 1.63855 10.6929 14.8404 10.3704 32.0932L10.326 32.0901L10.1337 34.8533L1.92927 46.3984L9.29446 46.911L8.5339 57.8382C8.34078 60.6128 10.415 63.0174 13.1668 63.2089L26.823 64.1594L26.0038 75.9303L48.2657 77.4797L48.302 76.9587C48.8709 68.7847 52.6728 61.1253 58.9872 55.9603C65.1891 50.8872 69.3716 43.336 69.9745 34.674C71.1386 17.9528 58.5207 3.48149 41.8675 2.55802Z" fill="#AECBFA"/>
<path d="M36.8207 9.0909C21.4373 9.30609 8.80414 22.3354 9.61572 38.167H9.57453V40.7116L2.73584 51.8151H9.57453V61.8777C9.57453 64.4328 11.6458 66.5041 14.2009 66.5041H26.881V77.3435H47.5516V76.8637C47.5516 69.3365 50.572 62.0747 56.0746 56.9385C61.4791 51.8938 64.8583 44.7068 64.8583 36.7303C64.8585 21.3321 52.2683 8.87496 36.8207 9.0909Z" fill="url(#paint0_linear_562_785)"/>
<path d="M40.6787 30.4904V21.3005H41.7915V25.8595H41.8992L46.0275 21.3005H47.4813L43.6223 25.4467L47.4813 30.4904H46.1352L42.9403 26.2185L41.7915 27.5108V30.4904H40.6787Z" fill="white"/>
<path d="M37.6466 23.5979C37.5928 23.1432 37.3744 22.7902 36.9915 22.5389C36.6086 22.2876 36.1389 22.162 35.5825 22.162C35.1757 22.162 34.8197 22.2278 34.5146 22.3594C34.2124 22.4911 33.9761 22.672 33.8056 22.9024C33.6381 23.1327 33.5543 23.3945 33.5543 23.6876C33.5543 23.9329 33.6126 24.1438 33.7293 24.3203C33.849 24.4938 34.0015 24.6389 34.187 24.7556C34.3725 24.8693 34.5669 24.9635 34.7703 25.0383C34.9737 25.1101 35.1607 25.1684 35.3312 25.2133L36.2646 25.4646C36.5039 25.5274 36.7701 25.6142 37.0633 25.7248C37.3594 25.8355 37.6421 25.9866 37.9114 26.1781C38.1836 26.3665 38.408 26.6088 38.5845 26.905C38.761 27.2011 38.8492 27.5646 38.8492 27.9954C38.8492 28.492 38.7191 28.9407 38.4588 29.3415C38.2016 29.7424 37.8246 30.061 37.328 30.2973C36.8344 30.5336 36.2347 30.6518 35.5287 30.6518C34.8705 30.6518 34.3007 30.5456 33.819 30.3332C33.3404 30.1208 32.9635 29.8247 32.6883 29.4447C32.416 29.0648 32.262 28.6236 32.2261 28.121H33.3748C33.4047 28.468 33.5214 28.7552 33.7248 28.9826C33.9312 29.2069 34.1915 29.3744 34.5056 29.4851C34.8227 29.5928 35.1637 29.6467 35.5287 29.6467C35.9535 29.6467 36.3349 29.5779 36.6729 29.4403C37.0109 29.2997 37.2787 29.1052 37.4761 28.8569C37.6736 28.6056 37.7723 28.3125 37.7723 27.9774C37.7723 27.6723 37.687 27.424 37.5165 27.2325C37.346 27.0411 37.1216 26.8855 36.8434 26.7659C36.5652 26.6462 36.2646 26.5415 35.9415 26.4518L34.8107 26.1287C34.0928 25.9223 33.5244 25.6276 33.1056 25.2447C32.6868 24.8618 32.4774 24.3607 32.4774 23.7415C32.4774 23.227 32.6165 22.7782 32.8947 22.3953C33.1759 22.0094 33.5528 21.7103 34.0254 21.4979C34.5011 21.2825 35.0321 21.1748 35.6184 21.1748C36.2107 21.1748 36.7372 21.281 37.1979 21.4934C37.6586 21.7028 38.0236 21.99 38.2928 22.3549C38.565 22.7199 38.7086 23.1342 38.7236 23.5979H37.6466Z" fill="white"/>
<path d="M24.4587 30.4904H23.292L26.6664 21.3005H27.8151L31.1895 30.4904H30.0228L27.2766 22.7544H27.2048L24.4587 30.4904ZM24.8894 26.9006H29.592V27.8878H24.8894V26.9006Z" fill="white"/>
<path d="M46.5988 35.8513V54.231H42.7129V35.8513H46.5988Z" fill="white"/>
<path d="M26.4708 54.231H22.3066L28.6516 35.8513H33.6593L39.9952 54.231H35.8311L31.2272 40.0514H31.0836L26.4708 54.231ZM26.2105 47.0065H36.0465V50.0399H26.2105V47.0065Z" fill="white"/>
<defs>
<linearGradient id="paint0_linear_562_785" x1="1.15853" y1="34.6012" x2="89.3641" y2="40.4141" gradientUnits="userSpaceOnUse">
<stop stop-color="#006DFF"/>
<stop offset="1" stop-color="#00033B"/>
</linearGradient>
</defs>
</svg>
