<svg width="960" height="270" viewBox="0 0 960 270" fill="none" xmlns="http://www.w3.org/2000/svg">
<path d="M448.949 259.944H451.932L453.699 262.234L454.959 263.726L457.987 267.614H454.791L452.731 265.004L451.852 263.761L448.949 259.944ZM458.422 256.961C458.422 258.92 458.055 260.598 457.321 261.994C456.593 263.385 455.598 264.451 454.338 265.19C453.083 265.93 451.66 266.3 450.068 266.3C448.475 266.3 447.049 265.93 445.788 265.19C444.534 264.445 443.539 263.376 442.805 261.985C442.078 260.589 441.714 258.914 441.714 256.961C441.714 255.002 442.078 253.327 442.805 251.936C443.539 250.539 444.534 249.471 445.788 248.731C447.049 247.991 448.475 247.621 450.068 247.621C451.66 247.621 453.083 247.991 454.338 248.731C455.598 249.471 456.593 250.539 457.321 251.936C458.055 253.327 458.422 255.002 458.422 256.961ZM455.11 256.961C455.11 255.582 454.894 254.419 454.462 253.472C454.036 252.519 453.444 251.8 452.687 251.314C451.929 250.823 451.056 250.577 450.068 250.577C449.079 250.577 448.206 250.823 447.449 251.314C446.691 251.8 446.096 252.519 445.664 253.472C445.238 254.419 445.025 255.582 445.025 256.961C445.025 258.34 445.238 259.506 445.664 260.458C446.096 261.405 446.691 262.125 447.449 262.616C448.206 263.101 449.079 263.344 450.068 263.344C451.056 263.344 451.929 263.101 452.687 262.616C453.444 262.125 454.036 261.405 454.462 260.458C454.894 259.506 455.11 258.34 455.11 256.961ZM470.109 260.316V252.415H473.323V266.052H470.207V263.628H470.065C469.757 264.391 469.251 265.016 468.547 265.501C467.848 265.986 466.987 266.229 465.963 266.229C465.07 266.229 464.28 266.031 463.593 265.634C462.912 265.232 462.38 264.649 461.995 263.885C461.61 263.116 461.418 262.187 461.418 261.098V252.415H464.632V260.601C464.632 261.465 464.868 262.151 465.342 262.66C465.815 263.169 466.437 263.424 467.206 263.424C467.68 263.424 468.138 263.308 468.582 263.077C469.026 262.847 469.39 262.503 469.674 262.048C469.964 261.586 470.109 261.009 470.109 260.316ZM482.576 266.318C481.244 266.318 480.09 266.025 479.114 265.439C478.137 264.853 477.379 264.033 476.841 262.98C476.308 261.926 476.042 260.695 476.042 259.287C476.042 257.878 476.308 256.644 476.841 255.585C477.379 254.525 478.137 253.702 479.114 253.116C480.09 252.531 481.244 252.238 482.576 252.238C483.908 252.238 485.062 252.531 486.038 253.116C487.015 253.702 487.77 254.525 488.302 255.585C488.841 256.644 489.11 257.878 489.11 259.287C489.11 260.695 488.841 261.926 488.302 262.98C487.77 264.033 487.015 264.853 486.038 265.439C485.062 266.025 483.908 266.318 482.576 266.318ZM482.594 263.743C483.316 263.743 483.92 263.545 484.405 263.148C484.89 262.746 485.251 262.207 485.488 261.533C485.731 260.858 485.852 260.106 485.852 259.278C485.852 258.443 485.731 257.689 485.488 257.014C485.251 256.333 484.89 255.792 484.405 255.389C483.92 254.987 483.316 254.786 482.594 254.786C481.854 254.786 481.238 254.987 480.747 255.389C480.262 255.792 479.898 256.333 479.655 257.014C479.418 257.689 479.3 258.443 479.3 259.278C479.3 260.106 479.418 260.858 479.655 261.533C479.898 262.207 480.262 262.746 480.747 263.148C481.238 263.545 481.854 263.743 482.594 263.743ZM498.647 252.415V254.901H490.808V252.415H498.647ZM492.743 249.148H495.957V261.95C495.957 262.382 496.022 262.713 496.152 262.944C496.289 263.169 496.466 263.323 496.685 263.406C496.904 263.489 497.147 263.53 497.413 263.53C497.614 263.53 497.798 263.515 497.964 263.486C498.135 263.456 498.265 263.43 498.354 263.406L498.896 265.918C498.724 265.978 498.478 266.043 498.159 266.114C497.845 266.185 497.46 266.226 497.005 266.238C496.2 266.262 495.475 266.14 494.83 265.874C494.185 265.602 493.673 265.181 493.294 264.613C492.921 264.045 492.737 263.335 492.743 262.483V249.148ZM507.225 266.318C505.858 266.318 504.677 266.034 503.683 265.466C502.695 264.891 501.934 264.081 501.401 263.033C500.869 261.98 500.602 260.74 500.602 259.313C500.602 257.911 500.869 256.679 501.401 255.62C501.94 254.555 502.692 253.726 503.656 253.134C504.621 252.536 505.755 252.238 507.057 252.238C507.897 252.238 508.69 252.374 509.436 252.646C510.188 252.912 510.85 253.327 511.425 253.889C512.005 254.451 512.46 255.167 512.792 256.037C513.123 256.901 513.289 257.931 513.289 259.127V260.112H502.112V257.946H510.208C510.202 257.331 510.069 256.783 509.809 256.304C509.548 255.818 509.184 255.437 508.717 255.158C508.255 254.88 507.717 254.741 507.101 254.741C506.444 254.741 505.867 254.901 505.37 255.221C504.873 255.534 504.485 255.949 504.207 256.463C503.935 256.972 503.796 257.532 503.79 258.141V260.032C503.79 260.825 503.935 261.506 504.225 262.074C504.515 262.637 504.92 263.069 505.441 263.37C505.962 263.666 506.571 263.814 507.27 263.814C507.737 263.814 508.16 263.749 508.539 263.619C508.918 263.483 509.247 263.285 509.525 263.024C509.803 262.764 510.013 262.441 510.155 262.056L513.156 262.394C512.966 263.187 512.605 263.879 512.073 264.471C511.546 265.057 510.871 265.513 510.048 265.838C509.226 266.158 508.285 266.318 507.225 266.318Z" fill="#FFB387"/>
<path opacity="0.2" d="M417.923 231.417L364.996 141.03L417.923 50.6426H523.778L576.706 141.03L523.778 231.417H417.923Z" fill="black"/>
<path d="M538.326 221.416H434.165L382.122 132.238L434.165 43.0596H538.326L590.369 132.238L538.326 221.416Z" fill="#FFB387" stroke="white" stroke-width="8"/>
<path d="M486.293 141.504C484.611 140.615 482.308 139.398 482.308 138.474C482.308 136.977 483.526 135.758 485.024 135.758C486.521 135.758 487.739 136.977 487.739 138.474C487.739 139.974 488.955 141.189 490.455 141.189C491.955 141.189 493.17 139.974 493.17 138.474C493.17 134.934 490.9 131.915 487.739 130.794V129.422C487.739 127.923 486.524 126.707 485.024 126.707C483.524 126.707 482.308 127.922 482.308 129.422V130.794C479.147 131.915 476.877 134.934 476.877 138.474C476.877 142.67 480.69 144.686 483.755 146.306C485.436 147.194 487.739 148.412 487.739 149.336C487.739 150.833 486.521 152.051 485.024 152.051C483.526 152.051 482.308 150.833 482.308 149.336C482.308 147.836 481.092 146.62 479.593 146.62C478.093 146.62 476.877 147.836 476.877 149.336C476.877 152.876 479.147 155.894 482.308 157.015V158.388C482.308 159.887 483.524 161.103 485.024 161.103C486.523 161.103 487.739 159.887 487.739 158.388V157.015C490.9 155.894 493.17 152.876 493.17 149.336C493.17 145.14 489.357 143.124 486.293 141.504Z" fill="white"/>
<path d="M468.731 152.052H459.679V135.759H468.731C470.231 135.759 471.447 134.543 471.447 133.043C471.447 131.543 470.231 130.327 468.731 130.327H456.964C455.464 130.327 454.248 131.543 454.248 133.043V154.767C454.248 156.267 455.464 157.483 456.964 157.483H468.731C470.231 157.483 471.447 156.267 471.447 154.767C471.447 153.267 470.231 152.052 468.731 152.052Z" fill="white"/>
<path d="M513.086 130.327H501.319C499.819 130.327 498.604 131.543 498.604 133.043C498.604 134.543 499.819 135.759 501.319 135.759H510.371V152.052H501.319C499.819 152.052 498.604 153.267 498.604 154.767C498.604 156.267 499.819 157.483 501.319 157.483H513.086C514.586 157.483 515.802 156.267 515.802 154.767V133.043C515.802 131.543 514.586 130.327 513.086 130.327Z" fill="white"/>
<path d="M518.516 98.2842H451.533C447.041 98.2842 443.387 101.939 443.387 106.431C443.387 107.204 443.387 159.738 443.387 160.741C443.387 165.233 447.041 168.888 451.533 168.888H518.516C523.008 168.888 526.663 165.233 526.663 160.741C526.663 158.529 526.663 108.673 526.663 106.431C526.663 101.939 523.008 98.2842 518.516 98.2842ZM521.232 160.741C521.232 162.239 520.014 163.457 518.516 163.457H451.533C450.036 163.457 448.818 162.239 448.818 160.741C448.818 159.075 448.818 128.856 448.818 127.25C448.818 125.753 450.036 124.534 451.533 124.534H518.516C520.014 124.534 521.232 125.753 521.232 127.25C521.232 128.858 521.232 159.095 521.232 160.741ZM521.232 119.57C520.382 119.269 519.468 119.103 518.516 119.103H451.533C450.581 119.103 449.668 119.269 448.818 119.57V117.293C448.818 115.795 450.036 114.577 451.533 114.577H518.516C520.014 114.577 521.232 115.795 521.232 117.293V119.57ZM521.232 109.613C520.382 109.312 519.468 109.146 518.516 109.146H451.533C450.581 109.146 449.668 109.312 448.818 109.613V106.431C448.818 104.933 450.036 103.715 451.533 103.715H518.516C520.014 103.715 521.232 104.933 521.232 106.431V109.613Z" fill="white"/>
<path d="M814.317 266.052V247.87H821.277C822.591 247.87 823.683 248.077 824.553 248.491C825.429 248.9 826.083 249.459 826.515 250.169C826.953 250.879 827.172 251.684 827.172 252.584C827.172 253.324 827.03 253.957 826.746 254.484C826.462 255.005 826.08 255.428 825.601 255.753C825.121 256.079 824.585 256.313 823.994 256.455V256.632C824.639 256.668 825.257 256.866 825.849 257.227C826.447 257.582 826.935 258.085 827.314 258.736C827.693 259.387 827.882 260.174 827.882 261.098C827.882 262.039 827.654 262.885 827.199 263.637C826.743 264.382 826.056 264.971 825.139 265.403C824.221 265.835 823.067 266.052 821.676 266.052H814.317ZM817.61 263.299H821.153C822.348 263.299 823.209 263.072 823.736 262.616C824.269 262.154 824.535 261.562 824.535 260.84C824.535 260.302 824.402 259.816 824.136 259.384C823.869 258.946 823.491 258.603 822.999 258.354C822.508 258.1 821.922 257.973 821.241 257.973H817.61V263.299ZM817.61 255.602H820.869C821.437 255.602 821.949 255.499 822.404 255.292C822.86 255.079 823.218 254.78 823.479 254.395C823.745 254.004 823.878 253.543 823.878 253.01C823.878 252.306 823.63 251.726 823.132 251.27C822.641 250.814 821.91 250.586 820.94 250.586H817.61V255.602ZM836.554 266.318C835.222 266.318 834.068 266.025 833.091 265.439C832.115 264.853 831.357 264.033 830.818 262.98C830.286 261.926 830.019 260.695 830.019 259.287C830.019 257.878 830.286 256.644 830.818 255.585C831.357 254.525 832.115 253.702 833.091 253.116C834.068 252.531 835.222 252.238 836.554 252.238C837.885 252.238 839.039 252.531 840.016 253.116C840.992 253.702 841.747 254.525 842.28 255.585C842.818 256.644 843.088 257.878 843.088 259.287C843.088 260.695 842.818 261.926 842.28 262.98C841.747 264.033 840.992 264.853 840.016 265.439C839.039 266.025 837.885 266.318 836.554 266.318ZM836.571 263.743C837.293 263.743 837.897 263.545 838.382 263.148C838.868 262.746 839.229 262.207 839.465 261.533C839.708 260.858 839.829 260.106 839.829 259.278C839.829 258.443 839.708 257.689 839.465 257.014C839.229 256.333 838.868 255.792 838.382 255.389C837.897 254.987 837.293 254.786 836.571 254.786C835.831 254.786 835.216 254.987 834.725 255.389C834.239 255.792 833.875 256.333 833.633 257.014C833.396 257.689 833.278 258.443 833.278 259.278C833.278 260.106 833.396 260.858 833.633 261.533C833.875 262.207 834.239 262.746 834.725 263.148C835.216 263.545 835.831 263.743 836.571 263.743ZM851.764 266.318C850.432 266.318 849.278 266.025 848.301 265.439C847.325 264.853 846.567 264.033 846.028 262.98C845.496 261.926 845.229 260.695 845.229 259.287C845.229 257.878 845.496 256.644 846.028 255.585C846.567 254.525 847.325 253.702 848.301 253.116C849.278 252.531 850.432 252.238 851.764 252.238C853.095 252.238 854.249 252.531 855.226 253.116C856.202 253.702 856.957 254.525 857.49 255.585C858.028 256.644 858.298 257.878 858.298 259.287C858.298 260.695 858.028 261.926 857.49 262.98C856.957 264.033 856.202 264.853 855.226 265.439C854.249 266.025 853.095 266.318 851.764 266.318ZM851.781 263.743C852.503 263.743 853.107 263.545 853.592 263.148C854.078 262.746 854.439 262.207 854.675 261.533C854.918 260.858 855.039 260.106 855.039 259.278C855.039 258.443 854.918 257.689 854.675 257.014C854.439 256.333 854.078 255.792 853.592 255.389C853.107 254.987 852.503 254.786 851.781 254.786C851.041 254.786 850.426 254.987 849.935 255.389C849.449 255.792 849.085 256.333 848.843 257.014C848.606 257.689 848.488 258.443 848.488 259.278C848.488 260.106 848.606 260.858 848.843 261.533C849.085 262.207 849.449 262.746 849.935 263.148C850.426 263.545 851.041 263.743 851.781 263.743ZM863.955 261.772L863.946 257.893H864.461L869.362 252.415H873.117L867.089 259.127H866.423L863.955 261.772ZM861.025 266.052V247.87H864.239V266.052H861.025ZM869.584 266.052L865.145 259.846L867.311 257.582L873.428 266.052H869.584Z" fill="#19CFBD"/>
<path opacity="0.2" d="M782.923 230.756L729.996 140.368L782.923 49.981H888.778L941.706 140.368L888.778 230.756H782.923Z" fill="black"/>
<path d="M903.326 221.416H799.165L747.122 132.238L799.165 43.0596H903.326L955.369 132.238L903.326 221.416Z" fill="#19CFBD" stroke="white" stroke-width="8"/>
<path fill-rule="evenodd" clip-rule="evenodd" d="M821.244 132.478C821.243 128.106 822.303 123.796 824.337 119.911C826.37 116.025 829.318 112.676 832.933 110.144C836.548 107.612 840.725 105.97 845.116 105.356C849.506 104.742 853.982 105.173 858.168 106.614C859.162 106.956 860.253 106.894 861.2 106.442C862.148 105.991 862.874 105.186 863.221 104.206C863.567 103.226 863.504 102.151 863.046 101.217C862.588 100.282 861.772 99.5655 860.779 99.2242C853.468 96.7091 845.527 96.6055 838.151 98.9289C830.776 101.252 824.366 105.877 819.888 112.105C815.41 118.334 813.107 125.829 813.325 133.461C813.543 141.093 816.271 148.448 821.097 154.419C825.924 160.389 832.587 164.65 840.084 166.56C847.58 168.47 855.503 167.926 862.658 165.009C869.814 162.092 875.813 156.96 879.754 150.388C883.694 143.815 885.361 136.158 884.503 128.57C884.446 128.059 884.287 127.565 884.036 127.115C883.785 126.664 883.447 126.267 883.04 125.946C882.633 125.625 882.166 125.386 881.666 125.243C881.165 125.1 880.641 125.055 880.123 125.112C879.606 125.168 879.104 125.325 878.648 125.572C878.191 125.82 877.788 126.154 877.463 126.555C877.137 126.956 876.895 127.416 876.749 127.91C876.604 128.403 876.559 128.92 876.616 129.431C877.034 133.131 876.682 136.877 875.582 140.439C874.483 144.001 872.658 147.304 870.219 150.147C867.781 152.99 864.78 155.313 861.4 156.973C858.021 158.634 854.333 159.597 850.563 159.805C846.793 160.012 843.02 159.459 839.474 158.18C835.928 156.901 832.683 154.922 829.939 152.364C827.195 149.807 825.009 146.724 823.514 143.305C822.018 139.886 821.246 136.202 821.244 132.478ZM879.762 111.595C880.459 110.817 880.814 109.797 880.748 108.761C880.683 107.725 880.202 106.758 879.413 106.071C878.624 105.384 877.591 105.034 876.54 105.099C875.489 105.163 874.508 105.637 873.811 106.415L848.281 134.896L835.653 124.752C835.25 124.427 834.785 124.184 834.286 124.036C833.787 123.889 833.263 123.839 832.745 123.891C831.698 123.996 830.736 124.507 830.071 125.311C829.742 125.709 829.495 126.168 829.346 126.66C829.196 127.152 829.146 127.668 829.199 128.179C829.305 129.212 829.823 130.16 830.639 130.816L846.226 143.335C847.02 143.972 848.034 144.282 849.054 144.199C850.074 144.117 851.023 143.649 851.701 142.893L879.762 111.595Z" fill="white"/>
<path opacity="0.5" d="M709.986 216.592C711.52 213.394 718.633 196.526 716.381 193.78C717.925 195.66 697.604 208.237 695.933 209.143C686.588 214.212 676.355 217.615 665.929 219.633C646.147 223.466 618.454 222.454 601.194 210.631C599.527 209.489 593.113 204.181 597.882 202.584C599.556 202.017 603.259 205.171 605.175 205.872C614.86 209.426 625.293 211.169 635.586 211.258C646.817 211.355 657.876 210.691 668.731 207.492C671.161 206.771 691.869 200.743 691.244 197.606C690.708 194.907 653.841 204.009 652.77 198.047C652.025 193.882 692.805 188.553 697.464 187.791C704.537 186.641 712.835 184.43 719.989 184.731C727.94 185.076 726.583 190.914 724.309 196.243C721.471 202.906 719.813 209.866 716.433 216.308C715.546 218.006 714.018 222.445 711.566 222.408C708.388 222.346 709.443 218.551 709.969 216.587C709.692 217.621 713.045 210.157 709.969 216.587L709.986 216.592Z" fill="#A3B6A2"/>
<path d="M85.3101 252.868C85.2272 252.093 84.878 251.489 84.2625 251.057C83.6529 250.625 82.8598 250.409 81.8833 250.409C81.1967 250.409 80.6078 250.512 80.1166 250.719C79.6253 250.927 79.2495 251.208 78.9891 251.563C78.7287 251.918 78.5955 252.323 78.5896 252.779C78.5896 253.158 78.6754 253.486 78.847 253.765C79.0246 254.043 79.2643 254.279 79.5661 254.475C79.868 254.664 80.2024 254.824 80.5693 254.954C80.9363 255.084 81.3062 255.194 81.6791 255.283L83.3836 255.709C84.0702 255.869 84.7301 256.085 85.3634 256.357C86.0026 256.629 86.5737 256.972 87.0768 257.387C87.5858 257.801 87.9883 258.301 88.2842 258.887C88.5801 259.473 88.7281 260.16 88.7281 260.947C88.7281 262.012 88.4558 262.95 87.9113 263.761C87.3668 264.566 86.5796 265.196 85.5498 265.652C84.5259 266.102 83.286 266.327 81.83 266.327C80.4155 266.327 79.1874 266.108 78.1457 265.67C77.1099 265.232 76.2991 264.593 75.7132 263.752C75.1331 262.912 74.8195 261.888 74.7721 260.68H78.0125C78.0599 261.314 78.2552 261.84 78.5985 262.261C78.9417 262.681 79.3886 262.995 79.939 263.202C80.4954 263.409 81.1168 263.512 81.8034 263.512C82.5195 263.512 83.1469 263.406 83.6855 263.193C84.23 262.974 84.6561 262.672 84.9639 262.287C85.2716 261.897 85.4285 261.441 85.4344 260.92C85.4285 260.447 85.2894 260.056 85.0171 259.748C84.7449 259.435 84.3631 259.174 83.8719 258.967C83.3866 258.754 82.8184 258.565 82.1673 258.399L80.0988 257.866C78.6014 257.481 77.4177 256.898 76.5477 256.117C75.6836 255.33 75.2515 254.285 75.2515 252.983C75.2515 251.912 75.5415 250.974 76.1215 250.169C76.7075 249.364 77.5035 248.74 78.5097 248.296C79.5158 247.846 80.6552 247.621 81.9276 247.621C83.2179 247.621 84.3483 247.846 85.319 248.296C86.2955 248.74 87.062 249.358 87.6183 250.151C88.1747 250.938 88.4617 251.844 88.4795 252.868H85.3101ZM97.5593 266.318C96.1921 266.318 95.0114 266.034 94.017 265.466C93.0286 264.891 92.2681 264.081 91.7354 263.033C91.2028 261.98 90.9364 260.74 90.9364 259.313C90.9364 257.911 91.2028 256.679 91.7354 255.62C92.274 254.555 93.0257 253.726 93.9904 253.134C94.9551 252.536 96.0885 252.238 97.3906 252.238C98.2311 252.238 99.0241 252.374 99.7699 252.646C100.522 252.912 101.184 253.327 101.759 253.889C102.339 254.451 102.794 255.167 103.126 256.037C103.457 256.901 103.623 257.931 103.623 259.127V260.112H92.4457V257.946H100.542C100.536 257.331 100.403 256.783 100.143 256.304C99.8823 255.818 99.5183 255.437 99.0508 255.158C98.5891 254.88 98.0505 254.741 97.435 254.741C96.7781 254.741 96.201 254.901 95.7038 255.221C95.2067 255.534 94.819 255.949 94.5408 256.463C94.2686 256.972 94.1295 257.532 94.1236 258.141V260.032C94.1236 260.825 94.2686 261.506 94.5586 262.074C94.8486 262.637 95.254 263.069 95.7749 263.37C96.2957 263.666 96.9053 263.814 97.6037 263.814C98.0713 263.814 98.4944 263.749 98.8732 263.619C99.252 263.483 99.5805 263.285 99.8587 263.024C100.137 262.764 100.347 262.441 100.489 262.056L103.49 262.394C103.3 263.187 102.939 263.879 102.407 264.471C101.88 265.057 101.205 265.513 100.382 265.838C99.5598 266.158 98.6187 266.318 97.5593 266.318ZM110.266 266.327C109.402 266.327 108.623 266.173 107.931 265.865C107.244 265.551 106.7 265.09 106.297 264.48C105.901 263.871 105.703 263.119 105.703 262.225C105.703 261.456 105.845 260.82 106.129 260.316C106.413 259.813 106.8 259.411 107.292 259.109C107.783 258.807 108.336 258.579 108.952 258.425C109.573 258.266 110.215 258.15 110.878 258.079C111.677 257.996 112.325 257.922 112.823 257.857C113.32 257.786 113.681 257.68 113.906 257.538C114.136 257.39 114.252 257.162 114.252 256.854V256.801C114.252 256.132 114.054 255.614 113.657 255.247C113.261 254.88 112.689 254.697 111.944 254.697C111.156 254.697 110.532 254.868 110.07 255.212C109.615 255.555 109.307 255.96 109.147 256.428L106.146 256.002C106.383 255.173 106.774 254.481 107.318 253.924C107.863 253.362 108.529 252.942 109.316 252.664C110.103 252.38 110.973 252.238 111.926 252.238C112.583 252.238 113.237 252.315 113.888 252.468C114.539 252.622 115.134 252.877 115.672 253.232C116.211 253.581 116.643 254.058 116.968 254.661C117.3 255.265 117.466 256.02 117.466 256.925V266.052H114.376V264.178H114.27C114.074 264.557 113.799 264.912 113.444 265.244C113.095 265.569 112.654 265.833 112.121 266.034C111.594 266.229 110.976 266.327 110.266 266.327ZM111.1 263.965C111.745 263.965 112.305 263.838 112.778 263.583C113.252 263.323 113.616 262.98 113.87 262.554C114.131 262.128 114.261 261.663 114.261 261.16V259.553C114.16 259.636 113.988 259.713 113.746 259.784C113.509 259.855 113.243 259.917 112.947 259.97C112.651 260.023 112.358 260.071 112.068 260.112C111.778 260.154 111.526 260.189 111.313 260.219C110.834 260.284 110.405 260.39 110.026 260.538C109.647 260.686 109.348 260.893 109.129 261.16C108.91 261.42 108.801 261.758 108.801 262.172C108.801 262.764 109.017 263.211 109.449 263.512C109.881 263.814 110.431 263.965 111.1 263.965ZM120.697 266.052V252.415H123.813V254.688H123.955C124.204 253.901 124.63 253.294 125.234 252.868C125.843 252.436 126.539 252.22 127.32 252.22C127.498 252.22 127.696 252.229 127.915 252.246C128.14 252.258 128.326 252.279 128.474 252.309V255.265C128.338 255.218 128.122 255.176 127.826 255.141C127.536 255.099 127.255 255.079 126.983 255.079C126.397 255.079 125.87 255.206 125.402 255.46C124.941 255.709 124.577 256.055 124.31 256.499C124.044 256.943 123.911 257.455 123.911 258.035V266.052H120.697ZM135.996 266.318C134.635 266.318 133.466 266.019 132.489 265.421C131.519 264.823 130.77 263.998 130.243 262.944C129.722 261.885 129.462 260.666 129.462 259.287C129.462 257.902 129.728 256.679 130.261 255.62C130.794 254.555 131.545 253.726 132.516 253.134C133.492 252.536 134.646 252.238 135.978 252.238C137.085 252.238 138.064 252.442 138.917 252.85C139.775 253.253 140.459 253.824 140.968 254.564C141.477 255.297 141.767 256.156 141.838 257.138H138.766C138.642 256.481 138.346 255.934 137.878 255.496C137.416 255.052 136.798 254.83 136.023 254.83C135.366 254.83 134.789 255.007 134.291 255.363C133.794 255.712 133.407 256.215 133.128 256.872C132.856 257.529 132.72 258.316 132.72 259.233C132.72 260.163 132.856 260.962 133.128 261.63C133.401 262.293 133.782 262.805 134.274 263.166C134.771 263.521 135.354 263.699 136.023 263.699C136.496 263.699 136.919 263.61 137.292 263.433C137.671 263.249 137.988 262.986 138.242 262.642C138.497 262.299 138.671 261.882 138.766 261.391H141.838C141.761 262.355 141.477 263.211 140.985 263.956C140.494 264.696 139.825 265.276 138.979 265.696C138.133 266.111 137.138 266.318 135.996 266.318ZM147.69 258.061V266.052H144.476V247.87H147.619V254.732H147.779C148.099 253.963 148.593 253.356 149.262 252.912C149.936 252.462 150.795 252.238 151.836 252.238C152.783 252.238 153.609 252.436 154.313 252.832C155.017 253.229 155.562 253.809 155.947 254.572C156.337 255.336 156.533 256.268 156.533 257.369V266.052H153.319V257.866C153.319 256.949 153.082 256.236 152.609 255.727C152.141 255.212 151.484 254.954 150.638 254.954C150.07 254.954 149.561 255.079 149.111 255.327C148.667 255.57 148.318 255.922 148.063 256.384C147.815 256.845 147.69 257.404 147.69 258.061Z" fill="#0B59DE"/>
<path opacity="0.2" d="M52.9274 230.437L0 140.049L52.9274 49.6619H158.782L211.71 140.049L158.782 230.437H52.9274Z" fill="black"/>
<path d="M173.33 221.097H69.1686L17.1255 131.919L69.1686 42.7405H173.33L225.373 131.919L173.33 221.097Z" fill="#0B59DE" stroke="white" stroke-width="8"/>
<path fill-rule="evenodd" clip-rule="evenodd" d="M128.202 100.154C122.194 100.154 116.416 102.811 112.602 107.431C105.207 116.094 106.362 129.03 114.914 136.423C118.727 139.541 123.349 141.274 128.318 141.274C134.327 141.274 140.105 138.617 144.034 133.997C147.5 129.839 149.234 124.526 148.887 118.981C148.425 113.553 145.882 108.586 141.722 105.005C138.025 101.887 133.287 100.039 128.434 100.039L128.202 100.154ZM128.202 149.013C121.5 149.013 114.914 146.587 109.945 142.313C98.0424 132.149 96.5402 114.246 106.709 102.349C112.14 95.9959 119.998 92.2998 128.318 92.2998C135.02 92.2998 141.607 94.7254 146.691 98.999C152.469 103.85 155.936 110.781 156.629 118.288C157.207 125.796 154.78 133.188 149.927 138.848C144.611 145.201 136.638 148.897 128.318 148.897L128.202 149.013Z" fill="white"/>
<path fill-rule="evenodd" clip-rule="evenodd" d="M107.053 151.669L101.16 146.587L109.365 136.884L115.258 141.851L107.053 151.669Z" fill="white"/>
<path fill-rule="evenodd" clip-rule="evenodd" d="M94.5748 170.381C93.1881 171.998 90.7615 172.229 89.0282 170.843L85.0993 167.493C83.4815 166.107 83.2504 163.682 84.6371 162.064L97.4637 146.933C98.8504 145.316 101.277 145.085 102.895 146.471L106.824 149.821C108.442 151.207 108.673 153.633 107.286 155.25L94.4593 170.265L94.5748 170.381Z" fill="white"/>
<path fill-rule="evenodd" clip-rule="evenodd" d="M133.634 106.738C134.327 109.51 129.82 106.738 124.852 108.009C119.883 109.164 116.416 113.784 115.723 111.012C115.029 108.24 120.46 104.544 123.465 103.735C126.816 102.811 132.94 103.851 133.634 106.738Z" fill="white"/>
<path fill-rule="evenodd" clip-rule="evenodd" d="M139.413 108.932C139.066 110.087 137.564 109.625 136.408 109.279C135.137 108.932 134.559 108.701 135.021 107.431C135.484 106.16 135.715 105.698 136.87 106.044C138.026 106.391 139.759 107.662 139.413 108.932Z" fill="white"/>
<g opacity="0.3">
<path d="M264.69 215.927L232.09 160.064L264.69 104.202H329.892L362.492 160.064L329.892 215.927H264.69Z" fill="#CEDEF8"/>
</g>
<path d="M254.424 151.925V141.015H256.07V145.756H261.509V141.015H263.16V151.925H261.509V147.168H256.07V151.925H254.424ZM268.876 152.09C268.109 152.09 267.439 151.914 266.868 151.562C266.296 151.211 265.852 150.719 265.536 150.087C265.22 149.455 265.062 148.716 265.062 147.871C265.062 147.022 265.22 146.28 265.536 145.644C265.852 145.009 266.296 144.515 266.868 144.164C267.439 143.812 268.109 143.636 268.876 143.636C269.643 143.636 270.312 143.812 270.884 144.164C271.456 144.515 271.9 145.009 272.216 145.644C272.532 146.28 272.69 147.022 272.69 147.871C272.69 148.716 272.532 149.455 272.216 150.087C271.9 150.719 271.456 151.211 270.884 151.562C270.312 151.914 269.643 152.09 268.876 152.09ZM268.881 150.753C269.378 150.753 269.79 150.621 270.117 150.359C270.444 150.096 270.685 149.746 270.841 149.309C271.001 148.872 271.081 148.391 271.081 147.866C271.081 147.344 271.001 146.864 270.841 146.427C270.685 145.987 270.444 145.634 270.117 145.367C269.79 145.101 269.378 144.968 268.881 144.968C268.38 144.968 267.965 145.101 267.635 145.367C267.308 145.634 267.065 145.987 266.905 146.427C266.749 146.864 266.671 147.344 266.671 147.866C266.671 148.391 266.749 148.872 266.905 149.309C267.065 149.746 267.308 150.096 267.635 150.359C267.965 150.621 268.38 150.753 268.881 150.753ZM278.287 143.743V145.021H273.818V143.743H278.287ZM275.016 141.783H276.609V149.522C276.609 149.831 276.655 150.064 276.747 150.22C276.84 150.373 276.959 150.477 277.104 150.534C277.253 150.588 277.415 150.614 277.589 150.614C277.717 150.614 277.829 150.605 277.925 150.588C278.02 150.57 278.095 150.556 278.148 150.545L278.436 151.861C278.344 151.896 278.212 151.932 278.042 151.967C277.871 152.006 277.658 152.028 277.402 152.031C276.983 152.038 276.593 151.964 276.231 151.807C275.868 151.651 275.575 151.41 275.352 151.083C275.128 150.756 275.016 150.346 275.016 149.852V141.783ZM283.487 152.09C282.681 152.09 281.987 151.917 281.404 151.573C280.825 151.225 280.378 150.737 280.062 150.108C279.749 149.476 279.593 148.736 279.593 147.887C279.593 147.049 279.749 146.31 280.062 145.671C280.378 145.032 280.818 144.533 281.383 144.174C281.951 143.816 282.615 143.636 283.375 143.636C283.837 143.636 284.284 143.713 284.717 143.865C285.151 144.018 285.539 144.258 285.884 144.584C286.228 144.911 286.5 145.335 286.699 145.857C286.898 146.376 286.997 147.006 286.997 147.748V148.313H280.493V147.12H285.436C285.436 146.701 285.351 146.33 285.181 146.007C285.01 145.68 284.771 145.422 284.462 145.234C284.156 145.046 283.798 144.952 283.386 144.952C282.938 144.952 282.548 145.062 282.214 145.282C281.884 145.499 281.628 145.783 281.447 146.134C281.269 146.482 281.18 146.861 281.18 147.269V148.201C281.18 148.748 281.276 149.213 281.468 149.597C281.663 149.98 281.935 150.273 282.283 150.476C282.631 150.675 283.038 150.774 283.503 150.774C283.805 150.774 284.08 150.731 284.329 150.646C284.577 150.557 284.792 150.426 284.973 150.252C285.154 150.078 285.293 149.863 285.389 149.607L286.896 149.879C286.775 150.323 286.559 150.712 286.246 151.046C285.937 151.376 285.548 151.633 285.08 151.818C284.614 151.999 284.084 152.09 283.487 152.09ZM290.357 141.015V151.925H288.764V141.015H290.357ZM298.85 152.106C298.332 152.106 297.863 152.01 297.444 151.818C297.025 151.623 296.693 151.34 296.448 150.971C296.207 150.602 296.086 150.149 296.086 149.613C296.086 149.151 296.175 148.771 296.352 148.473C296.53 148.175 296.77 147.938 297.071 147.764C297.373 147.59 297.711 147.459 298.083 147.37C298.456 147.281 298.836 147.214 299.223 147.168C299.713 147.111 300.111 147.065 300.417 147.029C300.722 146.99 300.944 146.928 301.082 146.843C301.221 146.758 301.29 146.619 301.29 146.427V146.39C301.29 145.925 301.159 145.564 300.896 145.309C300.637 145.053 300.25 144.925 299.735 144.925C299.198 144.925 298.776 145.044 298.467 145.282C298.162 145.517 297.95 145.778 297.833 146.065L296.336 145.724C296.514 145.227 296.773 144.826 297.114 144.52C297.458 144.211 297.854 143.988 298.302 143.849C298.749 143.707 299.22 143.636 299.713 143.636C300.04 143.636 300.386 143.675 300.752 143.753C301.121 143.828 301.466 143.966 301.785 144.169C302.109 144.371 302.373 144.661 302.579 145.037C302.785 145.41 302.888 145.895 302.888 146.491V151.925H301.333V150.806H301.269C301.166 151.012 301.011 151.214 300.805 151.413C300.599 151.612 300.335 151.777 300.012 151.909C299.689 152.04 299.301 152.106 298.85 152.106ZM299.197 150.827C299.637 150.827 300.013 150.74 300.326 150.566C300.642 150.392 300.882 150.165 301.045 149.884C301.212 149.6 301.295 149.297 301.295 148.974V147.919C301.239 147.976 301.129 148.029 300.965 148.079C300.805 148.125 300.622 148.166 300.417 148.201C300.211 148.233 300.01 148.263 299.815 148.292C299.619 148.317 299.456 148.338 299.325 148.356C299.016 148.395 298.733 148.46 298.478 148.553C298.225 148.645 298.023 148.778 297.87 148.952C297.721 149.123 297.647 149.35 297.647 149.634C297.647 150.028 297.792 150.327 298.083 150.529C298.375 150.728 298.746 150.827 299.197 150.827ZM311.716 143.743L308.749 151.925H307.044L304.072 143.743H305.782L307.854 150.039H307.939L310.006 143.743H311.716ZM315.359 152.106C314.841 152.106 314.372 152.01 313.953 151.818C313.534 151.623 313.202 151.34 312.957 150.971C312.715 150.602 312.595 150.149 312.595 149.613C312.595 149.151 312.683 148.771 312.861 148.473C313.039 148.175 313.278 147.938 313.58 147.764C313.882 147.59 314.219 147.459 314.592 147.37C314.965 147.281 315.345 147.214 315.732 147.168C316.222 147.111 316.62 147.065 316.925 147.029C317.231 146.99 317.453 146.928 317.591 146.843C317.73 146.758 317.799 146.619 317.799 146.427V146.39C317.799 145.925 317.667 145.564 317.405 145.309C317.145 145.053 316.758 144.925 316.243 144.925C315.707 144.925 315.285 145.044 314.976 145.282C314.67 145.517 314.459 145.778 314.342 146.065L312.845 145.724C313.023 145.227 313.282 144.826 313.623 144.52C313.967 144.211 314.363 143.988 314.811 143.849C315.258 143.707 315.729 143.636 316.222 143.636C316.549 143.636 316.895 143.675 317.261 143.753C317.63 143.828 317.975 143.966 318.294 144.169C318.617 144.371 318.882 144.661 319.088 145.037C319.294 145.41 319.397 145.895 319.397 146.491V151.925H317.841V150.806H317.778C317.675 151.012 317.52 151.214 317.314 151.413C317.108 151.612 316.844 151.777 316.52 151.909C316.197 152.04 315.81 152.106 315.359 152.106ZM315.705 150.827C316.146 150.827 316.522 150.74 316.835 150.566C317.151 150.392 317.391 150.165 317.554 149.884C317.721 149.6 317.804 149.297 317.804 148.974V147.919C317.747 147.976 317.637 148.029 317.474 148.079C317.314 148.125 317.131 148.166 316.925 148.201C316.719 148.233 316.519 148.263 316.323 148.292C316.128 148.317 315.965 148.338 315.833 148.356C315.524 148.395 315.242 148.46 314.986 148.553C314.734 148.645 314.532 148.778 314.379 148.952C314.23 149.123 314.155 149.35 314.155 149.634C314.155 150.028 314.301 150.327 314.592 150.529C314.883 150.728 315.254 150.827 315.705 150.827ZM321.518 151.925V143.743H323.111V151.925H321.518ZM322.323 142.48C322.046 142.48 321.808 142.388 321.609 142.203C321.413 142.015 321.316 141.791 321.316 141.532C321.316 141.269 321.413 141.046 321.609 140.861C321.808 140.673 322.046 140.579 322.323 140.579C322.6 140.579 322.836 140.673 323.031 140.861C323.23 141.046 323.329 141.269 323.329 141.532C323.329 141.791 323.23 142.015 323.031 142.203C322.836 142.388 322.6 142.48 322.323 142.48ZM326.846 141.015V151.925H325.254V141.015H326.846ZM336.165 151.232V144.03H337.598V151.232H336.165ZM333.284 148.345V146.912H340.485V148.345H333.284ZM254.271 169.925V159.015H258.266C259.04 159.015 259.681 159.143 260.189 159.399C260.696 159.651 261.076 159.994 261.328 160.427C261.581 160.857 261.707 161.341 261.707 161.881C261.707 162.336 261.623 162.719 261.456 163.032C261.289 163.341 261.066 163.589 260.785 163.778C260.508 163.962 260.203 164.097 259.869 164.182V164.289C260.231 164.307 260.585 164.424 260.929 164.64C261.277 164.854 261.565 165.157 261.792 165.551C262.019 165.946 262.133 166.425 262.133 166.99C262.133 167.547 262.001 168.048 261.739 168.492C261.479 168.932 261.078 169.282 260.535 169.541C259.991 169.797 259.297 169.925 258.452 169.925H254.271ZM255.917 168.513H258.292C259.081 168.513 259.645 168.36 259.986 168.055C260.327 167.749 260.498 167.368 260.498 166.91C260.498 166.565 260.411 166.249 260.237 165.961C260.063 165.674 259.814 165.445 259.491 165.274C259.171 165.104 258.791 165.019 258.351 165.019H255.917V168.513ZM255.917 163.735H258.122C258.491 163.735 258.823 163.664 259.118 163.522C259.416 163.38 259.652 163.181 259.826 162.925C260.004 162.666 260.093 162.361 260.093 162.009C260.093 161.558 259.935 161.18 259.619 160.874C259.303 160.569 258.818 160.416 258.164 160.416H255.917V163.735ZM269.14 166.531V161.743H270.738V169.925H269.172V168.508H269.087C268.899 168.944 268.597 169.308 268.181 169.6C267.769 169.887 267.256 170.031 266.642 170.031C266.116 170.031 265.651 169.916 265.246 169.685C264.845 169.45 264.529 169.104 264.298 168.646C264.071 168.188 263.957 167.622 263.957 166.947V161.743H265.55V166.755C265.55 167.313 265.704 167.757 266.013 168.087C266.322 168.417 266.724 168.582 267.217 168.582C267.515 168.582 267.812 168.508 268.107 168.359C268.405 168.209 268.652 167.984 268.847 167.682C269.046 167.38 269.144 166.997 269.14 166.531ZM273.885 172.993C273.647 172.993 273.43 172.973 273.235 172.934C273.04 172.899 272.894 172.86 272.798 172.817L273.182 171.512C273.473 171.59 273.732 171.624 273.959 171.613C274.187 171.602 274.387 171.517 274.561 171.357C274.739 171.198 274.895 170.937 275.03 170.574L275.227 170.031L272.234 161.743H273.938L276.01 168.092H276.095L278.168 161.743H279.877L276.506 171.017C276.349 171.443 276.15 171.803 275.909 172.098C275.668 172.396 275.38 172.62 275.046 172.769C274.712 172.918 274.325 172.993 273.885 172.993ZM284.622 170.09C283.816 170.09 283.122 169.917 282.539 169.573C281.961 169.225 281.513 168.737 281.197 168.108C280.885 167.476 280.728 166.736 280.728 165.887C280.728 165.049 280.885 164.31 281.197 163.671C281.513 163.032 281.953 162.533 282.518 162.174C283.086 161.816 283.75 161.636 284.51 161.636C284.972 161.636 285.419 161.713 285.853 161.865C286.286 162.018 286.675 162.258 287.019 162.584C287.364 162.911 287.635 163.335 287.834 163.857C288.033 164.376 288.132 165.006 288.132 165.748V166.313H281.629V165.12H286.572C286.572 164.701 286.487 164.33 286.316 164.007C286.146 163.68 285.906 163.422 285.597 163.234C285.292 163.046 284.933 162.952 284.521 162.952C284.074 162.952 283.683 163.062 283.349 163.282C283.019 163.499 282.763 163.783 282.582 164.134C282.404 164.482 282.316 164.861 282.316 165.269V166.201C282.316 166.748 282.412 167.213 282.603 167.597C282.799 167.98 283.07 168.273 283.418 168.476C283.766 168.675 284.173 168.774 284.638 168.774C284.94 168.774 285.215 168.731 285.464 168.646C285.712 168.557 285.927 168.426 286.108 168.252C286.289 168.078 286.428 167.863 286.524 167.607L288.031 167.879C287.911 168.323 287.694 168.712 287.381 169.046C287.072 169.376 286.684 169.633 286.215 169.818C285.75 169.999 285.219 170.09 284.622 170.09ZM289.9 169.925V161.743H291.439V163.042H291.524C291.673 162.602 291.936 162.256 292.313 162.004C292.693 161.748 293.122 161.62 293.602 161.62C293.701 161.62 293.818 161.624 293.953 161.631C294.092 161.638 294.2 161.647 294.278 161.658V163.181C294.214 163.163 294.101 163.144 293.937 163.122C293.774 163.098 293.611 163.085 293.447 163.085C293.071 163.085 292.735 163.165 292.44 163.325C292.149 163.481 291.918 163.699 291.748 163.98C291.578 164.257 291.492 164.573 291.492 164.928V169.925H289.9ZM305.757 163.74L304.314 163.996C304.253 163.811 304.157 163.635 304.026 163.469C303.898 163.302 303.724 163.165 303.504 163.058C303.284 162.952 303.009 162.899 302.678 162.899C302.227 162.899 301.851 163 301.549 163.202C301.247 163.401 301.096 163.659 301.096 163.975C301.096 164.248 301.198 164.468 301.4 164.635C301.602 164.802 301.929 164.939 302.38 165.045L303.68 165.344C304.433 165.518 304.994 165.786 305.363 166.148C305.732 166.51 305.917 166.981 305.917 167.56C305.917 168.05 305.775 168.486 305.491 168.87C305.21 169.25 304.818 169.548 304.314 169.765C303.813 169.981 303.232 170.09 302.572 170.09C301.656 170.09 300.908 169.894 300.329 169.504C299.75 169.11 299.395 168.55 299.264 167.826L300.803 167.591C300.899 167.993 301.096 168.296 301.395 168.502C301.693 168.705 302.082 168.806 302.561 168.806C303.083 168.806 303.5 168.698 303.813 168.481C304.125 168.261 304.282 167.993 304.282 167.677C304.282 167.421 304.186 167.206 303.994 167.032C303.806 166.858 303.516 166.727 303.126 166.638L301.741 166.334C300.977 166.16 300.413 165.883 300.047 165.503C299.685 165.123 299.504 164.642 299.504 164.06C299.504 163.577 299.639 163.154 299.908 162.792C300.178 162.43 300.551 162.148 301.027 161.945C301.503 161.739 302.048 161.636 302.662 161.636C303.547 161.636 304.243 161.828 304.75 162.211C305.258 162.591 305.594 163.101 305.757 163.74ZM311.194 170.09C310.388 170.09 309.694 169.917 309.112 169.573C308.533 169.225 308.085 168.737 307.769 168.108C307.457 167.476 307.301 166.736 307.301 165.887C307.301 165.049 307.457 164.31 307.769 163.671C308.085 163.032 308.526 162.533 309.09 162.174C309.659 161.816 310.323 161.636 311.083 161.636C311.544 161.636 311.992 161.713 312.425 161.865C312.858 162.018 313.247 162.258 313.591 162.584C313.936 162.911 314.208 163.335 314.406 163.857C314.605 164.376 314.705 165.006 314.705 165.748V166.313H308.201V165.12H313.144C313.144 164.701 313.059 164.33 312.888 164.007C312.718 163.68 312.478 163.422 312.169 163.234C311.864 163.046 311.505 162.952 311.093 162.952C310.646 162.952 310.255 163.062 309.921 163.282C309.591 163.499 309.335 163.783 309.154 164.134C308.977 164.482 308.888 164.861 308.888 165.269V166.201C308.888 166.748 308.984 167.213 309.176 167.597C309.371 167.98 309.643 168.273 309.991 168.476C310.339 168.675 310.745 168.774 311.21 168.774C311.512 168.774 311.787 168.731 312.036 168.646C312.285 168.557 312.499 168.426 312.681 168.252C312.862 168.078 313 167.863 313.096 167.607L314.604 167.879C314.483 168.323 314.266 168.712 313.954 169.046C313.645 169.376 313.256 169.633 312.787 169.818C312.322 169.999 311.791 170.09 311.194 170.09ZM318.065 159.015V169.925H316.472V159.015H318.065ZM323.733 170.09C322.927 170.09 322.233 169.917 321.651 169.573C321.072 169.225 320.624 168.737 320.308 168.108C319.996 167.476 319.84 166.736 319.84 165.887C319.84 165.049 319.996 164.31 320.308 163.671C320.624 163.032 321.065 162.533 321.629 162.174C322.198 161.816 322.862 161.636 323.622 161.636C324.083 161.636 324.531 161.713 324.964 161.865C325.397 162.018 325.786 162.258 326.131 162.584C326.475 162.911 326.747 163.335 326.946 163.857C327.144 164.376 327.244 165.006 327.244 165.748V166.313H320.74V165.12H325.683C325.683 164.701 325.598 164.33 325.427 164.007C325.257 163.68 325.017 163.422 324.708 163.234C324.403 163.046 324.044 162.952 323.632 162.952C323.185 162.952 322.794 163.062 322.46 163.282C322.13 163.499 321.874 163.783 321.693 164.134C321.516 164.482 321.427 164.861 321.427 165.269V166.201C321.427 166.748 321.523 167.213 321.715 167.597C321.91 167.98 322.182 168.273 322.53 168.476C322.878 168.675 323.284 168.774 323.749 168.774C324.051 168.774 324.327 168.731 324.575 168.646C324.824 168.557 325.039 168.426 325.22 168.252C325.401 168.078 325.539 167.863 325.635 167.607L327.143 167.879C327.022 168.323 326.805 168.712 326.493 169.046C326.184 169.376 325.795 169.633 325.326 169.818C324.861 169.999 324.33 170.09 323.733 170.09ZM332.457 170.09C331.665 170.09 330.984 169.91 330.412 169.552C329.844 169.189 329.407 168.691 329.101 168.055C328.796 167.419 328.643 166.691 328.643 165.871C328.643 165.04 328.8 164.307 329.112 163.671C329.425 163.032 329.865 162.533 330.433 162.174C331.001 161.816 331.671 161.636 332.441 161.636C333.063 161.636 333.617 161.752 334.103 161.982C334.59 162.21 334.982 162.529 335.28 162.941C335.582 163.353 335.762 163.834 335.818 164.385H334.268C334.183 164.001 333.988 163.671 333.682 163.394C333.381 163.117 332.976 162.979 332.468 162.979C332.024 162.979 331.635 163.096 331.301 163.33C330.971 163.561 330.714 163.891 330.529 164.321C330.344 164.747 330.252 165.251 330.252 165.834C330.252 166.43 330.343 166.945 330.524 167.378C330.705 167.812 330.961 168.147 331.291 168.385C331.625 168.623 332.017 168.742 332.468 168.742C332.77 168.742 333.043 168.687 333.288 168.577C333.537 168.463 333.745 168.302 333.911 168.092C334.082 167.883 334.201 167.631 334.268 167.336H335.818C335.762 167.865 335.589 168.337 335.302 168.753C335.014 169.168 334.629 169.495 334.146 169.733C333.666 169.971 333.104 170.09 332.457 170.09ZM341.341 161.743V163.021H336.872V161.743H341.341ZM338.07 159.783H339.663V167.522C339.663 167.831 339.709 168.064 339.802 168.22C339.894 168.373 340.013 168.477 340.158 168.534C340.308 168.588 340.469 168.614 340.643 168.614C340.771 168.614 340.883 168.605 340.979 168.588C341.075 168.57 341.149 168.556 341.202 168.545L341.49 169.861C341.398 169.896 341.266 169.932 341.096 169.967C340.925 170.006 340.712 170.028 340.457 170.031C340.038 170.038 339.647 169.964 339.285 169.807C338.923 169.651 338.63 169.41 338.406 169.083C338.182 168.756 338.07 168.346 338.07 167.852V159.783ZM279.262 188.09C278.494 188.09 277.825 187.914 277.253 187.562C276.682 187.211 276.238 186.719 275.922 186.087C275.606 185.455 275.448 184.716 275.448 183.871C275.448 183.022 275.606 182.28 275.922 181.644C276.238 181.009 276.682 180.515 277.253 180.164C277.825 179.812 278.494 179.636 279.262 179.636C280.029 179.636 280.698 179.812 281.27 180.164C281.841 180.515 282.285 181.009 282.601 181.644C282.917 182.28 283.075 183.022 283.075 183.871C283.075 184.716 282.917 185.455 282.601 186.087C282.285 186.719 281.841 187.211 281.27 187.562C280.698 187.914 280.029 188.09 279.262 188.09ZM279.267 186.753C279.764 186.753 280.176 186.621 280.503 186.359C280.829 186.096 281.071 185.746 281.227 185.309C281.387 184.872 281.467 184.391 281.467 183.866C281.467 183.344 281.387 182.864 281.227 182.427C281.071 181.987 280.829 181.634 280.503 181.367C280.176 181.101 279.764 180.968 279.267 180.968C278.766 180.968 278.351 181.101 278.02 181.367C277.694 181.634 277.45 181.987 277.291 182.427C277.134 182.864 277.056 183.344 277.056 183.866C277.056 184.391 277.134 184.872 277.291 185.309C277.45 185.746 277.694 186.096 278.02 186.359C278.351 186.621 278.766 186.753 279.267 186.753ZM284.853 190.993V179.743H286.409V181.069H286.542C286.634 180.899 286.767 180.702 286.941 180.478C287.115 180.254 287.357 180.059 287.666 179.892C287.975 179.721 288.383 179.636 288.891 179.636C289.551 179.636 290.141 179.803 290.659 180.137C291.178 180.471 291.584 180.952 291.879 181.58C292.177 182.209 292.327 182.965 292.327 183.85C292.327 184.734 292.179 185.492 291.884 186.124C291.59 186.753 291.185 187.237 290.67 187.578C290.155 187.916 289.567 188.084 288.907 188.084C288.41 188.084 288.003 188.001 287.687 187.834C287.375 187.667 287.129 187.472 286.952 187.248C286.774 187.024 286.638 186.825 286.542 186.651H286.446V190.993H284.853ZM286.414 183.834C286.414 184.409 286.497 184.913 286.664 185.346C286.831 185.78 287.073 186.119 287.389 186.364C287.705 186.605 288.092 186.726 288.55 186.726C289.026 186.726 289.424 186.6 289.743 186.348C290.063 186.092 290.304 185.746 290.468 185.309C290.634 184.872 290.718 184.381 290.718 183.834C290.718 183.294 290.636 182.809 290.473 182.379C290.313 181.95 290.072 181.611 289.748 181.362C289.429 181.113 289.029 180.989 288.55 180.989C288.088 180.989 287.698 181.108 287.378 181.346C287.062 181.584 286.822 181.916 286.659 182.342C286.496 182.768 286.414 183.265 286.414 183.834ZM297.93 179.743V181.021H293.461V179.743H297.93ZM294.66 177.783H296.252V185.522C296.252 185.831 296.299 186.064 296.391 186.22C296.483 186.373 296.602 186.477 296.748 186.534C296.897 186.588 297.058 186.614 297.232 186.614C297.36 186.614 297.472 186.605 297.568 186.588C297.664 186.57 297.739 186.556 297.792 186.545L298.079 187.861C297.987 187.896 297.856 187.932 297.685 187.967C297.515 188.006 297.302 188.028 297.046 188.031C296.627 188.038 296.236 187.964 295.874 187.807C295.512 187.651 295.219 187.41 294.995 187.083C294.772 186.756 294.66 186.346 294.66 185.852V177.783ZM299.692 187.925V179.743H301.285V187.925H299.692ZM300.496 178.48C300.219 178.48 299.982 178.388 299.783 178.203C299.587 178.015 299.49 177.791 299.49 177.532C299.49 177.269 299.587 177.046 299.783 176.861C299.982 176.673 300.219 176.579 300.496 176.579C300.773 176.579 301.01 176.673 301.205 176.861C301.404 177.046 301.503 177.269 301.503 177.532C301.503 177.791 301.404 178.015 301.205 178.203C301.01 178.388 300.773 178.48 300.496 178.48ZM306.874 188.09C306.107 188.09 305.437 187.914 304.866 187.562C304.294 187.211 303.85 186.719 303.534 186.087C303.218 185.455 303.06 184.716 303.06 183.871C303.06 183.022 303.218 182.28 303.534 181.644C303.85 181.009 304.294 180.515 304.866 180.164C305.437 179.812 306.107 179.636 306.874 179.636C307.641 179.636 308.31 179.812 308.882 180.164C309.454 180.515 309.898 181.009 310.214 181.644C310.53 182.28 310.688 183.022 310.688 183.871C310.688 184.716 310.53 185.455 310.214 186.087C309.898 186.719 309.454 187.211 308.882 187.562C308.31 187.914 307.641 188.09 306.874 188.09ZM306.879 186.753C307.376 186.753 307.788 186.621 308.115 186.359C308.442 186.096 308.683 185.746 308.839 185.309C308.999 184.872 309.079 184.391 309.079 183.866C309.079 183.344 308.999 182.864 308.839 182.427C308.683 181.987 308.442 181.634 308.115 181.367C307.788 181.101 307.376 180.968 306.879 180.968C306.378 180.968 305.963 181.101 305.633 181.367C305.306 181.634 305.063 181.987 304.903 182.427C304.747 182.864 304.669 183.344 304.669 183.866C304.669 184.391 304.747 184.872 304.903 185.309C305.063 185.746 305.306 186.096 305.633 186.359C305.963 186.621 306.378 186.753 306.879 186.753ZM314.058 183.067V187.925H312.466V179.743H313.994V181.074H314.095C314.284 180.641 314.578 180.293 314.98 180.03C315.385 179.768 315.894 179.636 316.508 179.636C317.066 179.636 317.554 179.753 317.973 179.988C318.392 180.219 318.717 180.563 318.948 181.021C319.179 181.479 319.294 182.046 319.294 182.72V187.925H317.702V182.912C317.702 182.319 317.547 181.856 317.238 181.522C316.929 181.185 316.505 181.016 315.965 181.016C315.596 181.016 315.267 181.096 314.98 181.256C314.696 181.415 314.47 181.65 314.303 181.959C314.14 182.264 314.058 182.633 314.058 183.067Z" fill="#0C2340"/>
<g opacity="0.3">
<path d="M629.69 160.383L597.09 104.521L629.69 48.6587H694.892L727.492 104.521L694.892 160.383H629.69Z" fill="#CEDEF8"/>
</g>
<path d="M622.107 109.267V98.358H626.102C626.876 98.358 627.517 98.4858 628.025 98.7415C628.533 98.9937 628.913 99.3363 629.165 99.7696C629.417 100.199 629.543 100.684 629.543 101.224C629.543 101.678 629.46 102.062 629.293 102.374C629.126 102.683 628.902 102.932 628.622 103.12C628.345 103.305 628.039 103.44 627.706 103.525V103.631C628.068 103.649 628.421 103.766 628.766 103.983C629.114 104.196 629.401 104.5 629.628 104.894C629.856 105.288 629.969 105.767 629.969 106.332C629.969 106.89 629.838 107.39 629.575 107.834C629.316 108.275 628.915 108.624 628.371 108.884C627.828 109.139 627.134 109.267 626.289 109.267H622.107ZM623.753 107.856H626.129C626.917 107.856 627.482 107.703 627.823 107.397C628.164 107.092 628.334 106.71 628.334 106.252C628.334 105.908 628.247 105.592 628.073 105.304C627.899 105.016 627.65 104.787 627.327 104.617C627.008 104.446 626.628 104.361 626.187 104.361H623.753V107.856ZM623.753 103.077H625.958C626.328 103.077 626.66 103.006 626.954 102.864C627.253 102.722 627.489 102.523 627.663 102.268C627.84 102.009 627.929 101.703 627.929 101.352C627.929 100.901 627.771 100.522 627.455 100.217C627.139 99.9116 626.654 99.7589 626.001 99.7589H623.753V103.077ZM636.977 105.874V101.085H638.575V109.267H637.009V107.85H636.923C636.735 108.287 636.433 108.651 636.018 108.942C635.606 109.23 635.093 109.374 634.478 109.374C633.953 109.374 633.488 109.258 633.083 109.027C632.682 108.793 632.366 108.447 632.135 107.989C631.907 107.531 631.794 106.964 631.794 106.289V101.085H633.386V106.098C633.386 106.655 633.541 107.099 633.85 107.429C634.159 107.76 634.56 107.925 635.054 107.925C635.352 107.925 635.649 107.85 635.943 107.701C636.242 107.552 636.488 107.326 636.684 107.025C636.883 106.723 636.98 106.339 636.977 105.874ZM641.721 112.335C641.483 112.335 641.267 112.316 641.072 112.277C640.876 112.241 640.731 112.202 640.635 112.159L641.018 110.854C641.309 110.933 641.569 110.966 641.796 110.956C642.023 110.945 642.224 110.86 642.398 110.7C642.575 110.54 642.732 110.279 642.867 109.917L643.064 109.374L640.07 101.085H641.775L643.847 107.435H643.932L646.004 101.085H647.714L644.342 110.359C644.186 110.785 643.987 111.146 643.746 111.44C643.504 111.739 643.216 111.962 642.883 112.112C642.549 112.261 642.162 112.335 641.721 112.335ZM652.459 109.432C651.653 109.432 650.958 109.26 650.376 108.916C649.797 108.568 649.35 108.079 649.034 107.451C648.721 106.819 648.565 106.078 648.565 105.229C648.565 104.391 648.721 103.653 649.034 103.014C649.35 102.374 649.79 101.875 650.355 101.517C650.923 101.158 651.587 100.979 652.347 100.979C652.809 100.979 653.256 101.055 653.689 101.208C654.122 101.36 654.511 101.6 654.856 101.927C655.2 102.254 655.472 102.678 655.671 103.2C655.87 103.718 655.969 104.349 655.969 105.091V105.656H649.465V104.462H654.408C654.408 104.043 654.323 103.672 654.153 103.349C653.982 103.022 653.742 102.765 653.434 102.577C653.128 102.389 652.769 102.294 652.358 102.294C651.91 102.294 651.519 102.405 651.186 102.625C650.855 102.841 650.6 103.125 650.419 103.477C650.241 103.825 650.152 104.203 650.152 104.612V105.544C650.152 106.091 650.248 106.556 650.44 106.939C650.635 107.323 650.907 107.616 651.255 107.818C651.603 108.017 652.01 108.117 652.475 108.117C652.777 108.117 653.052 108.074 653.3 107.989C653.549 107.9 653.764 107.769 653.945 107.595C654.126 107.42 654.264 107.206 654.36 106.95L655.868 107.222C655.747 107.666 655.53 108.054 655.218 108.388C654.909 108.718 654.52 108.976 654.051 109.161C653.586 109.342 653.055 109.432 652.459 109.432ZM657.736 109.267V101.085H659.276V102.385H659.361C659.51 101.945 659.773 101.598 660.149 101.346C660.529 101.091 660.959 100.963 661.438 100.963C661.538 100.963 661.655 100.966 661.79 100.973C661.928 100.981 662.037 100.989 662.115 101V102.523C662.051 102.506 661.937 102.486 661.774 102.465C661.61 102.44 661.447 102.428 661.284 102.428C660.907 102.428 660.572 102.508 660.277 102.667C659.986 102.824 659.755 103.042 659.585 103.322C659.414 103.599 659.329 103.916 659.329 104.271V109.267H657.736ZM667.591 109.267V98.358H669.183V102.412H669.279C669.371 102.241 669.505 102.044 669.679 101.82C669.853 101.597 670.094 101.401 670.403 101.234C670.712 101.064 671.12 100.979 671.628 100.979C672.289 100.979 672.878 101.146 673.397 101.479C673.915 101.813 674.322 102.294 674.616 102.923C674.915 103.552 675.064 104.308 675.064 105.192C675.064 106.076 674.917 106.835 674.622 107.467C674.327 108.095 673.922 108.58 673.407 108.921C672.892 109.258 672.305 109.427 671.644 109.427C671.147 109.427 670.74 109.343 670.424 109.177C670.112 109.01 669.867 108.814 669.689 108.591C669.512 108.367 669.375 108.168 669.279 107.994H669.146V109.267H667.591ZM669.151 105.176C669.151 105.751 669.235 106.256 669.402 106.689C669.569 107.122 669.81 107.461 670.126 107.706C670.442 107.948 670.829 108.069 671.287 108.069C671.763 108.069 672.161 107.943 672.48 107.69C672.8 107.435 673.042 107.088 673.205 106.652C673.372 106.215 673.455 105.723 673.455 105.176C673.455 104.636 673.374 104.152 673.21 103.722C673.05 103.292 672.809 102.953 672.486 102.705C672.166 102.456 671.767 102.332 671.287 102.332C670.826 102.332 670.435 102.451 670.115 102.689C669.799 102.927 669.56 103.259 669.396 103.685C669.233 104.111 669.151 104.608 669.151 105.176ZM680.299 109.432C679.532 109.432 678.862 109.256 678.291 108.905C677.719 108.553 677.275 108.061 676.959 107.429C676.643 106.797 676.485 106.059 676.485 105.213C676.485 104.365 676.643 103.623 676.959 102.987C677.275 102.351 677.719 101.858 678.291 101.506C678.862 101.155 679.532 100.979 680.299 100.979C681.066 100.979 681.735 101.155 682.307 101.506C682.879 101.858 683.323 102.351 683.639 102.987C683.955 103.623 684.113 104.365 684.113 105.213C684.113 106.059 683.955 106.797 683.639 107.429C683.323 108.061 682.879 108.553 682.307 108.905C681.735 109.256 681.066 109.432 680.299 109.432ZM680.304 108.095C680.801 108.095 681.213 107.964 681.54 107.701C681.867 107.438 682.108 107.088 682.264 106.652C682.424 106.215 682.504 105.734 682.504 105.208C682.504 104.686 682.424 104.207 682.264 103.77C682.108 103.33 681.867 102.976 681.54 102.71C681.213 102.444 680.801 102.31 680.304 102.31C679.803 102.31 679.388 102.444 679.058 102.71C678.731 102.976 678.488 103.33 678.328 103.77C678.172 104.207 678.093 104.686 678.093 105.208C678.093 105.734 678.172 106.215 678.328 106.652C678.488 107.088 678.731 107.438 679.058 107.701C679.388 107.964 679.803 108.095 680.304 108.095ZM689.337 109.432C688.57 109.432 687.9 109.256 687.329 108.905C686.757 108.553 686.313 108.061 685.997 107.429C685.681 106.797 685.523 106.059 685.523 105.213C685.523 104.365 685.681 103.623 685.997 102.987C686.313 102.351 686.757 101.858 687.329 101.506C687.9 101.155 688.57 100.979 689.337 100.979C690.104 100.979 690.773 101.155 691.345 101.506C691.917 101.858 692.361 102.351 692.677 102.987C692.993 103.623 693.151 104.365 693.151 105.213C693.151 106.059 692.993 106.797 692.677 107.429C692.361 108.061 691.917 108.553 691.345 108.905C690.773 109.256 690.104 109.432 689.337 109.432ZM689.342 108.095C689.839 108.095 690.251 107.964 690.578 107.701C690.905 107.438 691.146 107.088 691.302 106.652C691.462 106.215 691.542 105.734 691.542 105.208C691.542 104.686 691.462 104.207 691.302 103.77C691.146 103.33 690.905 102.976 690.578 102.71C690.251 102.444 689.839 102.31 689.342 102.31C688.841 102.31 688.426 102.444 688.096 102.71C687.769 102.976 687.526 103.33 687.366 103.77C687.21 104.207 687.132 104.686 687.132 105.208C687.132 105.734 687.21 106.215 687.366 106.652C687.526 107.088 687.769 107.438 688.096 107.701C688.426 107.964 688.841 108.095 689.342 108.095ZM696.393 106.492L696.383 104.548H696.66L699.92 101.085H701.827L698.109 105.027H697.858L696.393 106.492ZM694.929 109.267V98.358H696.521V109.267H694.929ZM700.095 109.267L697.166 105.379L698.263 104.265L702.05 109.267H700.095Z" fill="#0C2340"/>
<path d="M32.4965 112.831L17.8516 88.1838L32.4965 63.5366H61.7864L76.4314 88.1838L61.7864 112.831H32.4965Z" fill="#0C2340"/>
<path d="M40.9494 95.6759C39.5445 95.6704 38.3357 95.3247 37.323 94.6386C36.3156 93.9525 35.5397 92.9588 34.9952 91.6574C34.4561 90.3561 34.1893 88.7906 34.1948 86.961C34.1948 85.1369 34.4643 83.5824 35.0034 82.2973C35.5479 81.0123 36.3238 80.0349 37.3311 79.3652C38.3439 78.69 39.55 78.3524 40.9494 78.3524C42.3488 78.3524 43.5521 78.69 44.5595 79.3652C45.5722 80.0404 46.3509 81.0205 46.8954 82.3055C47.4399 83.5851 47.7094 85.1369 47.704 86.961C47.704 88.796 47.4317 90.3642 46.8872 91.6656C46.3482 92.967 45.575 93.9607 44.5676 94.6468C43.5603 95.3329 42.3542 95.6759 40.9494 95.6759ZM40.9494 92.7437C41.9077 92.7437 42.6727 92.2618 43.2445 91.2981C43.8162 90.3343 44.0994 88.8886 44.0939 86.961C44.0939 85.6923 43.9632 84.636 43.7019 83.792C43.4459 82.948 43.0811 82.3137 42.6074 81.889C42.1391 81.4642 41.5865 81.2519 40.9494 81.2519C39.9965 81.2519 39.2342 81.7283 38.6624 82.6812C38.0907 83.6341 37.8021 85.0607 37.7967 86.961C37.7967 88.2461 37.9246 89.3188 38.1806 90.1791C38.4419 91.034 38.8095 91.6765 39.2832 92.1066C39.7569 92.5314 40.3123 92.7437 40.9494 92.7437ZM57.5031 78.5811V95.3083H53.9665V81.938H53.8685L50.0379 84.3392V81.2029L54.1789 78.5811H57.5031Z" fill="white"/>
<path d="M397.495 112.831L382.85 88.1838L397.495 63.5366H426.784L441.429 88.1838L426.784 112.831H397.495Z" fill="#0C2340"/>
<path d="M404.33 95.6759C402.925 95.6704 401.717 95.3247 400.704 94.6386C399.696 93.9525 398.921 92.9588 398.376 91.6574C397.837 90.3561 397.57 88.7906 397.576 86.961C397.576 85.1369 397.845 83.5824 398.384 82.2973C398.929 81.0123 399.705 80.0349 400.712 79.3652C401.725 78.69 402.931 78.3524 404.33 78.3524C405.73 78.3524 406.933 78.69 407.94 79.3652C408.953 80.0404 409.732 81.0205 410.276 82.3055C410.821 83.5851 411.09 85.1369 411.085 86.961C411.085 88.796 410.813 90.3642 410.268 91.6656C409.729 92.967 408.956 93.9607 407.948 94.6468C406.941 95.3329 405.735 95.6759 404.33 95.6759ZM404.33 92.7437C405.289 92.7437 406.054 92.2618 406.625 91.2981C407.197 90.3343 407.48 88.8886 407.475 86.961C407.475 85.6923 407.344 84.636 407.083 83.792C406.827 82.948 406.462 82.3137 405.988 81.889C405.52 81.4642 404.967 81.2519 404.33 81.2519C403.377 81.2519 402.615 81.7283 402.043 82.6812C401.472 83.6341 401.183 85.0607 401.178 86.961C401.178 88.2461 401.305 89.3188 401.561 90.1791C401.823 91.034 402.19 91.6765 402.664 92.1066C403.138 92.5314 403.693 92.7437 404.33 92.7437ZM413.607 95.3083V92.7601L419.561 87.2469C420.067 86.7569 420.492 86.3158 420.835 85.9238C421.183 85.5317 421.448 85.1478 421.627 84.7721C421.807 84.391 421.897 83.9799 421.897 83.5388C421.897 83.0488 421.785 82.6268 421.562 82.2728C421.339 81.9135 421.034 81.6385 420.647 81.4479C420.26 81.2519 419.822 81.1539 419.332 81.1539C418.82 81.1539 418.374 81.2573 417.993 81.4642C417.611 81.6712 417.317 81.9679 417.111 82.3545C416.904 82.7411 416.8 83.2012 416.8 83.7348H413.443C413.443 82.6404 413.691 81.6902 414.187 80.8843C414.682 80.0785 415.376 79.455 416.269 79.014C417.162 78.5729 418.191 78.3524 419.357 78.3524C420.555 78.3524 421.597 78.5647 422.485 78.9895C423.378 79.4087 424.072 79.9914 424.568 80.7373C425.063 81.4833 425.311 82.3382 425.311 83.302C425.311 83.9336 425.186 84.557 424.935 85.1723C424.69 85.7876 424.252 86.471 423.62 87.2224C422.988 87.9684 422.098 88.8641 420.949 89.9096L418.507 92.3027V92.417H425.531V95.3083H413.607Z" fill="white"/>
<path d="M762.495 112.831L747.85 88.1838L762.495 63.5366H791.784L806.429 88.1838L791.784 112.831H762.495Z" fill="#0C2340"/>
<path d="M768.993 95.6759C767.588 95.6704 766.38 95.3247 765.367 94.6386C764.36 93.9525 763.584 92.9588 763.039 91.6574C762.5 90.3561 762.233 88.7906 762.239 86.961C762.239 85.1369 762.508 83.5824 763.047 82.2973C763.592 81.0123 764.368 80.0349 765.375 79.3652C766.388 78.69 767.594 78.3524 768.993 78.3524C770.393 78.3524 771.596 78.69 772.603 79.3652C773.616 80.0404 774.395 81.0205 774.939 82.3055C775.484 83.5851 775.753 85.1369 775.748 86.961C775.748 88.796 775.476 90.3642 774.931 91.6656C774.392 92.967 773.619 93.9607 772.612 94.6468C771.604 95.3329 770.398 95.6759 768.993 95.6759ZM768.993 92.7437C769.952 92.7437 770.717 92.2618 771.288 91.2981C771.86 90.3343 772.143 88.8886 772.138 86.961C772.138 85.6923 772.007 84.636 771.746 83.792C771.49 82.948 771.125 82.3137 770.651 81.889C770.183 81.4642 769.63 81.2519 768.993 81.2519C768.04 81.2519 767.278 81.7283 766.706 82.6812C766.135 83.6341 765.846 85.0607 765.841 86.961C765.841 88.2461 765.969 89.3188 766.225 90.1791C766.486 91.034 766.853 91.6765 767.327 92.1066C767.801 92.5314 768.356 92.7437 768.993 92.7437ZM784.453 95.537C783.233 95.537 782.147 95.3274 781.194 94.9081C780.246 94.4834 779.498 93.9008 778.948 93.1603C778.403 92.4143 778.123 91.554 778.106 90.5793H781.667C781.689 90.9877 781.823 91.3471 782.068 91.6574C782.318 91.9624 782.65 92.1992 783.064 92.368C783.478 92.5368 783.943 92.6212 784.461 92.6212C785 92.6212 785.476 92.5259 785.89 92.3353C786.304 92.1448 786.628 91.8807 786.862 91.5431C787.096 91.2055 787.213 90.8162 787.213 90.3751C787.213 89.9286 787.088 89.5338 786.838 89.1908C786.592 88.8423 786.239 88.5701 785.776 88.374C785.318 88.178 784.774 88.08 784.142 88.08H782.582V85.4827H784.142C784.676 85.4827 785.147 85.3901 785.555 85.205C785.969 85.0199 786.29 84.764 786.519 84.4373C786.748 84.1051 786.862 83.7185 786.862 83.2775C786.862 82.8582 786.761 82.4906 786.56 82.1748C786.364 81.8536 786.086 81.6031 785.727 81.4234C785.373 81.2437 784.959 81.1539 784.485 81.1539C784.006 81.1539 783.568 81.241 783.17 81.4152C782.773 81.584 782.454 81.8263 782.215 82.1422C781.975 82.458 781.847 82.8282 781.831 83.253H778.441C778.458 82.2892 778.733 81.4397 779.266 80.7047C779.8 79.9696 780.519 79.3951 781.422 78.9813C782.332 78.562 783.358 78.3524 784.502 78.3524C785.656 78.3524 786.666 78.562 787.532 78.9813C788.398 79.4006 789.07 79.9668 789.549 80.6802C790.034 81.388 790.273 82.183 790.268 83.0651C790.273 84.0016 789.982 84.783 789.394 85.4092C788.811 86.0354 788.052 86.4329 787.115 86.6017V86.7324C788.346 86.8903 789.282 87.3177 789.925 88.0147C790.573 88.7062 790.894 89.572 790.889 90.612C790.894 91.5649 790.619 92.4116 790.064 93.1521C789.514 93.8926 788.754 94.4753 787.785 94.9C786.816 95.3247 785.705 95.537 784.453 95.537Z" fill="white"/>
<path opacity="0.5" d="M343.548 41.0987C342.679 44.4391 341.765 47.7406 341.047 51.1281C340.924 51.6745 339.682 58.3251 339.273 57.9678C333.812 53.3271 329.688 49.2689 322.8 46.5057C316.153 43.8356 308.88 42.4628 301.75 42.0489C288.594 41.2961 275.535 43.5676 263.296 48.4349C252.815 52.6099 241.276 59.561 235.806 69.8617C234.786 71.7904 231.455 81.9021 236.087 82.1421C238.247 82.2533 237.945 79.621 238.435 78.0601C239.437 74.8685 241.289 72.3282 243.51 69.8193C259.851 51.3196 293.681 48.571 315.602 55.9242C321.476 57.8868 327.003 60.794 331.266 65.39C332.2 66.4062 335.784 69.9583 335.197 71.1797C334.63 72.3631 326.905 71.3019 325.457 71.3361C320.251 71.4568 313.435 70.9968 308.471 72.7539C306.239 73.5536 304.444 74.9342 305.123 77.5214C305.941 80.6146 309.279 80.4385 311.789 80.619C318.91 81.1094 326.142 80.3388 333.257 80.0064C339.748 79.7022 346.192 80.6919 347.322 73.0192C348.46 65.3339 348.48 57.2926 348.821 49.5308C348.92 47.3641 349.816 41.5626 347.889 39.6441C345.052 36.8182 345.085 41.5123 343.523 41.0855C342.742 44.0703 343.606 41.1124 343.523 41.0855L343.548 41.0987Z" fill="#A3B6A2"/>
</svg>
