<svg width="961" height="196" viewBox="0 0 961 196" fill="none" xmlns="http://www.w3.org/2000/svg">
<path d="M352.093 14.3387C347.653 9.55701 341.409 7.25259 334.921 8.01593C328.447 8.77927 322.896 12.4807 319.696 18.1554L293.108 65.3817C290.859 64.4599 288.379 63.9414 285.784 63.9414C275.143 63.9414 266.478 72.5974 266.478 83.241C266.478 89.5781 269.563 95.224 274.321 98.7382L248.758 144.135C246.35 148.399 242.183 151.049 237.31 151.423C232.422 151.812 227.895 149.824 224.852 145.965L190.998 103.592L186.5 107.193L220.325 149.551C224.636 155.024 231.341 157.703 237.742 157.17C244.476 156.651 250.474 152.835 253.775 146.958L279.411 101.446C281.401 102.152 283.549 102.526 285.784 102.526C296.439 102.526 305.104 93.8701 305.104 83.241C305.104 77.2495 302.35 71.8773 298.054 68.3342L324.728 20.9783C327.006 16.9168 330.971 14.2811 335.599 13.7338C340.227 13.1865 344.697 14.8428 347.883 18.2706L378.407 50.7198L382.617 46.7735L352.093 14.3387ZM299.337 83.241C299.337 90.7015 293.253 96.765 285.784 96.765C278.315 96.765 272.245 90.7303 272.245 83.241C272.245 75.7516 278.315 69.7025 285.784 69.7025C293.253 69.7025 299.337 75.6508 299.337 83.241Z" fill="#CEDEF8"/>
<path d="M291.133 91.6952C290.095 91.6952 289.186 90.9463 288.999 89.8949L287.514 81.1093L278.603 83.2264C277.436 83.5145 276.268 82.7944 275.994 81.6278C275.72 80.4611 276.441 79.3089 277.594 79.0209L288.754 76.3564C289.331 76.2124 289.951 76.3276 290.455 76.6588C290.96 76.9901 291.291 77.5086 291.392 78.0991L293.252 89.1603C293.454 90.3414 292.661 91.4503 291.479 91.652C291.364 91.6664 291.234 91.6808 291.118 91.6808L291.133 91.6952Z" fill="#CEDEF8"/>
<path d="M743.443 14.3387C739.002 9.55701 732.759 7.25259 726.271 8.01593C719.797 8.77927 714.246 12.4807 711.045 18.1554L684.458 65.3817C682.209 64.4599 679.729 63.9414 677.133 63.9414C666.493 63.9414 657.828 72.5974 657.828 83.241C657.828 89.5781 660.913 95.224 665.671 98.7382L640.107 144.135C637.7 148.399 633.533 151.049 628.659 151.423C623.772 151.812 619.244 149.824 616.202 145.965L582.348 103.592L577.85 107.193L611.675 149.551C616 155.038 622.719 157.703 629.092 157.17C635.825 156.651 641.823 152.835 645.125 146.958L670.761 101.446C672.75 102.152 674.899 102.526 677.133 102.526C687.789 102.526 696.454 93.8701 696.454 83.241C696.454 77.2495 693.7 71.8773 689.403 68.3342L716.077 20.9783C718.355 16.9168 722.32 14.2811 726.948 13.7338C731.577 13.1865 736.046 14.8428 739.233 18.2706L769.756 50.7198L773.966 46.7735L743.443 14.3387ZM690.687 83.241C690.687 90.7015 684.602 96.7651 677.133 96.7651C669.665 96.7651 663.595 90.7591 663.595 83.241C663.595 75.7228 669.665 69.7025 677.133 69.7025C684.602 69.7025 690.687 75.6508 690.687 83.241Z" fill="#CEDEF8"/>
<path d="M682.483 91.6952C681.445 91.6952 680.537 90.9463 680.349 89.8949L678.864 81.1093L669.954 83.2264C668.786 83.5145 667.618 82.7944 667.344 81.6278C667.07 80.4611 667.777 79.3089 668.944 79.0209L680.104 76.3564C680.681 76.2124 681.301 76.3276 681.806 76.6588C682.31 76.9901 682.642 77.5086 682.743 78.0991L684.603 89.1603C684.805 90.3414 684.012 91.4503 682.829 91.652C682.714 91.6664 682.584 91.6808 682.469 91.6808L682.483 91.6952Z" fill="#CEDEF8"/>
<path d="M60.2 191.252V175.98H66.0466C67.1503 175.98 68.0676 176.154 68.7984 176.502C69.5342 176.845 70.0835 177.315 70.4465 177.911C70.8144 178.508 70.9983 179.184 70.9983 179.94C70.9983 180.561 70.879 181.093 70.6404 181.535C70.4017 181.973 70.0811 182.328 69.6784 182.602C69.2757 182.875 68.8257 183.072 68.3286 183.191V183.34C68.8705 183.37 69.39 183.537 69.8872 183.84C70.3893 184.138 70.7994 184.561 71.1176 185.108C71.4358 185.654 71.5949 186.316 71.5949 187.091C71.5949 187.882 71.4035 188.593 71.0207 189.224C70.6379 189.85 70.0612 190.345 69.2906 190.708C68.52 191.071 67.5505 191.252 66.3822 191.252H60.2ZM62.9667 188.941H65.9422C66.9465 188.941 67.6698 188.749 68.1123 188.366C68.5597 187.979 68.7835 187.481 68.7835 186.875C68.7835 186.423 68.6716 186.015 68.4479 185.652C68.2242 185.284 67.906 184.996 67.4933 184.787C67.0807 184.573 66.5885 184.466 66.0168 184.466H62.9667V188.941ZM62.9667 182.475H65.7036C66.1808 182.475 66.6109 182.388 66.9937 182.214C67.3765 182.035 67.6773 181.784 67.896 181.461C68.1198 181.133 68.2316 180.745 68.2316 180.298C68.2316 179.706 68.0228 179.219 67.6052 178.836C67.1926 178.453 66.5786 178.262 65.7632 178.262H62.9667V182.475ZM81.1832 186.435V179.798H83.8828V191.252H81.2653V189.217H81.1459C80.8874 189.858 80.4624 190.382 79.8707 190.79C79.2841 191.198 78.5607 191.402 77.7006 191.402C76.9499 191.402 76.2862 191.235 75.7095 190.902C75.1378 190.564 74.6903 190.074 74.3672 189.433C74.044 188.787 73.8825 188.006 73.8825 187.091V179.798H76.582V186.674C76.582 187.399 76.7809 187.976 77.1786 188.404C77.5763 188.831 78.0984 189.045 78.7447 189.045C79.1424 189.045 79.5277 188.948 79.9006 188.754C80.2734 188.56 80.5792 188.272 80.8178 187.889C81.0614 187.501 81.1832 187.017 81.1832 186.435ZM88.3367 195.548C87.9688 195.548 87.6283 195.518 87.3151 195.458C87.0068 195.404 86.7607 195.339 86.5768 195.265L87.2032 193.162C87.596 193.276 87.9465 193.331 88.2547 193.326C88.5629 193.321 88.8339 193.224 89.0676 193.035C89.3062 192.851 89.5075 192.543 89.6716 192.11L89.9028 191.491L85.749 179.798H88.6127L91.2526 188.448H91.3719L94.0193 179.798H96.8904L92.3041 192.64C92.0903 193.246 91.8069 193.766 91.4539 194.198C91.1009 194.636 90.6684 194.969 90.1563 195.197C89.6492 195.431 89.0427 195.548 88.3367 195.548ZM103.44 191.476C102.291 191.476 101.3 191.238 100.464 190.76C99.6341 190.278 98.9952 189.597 98.5478 188.717C98.1003 187.832 97.8766 186.79 97.8766 185.592C97.8766 184.414 98.1003 183.38 98.5478 182.49C99.0002 181.595 99.6316 180.899 100.442 180.402C101.252 179.9 102.204 179.649 103.298 179.649C104.004 179.649 104.67 179.763 105.297 179.992C105.928 180.216 106.485 180.564 106.967 181.036C107.454 181.508 107.837 182.11 108.116 182.841C108.394 183.566 108.533 184.431 108.533 185.436V186.263H99.1444V184.444H105.945C105.941 183.927 105.829 183.467 105.61 183.064C105.391 182.657 105.085 182.336 104.693 182.102C104.305 181.869 103.852 181.752 103.335 181.752C102.784 181.752 102.299 181.886 101.881 182.154C101.464 182.418 101.138 182.766 100.904 183.198C100.676 183.626 100.559 184.096 100.554 184.608V186.196C100.554 186.863 100.676 187.434 100.919 187.912C101.163 188.384 101.503 188.747 101.941 189C102.378 189.249 102.89 189.373 103.477 189.373C103.87 189.373 104.225 189.318 104.543 189.209C104.862 189.095 105.138 188.928 105.371 188.709C105.605 188.491 105.781 188.22 105.901 187.897L108.421 188.18C108.262 188.846 107.959 189.428 107.512 189.925C107.069 190.417 106.502 190.8 105.811 191.073C105.12 191.342 104.33 191.476 103.44 191.476ZM110.817 191.252V179.798H113.435V181.707H113.554C113.763 181.046 114.121 180.536 114.628 180.178C115.14 179.815 115.724 179.634 116.38 179.634C116.529 179.634 116.696 179.641 116.88 179.656C117.069 179.666 117.225 179.684 117.35 179.708V182.192C117.235 182.152 117.054 182.117 116.805 182.087C116.562 182.053 116.326 182.035 116.097 182.035C115.605 182.035 115.162 182.142 114.769 182.356C114.382 182.565 114.076 182.855 113.852 183.228C113.628 183.601 113.517 184.031 113.517 184.518V191.252H110.817Z" fill="#0B59DE"/>
<path d="M853.364 180.178C853.294 179.527 853.001 179.02 852.484 178.657C851.972 178.294 851.305 178.113 850.485 178.113C849.908 178.113 849.414 178.2 849.001 178.374C848.589 178.548 848.273 178.784 848.054 179.082C847.835 179.38 847.723 179.721 847.718 180.104C847.718 180.422 847.791 180.698 847.935 180.931C848.084 181.165 848.285 181.364 848.539 181.528C848.792 181.687 849.073 181.821 849.381 181.931C849.69 182.04 850 182.132 850.314 182.207L851.745 182.565C852.322 182.699 852.877 182.88 853.408 183.109C853.945 183.338 854.425 183.626 854.848 183.974C855.275 184.322 855.613 184.742 855.862 185.234C856.111 185.727 856.235 186.303 856.235 186.964C856.235 187.859 856.006 188.647 855.549 189.328C855.091 190.005 854.43 190.534 853.565 190.917C852.705 191.295 851.663 191.484 850.44 191.484C849.252 191.484 848.221 191.3 847.346 190.932C846.476 190.564 845.794 190.027 845.302 189.321C844.815 188.615 844.552 187.755 844.512 186.741H847.234C847.274 187.273 847.438 187.715 847.726 188.068C848.014 188.421 848.39 188.685 848.852 188.859C849.319 189.033 849.841 189.12 850.418 189.12C851.02 189.12 851.547 189.03 851.999 188.851C852.456 188.667 852.814 188.414 853.073 188.091C853.331 187.762 853.463 187.38 853.468 186.942C853.463 186.544 853.346 186.216 853.118 185.958C852.889 185.694 852.568 185.475 852.156 185.301C851.748 185.122 851.271 184.963 850.724 184.824L848.986 184.377C847.728 184.054 846.734 183.564 846.003 182.908C845.277 182.246 844.915 181.369 844.915 180.275C844.915 179.375 845.158 178.587 845.645 177.911C846.138 177.235 846.806 176.711 847.651 176.338C848.497 175.96 849.454 175.771 850.522 175.771C851.606 175.771 852.556 175.96 853.371 176.338C854.192 176.711 854.835 177.23 855.303 177.896C855.77 178.557 856.011 179.318 856.026 180.178H853.364ZM863.653 191.476C862.505 191.476 861.513 191.238 860.678 190.76C859.847 190.278 859.208 189.597 858.761 188.717C858.314 187.832 858.09 186.79 858.09 185.592C858.09 184.414 858.314 183.38 858.761 182.49C859.213 181.595 859.845 180.899 860.655 180.402C861.466 179.9 862.418 179.649 863.511 179.649C864.217 179.649 864.884 179.763 865.51 179.992C866.141 180.216 866.698 180.564 867.18 181.036C867.668 181.508 868.05 182.11 868.329 182.841C868.607 183.566 868.746 184.431 868.746 185.436V186.263H859.358V184.444H866.159C866.154 183.927 866.042 183.467 865.823 183.064C865.604 182.657 865.299 182.336 864.906 182.102C864.518 181.869 864.066 181.752 863.549 181.752C862.997 181.752 862.512 181.886 862.094 182.154C861.677 182.418 861.351 182.766 861.118 183.198C860.889 183.626 860.772 184.096 860.767 184.608V186.196C860.767 186.863 860.889 187.434 861.132 187.912C861.376 188.384 861.717 188.747 862.154 189C862.592 189.249 863.104 189.373 863.69 189.373C864.083 189.373 864.439 189.318 864.757 189.209C865.075 189.095 865.351 188.928 865.585 188.709C865.818 188.491 865.995 188.22 866.114 187.897L868.635 188.18C868.476 188.846 868.172 189.428 867.725 189.925C867.282 190.417 866.716 190.8 866.025 191.073C865.333 191.342 864.543 191.476 863.653 191.476ZM873.73 175.98V191.252H871.03V175.98H873.73ZM879.205 175.98V191.252H876.506V175.98H879.205ZM887.052 191.476C885.904 191.476 884.912 191.238 884.077 190.76C883.247 190.278 882.608 189.597 882.16 188.717C881.713 187.832 881.489 186.79 881.489 185.592C881.489 184.414 881.713 183.38 882.16 182.49C882.613 181.595 883.244 180.899 884.055 180.402C884.865 179.9 885.817 179.649 886.911 179.649C887.617 179.649 888.283 179.763 888.909 179.992C889.541 180.216 890.098 180.564 890.58 181.036C891.067 181.508 891.45 182.11 891.728 182.841C892.007 183.566 892.146 184.431 892.146 185.436V186.263H882.757V184.444H889.558C889.553 183.927 889.441 183.467 889.223 183.064C889.004 182.657 888.698 182.336 888.305 182.102C887.918 181.869 887.465 181.752 886.948 181.752C886.396 181.752 885.911 181.886 885.494 182.154C885.076 182.418 884.751 182.766 884.517 183.198C884.288 183.626 884.171 184.096 884.166 184.608V186.196C884.166 186.863 884.288 187.434 884.532 187.912C884.775 188.384 885.116 188.747 885.554 189C885.991 189.249 886.503 189.373 887.09 189.373C887.483 189.373 887.838 189.318 888.156 189.209C888.474 189.095 888.75 188.928 888.984 188.709C889.218 188.491 889.394 188.22 889.513 187.897L892.034 188.18C891.875 188.846 891.572 189.428 891.124 189.925C890.682 190.417 890.115 190.8 889.424 191.073C888.733 191.342 887.942 191.476 887.052 191.476ZM894.43 191.252V179.798H897.047V181.707H897.167C897.375 181.046 897.733 180.536 898.24 180.178C898.752 179.815 899.337 179.634 899.993 179.634C900.142 179.634 900.309 179.641 900.493 179.656C900.681 179.666 900.838 179.684 900.962 179.708V182.192C900.848 182.152 900.667 182.117 900.418 182.087C900.174 182.053 899.938 182.035 899.71 182.035C899.217 182.035 898.775 182.142 898.382 182.356C897.994 182.565 897.689 182.855 897.465 183.228C897.241 183.601 897.129 184.031 897.129 184.518V191.252H894.43Z" fill="#19CFBD"/>
<path opacity="0.2" d="M40.8005 161.023L0 91.3454L40.8005 21.6677H122.402L163.202 91.3454L122.402 161.023H40.8005Z" fill="black"/>
<path d="M132.63 152.907H53.3872L13.8032 85.0779L53.3872 17.249H132.63L172.214 85.0779L132.63 152.907Z" fill="#0B59DE" stroke="white" stroke-width="8"/>
<path d="M78.944 42.7538L66.2422 21.3769L78.944 0H104.348L117.05 21.3769L104.348 42.7538H78.944Z" fill="#0C2340"/>
<path d="M86.8265 28.5684C85.605 28.5636 84.5538 28.263 83.6731 27.6664C82.7972 27.0698 82.1225 26.2057 81.649 25.0741C81.1802 23.9424 80.9482 22.5812 80.953 20.9903C80.953 19.4041 81.1873 18.0523 81.6561 16.9349C82.1296 15.8174 82.8043 14.9675 83.6802 14.3851C84.5609 13.798 85.6097 13.5045 86.8265 13.5045C88.0434 13.5045 89.0898 13.798 89.9657 14.3851C90.8464 14.9723 91.5235 15.8245 91.997 16.942C92.4705 18.0547 92.7049 19.4041 92.7001 20.9903C92.7001 22.5859 92.4634 23.9495 91.9899 25.0812C91.5211 26.2128 90.8488 27.0769 89.9728 27.6735C89.0969 28.2701 88.0481 28.5684 86.8265 28.5684ZM86.8265 26.0187C87.6599 26.0187 88.3251 25.5996 88.8223 24.7616C89.3194 23.9235 89.5657 22.6664 89.5609 20.9903C89.5609 19.887 89.4473 18.9685 89.22 18.2346C88.9975 17.5007 88.6802 16.9491 88.2683 16.5797C87.8611 16.2104 87.3805 16.0258 86.8265 16.0258C85.9979 16.0258 85.3351 16.4401 84.8379 17.2687C84.3407 18.0973 84.0898 19.3378 84.0851 20.9903C84.0851 22.1077 84.1963 23.0404 84.4189 23.7886C84.6461 24.5319 84.9657 25.0906 85.3777 25.4647C85.7896 25.834 86.2726 26.0187 86.8265 26.0187ZM101.221 13.7033V28.2488H98.1458V16.6224H98.0606L94.7296 18.7104V15.9832L98.3304 13.7033H101.221Z" fill="white"/>
<path opacity="0.2" d="M823.496 161.023L782.695 91.3454L823.496 21.6677H905.097L945.898 91.3454L905.097 161.023H823.496Z" fill="black"/>
<path d="M915.786 152.907H836.543L796.959 85.0779L836.543 17.249H915.786L955.37 85.0779L915.786 152.907Z" fill="#19CFBD" stroke="white" stroke-width="8"/>
<path d="M863.676 42.7538L850.975 21.3769L863.676 0H889.08L901.782 21.3769L889.08 42.7538H863.676Z" fill="#0C2340"/>
<path d="M870.369 28.5684C869.147 28.5636 868.096 28.263 867.216 27.6664C866.34 27.0698 865.665 26.2057 865.191 25.0741C864.723 23.9424 864.491 22.5812 864.495 20.9903C864.495 19.4041 864.73 18.0523 865.198 16.9349C865.672 15.8174 866.347 14.9675 867.223 14.3851C868.103 13.798 869.152 13.5045 870.369 13.5045C871.586 13.5045 872.632 13.798 873.508 14.3851C874.389 14.9723 875.066 15.8245 875.539 16.942C876.013 18.0547 876.247 19.4041 876.242 20.9903C876.242 22.5859 876.006 23.9495 875.532 25.0812C875.064 26.2128 874.391 27.0769 873.515 27.6735C872.639 28.2701 871.591 28.5684 870.369 28.5684ZM870.369 26.0187C871.202 26.0187 871.867 25.5996 872.365 24.7616C872.862 23.9235 873.108 22.6664 873.103 20.9903C873.103 19.887 872.99 18.9685 872.762 18.2346C872.54 17.5007 872.223 16.9491 871.811 16.5797C871.403 16.2104 870.923 16.0258 870.369 16.0258C869.54 16.0258 868.877 16.4401 868.38 17.2687C867.883 18.0973 867.632 19.3378 867.627 20.9903C867.627 22.1077 867.739 23.0404 867.961 23.7886C868.189 24.5319 868.508 25.0906 868.92 25.4647C869.332 25.834 869.815 26.0187 870.369 26.0187ZM883.812 28.4476C882.751 28.4476 881.807 28.2654 880.978 27.9008C880.154 27.5314 879.503 27.0248 879.025 26.3809C878.551 25.7322 878.307 24.9841 878.293 24.1366H881.39C881.409 24.4917 881.525 24.8042 881.738 25.0741C881.956 25.3392 882.245 25.5452 882.604 25.692C882.964 25.8387 883.369 25.9121 883.819 25.9121C884.288 25.9121 884.702 25.8293 885.062 25.6636C885.422 25.4978 885.703 25.2682 885.907 24.9746C886.111 24.6811 886.212 24.3425 886.212 23.959C886.212 23.5707 886.103 23.2275 885.886 22.9292C885.673 22.6261 885.365 22.3894 884.962 22.2189C884.565 22.0485 884.091 21.9633 883.542 21.9633H882.185V19.7047H883.542C884.006 19.7047 884.415 19.6243 884.771 19.4633C885.13 19.3023 885.41 19.0797 885.609 18.7957C885.807 18.5068 885.907 18.1707 885.907 17.7871C885.907 17.4225 885.819 17.1029 885.644 16.8283C885.474 16.549 885.232 16.3312 884.92 16.1749C884.612 16.0187 884.252 15.9405 883.84 15.9405C883.423 15.9405 883.042 16.0163 882.697 16.1678C882.351 16.3146 882.074 16.5253 881.866 16.7999C881.657 17.0745 881.546 17.3965 881.532 17.7658H878.584C878.599 16.9278 878.838 16.1891 879.302 15.5499C879.766 14.9107 880.391 14.4112 881.177 14.0513C881.968 13.6868 882.86 13.5045 883.854 13.5045C884.858 13.5045 885.736 13.6868 886.489 14.0513C887.242 14.4159 887.827 14.9083 888.244 15.5286C888.665 16.1441 888.873 16.8354 888.869 17.6025C888.873 18.4169 888.62 19.0963 888.109 19.6408C887.602 20.1853 886.941 20.531 886.127 20.6778V20.7914C887.197 20.9287 888.012 21.3004 888.57 21.9064C889.134 22.5078 889.413 23.2606 889.408 24.165C889.413 24.9936 889.174 25.7298 888.691 26.3738C888.213 27.0177 887.552 27.5243 886.709 27.8937C885.867 28.263 884.901 28.4476 883.812 28.4476Z" fill="white"/>
<path d="M104.515 91.2975V86.2706C107.188 82.5003 109.017 76.7752 109.017 68.6762C109.017 59.5997 102.827 54.0142 92.9784 54.0142C83.6931 54.0142 76.9401 60.1582 76.9401 68.6762C76.9401 75.9373 78.769 81.6625 81.4421 85.712V91.2975C69.9058 96.0452 62.168 107.216 62.168 119.644C62.168 120.482 62.7307 121.04 63.5748 121.04H122.382C123.226 121.04 123.789 120.482 123.789 119.644C123.789 107.216 116.051 96.0452 104.515 91.2975ZM95.2294 118.248H90.7275L92.4157 109.59C92.5564 109.171 92.4157 108.892 92.1343 108.473L89.8833 105.261L92.8378 103.306L95.7922 105.261L93.6819 108.473C93.4005 108.752 93.4005 109.171 93.4005 109.59L95.2294 118.248ZM90.5868 101.491L83.9745 105.82L78.347 95.9056C79.3318 95.3471 80.3166 94.7885 81.3014 94.2299L90.5868 101.491ZM95.3701 101.491L104.655 94.3696C105.64 94.7885 106.766 95.3471 107.61 96.0452L101.982 105.96L95.3701 101.491ZM92.6971 89.9012C86.7882 89.9012 80.4573 83.0589 79.8945 70.4915C81.02 69.3744 84.5372 66.023 88.6171 66.3023C90.1647 67.6987 96.6363 72.8653 104.233 72.8653C104.796 72.8653 105.5 72.8653 106.062 72.7257C104.796 85.2931 98.6059 89.9012 92.6971 89.9012ZM92.9784 56.8069C101.42 56.8069 106.203 61.1357 106.203 68.6762C106.203 69.0951 106.203 69.514 106.203 69.9329C97.9025 71.05 90.1647 64.0681 90.1647 63.9285C90.024 63.7888 89.7426 63.6492 89.4613 63.5096C85.6627 62.951 82.2862 64.7663 80.0352 66.442C81.02 60.7168 86.2255 56.8069 92.9784 56.8069ZM92.6971 92.6939C95.7922 92.6939 99.028 91.7165 101.701 89.4822V92.4147C101.701 92.6939 101.842 92.9732 101.842 93.1128L92.9784 99.8155L84.1152 92.9732C84.2558 92.6939 84.2558 92.5543 84.2558 92.275V89.0633C86.7882 91.4372 89.7426 92.6939 92.6971 92.6939ZM75.9553 97.5813L82.2862 108.613C82.4269 108.892 82.849 109.171 83.1303 109.311C83.271 109.311 83.6931 109.451 84.2558 109.171L87.6323 106.937L89.602 109.73L87.773 118.248H75.1112V114.617C75.1112 113.779 74.5484 113.221 73.7043 113.221C72.8602 113.221 72.2974 113.779 72.2974 114.617V118.248H64.9817C65.4038 110.009 69.6244 102.469 75.9553 97.5813ZM113.659 118.248V114.617C113.659 113.779 113.097 113.221 112.253 113.221C111.408 113.221 110.846 113.779 110.846 114.617V118.248H98.1839L96.4956 109.59L98.4652 106.797L101.842 109.032C102.123 109.311 102.827 109.311 102.967 109.171C103.389 109.032 103.671 108.892 103.811 108.473L110.002 97.4416C116.473 102.329 120.553 109.869 120.975 118.108H113.659V118.248Z" fill="white"/>
<path d="M463.759 191.252H460.806L466.183 175.98H469.598L474.982 191.252H472.029L467.95 179.112H467.831L463.759 191.252ZM463.856 185.264H471.91V187.486H463.856V185.264ZM476.994 191.252V175.98H482.721C483.895 175.98 484.879 176.198 485.674 176.636C486.475 177.073 487.079 177.675 487.486 178.441C487.899 179.201 488.105 180.066 488.105 181.036C488.105 182.015 487.899 182.885 487.486 183.646C487.074 184.407 486.465 185.006 485.659 185.443C484.854 185.876 483.862 186.092 482.684 186.092H478.888V183.817H482.311C482.997 183.817 483.559 183.698 483.996 183.459C484.434 183.221 484.757 182.893 484.966 182.475C485.18 182.057 485.287 181.578 485.287 181.036C485.287 180.494 485.18 180.017 484.966 179.604C484.757 179.191 484.431 178.871 483.989 178.642C483.551 178.408 482.987 178.292 482.296 178.292H479.761V191.252H476.994ZM493.275 175.98V191.252H490.509V175.98H493.275Z" fill="#0C2340"/>
<path opacity="0.2" d="M432.146 161.023L391.346 91.3454L432.146 21.6677H513.747L554.548 91.3454L513.747 161.023H432.146Z" fill="black"/>
<path d="M524.437 152.907H445.194L405.61 85.0779L445.194 17.249H524.437L564.021 85.0779L524.437 152.907Z" fill="#CEDEF8" stroke="white" stroke-width="8"/>
<path d="M471.311 42.7538L458.609 21.3769L471.311 0H496.715L509.417 21.3769L496.715 42.7538H471.311Z" fill="#0C2340"/>
<path d="M478.295 28.5684C477.073 28.5636 476.022 28.263 475.141 27.6664C474.265 27.0698 473.591 26.2057 473.117 25.0741C472.648 23.9424 472.416 22.5812 472.421 20.9903C472.421 19.4041 472.655 18.0523 473.124 16.9349C473.598 15.8174 474.272 14.9675 475.148 14.3851C476.029 13.798 477.078 13.5045 478.295 13.5045C479.512 13.5045 480.558 13.798 481.434 14.3851C482.315 14.9723 482.992 15.8245 483.465 16.942C483.939 18.0547 484.173 19.4041 484.168 20.9903C484.168 22.5859 483.932 23.9495 483.458 25.0812C482.989 26.2128 482.317 27.0769 481.441 27.6735C480.565 28.2701 479.516 28.5684 478.295 28.5684ZM478.295 26.0187C479.128 26.0187 479.793 25.5996 480.29 24.7616C480.788 23.9235 481.034 22.6664 481.029 20.9903C481.029 19.887 480.915 18.9685 480.688 18.2346C480.466 17.5007 480.148 16.9491 479.736 16.5797C479.329 16.2104 478.849 16.0258 478.295 16.0258C477.466 16.0258 476.803 16.4401 476.306 17.2687C475.809 18.0973 475.558 19.3378 475.553 20.9903C475.553 22.1077 475.664 23.0404 475.887 23.7886C476.114 24.5319 476.434 25.0906 476.846 25.4647C477.258 25.834 477.741 26.0187 478.295 26.0187ZM486.361 28.2488V26.0329L491.539 21.2388C491.979 20.8127 492.348 20.4292 492.647 20.0883C492.95 19.7474 493.179 19.4136 493.336 19.0868C493.492 18.7554 493.57 18.3979 493.57 18.0144C493.57 17.5883 493.473 17.2213 493.279 16.9136C493.085 16.6011 492.819 16.3619 492.483 16.1962C492.147 16.0258 491.766 15.9405 491.34 15.9405C490.895 15.9405 490.506 16.0305 490.175 16.2104C489.844 16.3904 489.588 16.6484 489.408 16.9846C489.228 17.3207 489.138 17.7208 489.138 18.1849H486.219C486.219 17.2332 486.434 16.4069 486.865 15.7062C487.296 15.0054 487.9 14.4633 488.676 14.0797C489.453 13.6962 490.348 13.5045 491.361 13.5045C492.403 13.5045 493.309 13.6891 494.081 14.0584C494.858 14.423 495.461 14.9297 495.892 15.5783C496.323 16.227 496.539 16.9704 496.539 17.8084C496.539 18.3577 496.43 18.8998 496.212 19.4349C495.999 19.9699 495.618 20.5641 495.068 21.2175C494.519 21.8662 493.745 22.6451 492.746 23.5542L490.622 25.6351V25.7346H496.73V28.2488H486.361Z" fill="white"/>
<path d="M515.041 72.229H449.959C445.731 72.229 442.303 75.657 442.303 79.8857V97.1133C442.303 101.342 445.731 104.77 449.959 104.77H515.041C519.27 104.77 522.698 101.342 522.698 97.1133V79.8857C522.698 75.657 519.27 72.229 515.041 72.229Z" fill="#0C2340"/>
<path d="M460.178 86.9829V88.9513H453.785V86.9829H460.178ZM454.533 81.9946V94.2424H452.01V81.9946H454.533ZM461.978 81.9946V94.2424H459.463V81.9946H461.978Z" fill="white"/>
<path d="M474.236 87.8323V88.4128C474.236 89.3436 474.109 90.1793 473.857 90.9195C473.605 91.6598 473.248 92.2906 472.789 92.8122C472.329 93.3281 471.779 93.7235 471.14 93.9982C470.506 94.273 469.802 94.4105 469.029 94.4105C468.26 94.4105 467.556 94.273 466.917 93.9982C466.283 93.7235 465.734 93.3281 465.268 92.8122C464.803 92.2906 464.441 91.6598 464.183 90.9195C463.931 90.1793 463.805 89.3436 463.805 88.4128V87.8323C463.805 86.8958 463.931 86.0602 464.183 85.3256C464.436 84.5854 464.792 83.9544 465.252 83.4329C465.717 82.9113 466.267 82.5132 466.9 82.2384C467.54 81.9636 468.243 81.8262 469.012 81.8262C469.786 81.8262 470.489 81.9636 471.123 82.2384C471.762 82.5132 472.312 82.9113 472.772 83.4329C473.237 83.9544 473.596 84.5854 473.849 85.3256C474.107 86.0602 474.236 86.8958 474.236 87.8323ZM471.687 88.4128V87.8155C471.687 87.165 471.628 86.593 471.51 86.0995C471.392 85.606 471.218 85.191 470.988 84.8545C470.759 84.518 470.478 84.2657 470.147 84.0974C469.816 83.9236 469.438 83.8366 469.012 83.8366C468.586 83.8366 468.207 83.9236 467.876 84.0974C467.551 84.2657 467.273 84.518 467.043 84.8545C466.819 85.191 466.648 85.606 466.53 86.0995C466.412 86.593 466.354 87.165 466.354 87.8155V88.4128C466.354 89.0576 466.412 89.6297 466.53 90.1287C466.648 90.6223 466.822 91.0401 467.052 91.3821C467.282 91.7186 467.562 91.9738 467.893 92.1476C468.224 92.3215 468.602 92.4084 469.029 92.4084C469.455 92.4084 469.833 92.3215 470.164 92.1476C470.495 91.9738 470.773 91.7186 470.997 91.3821C471.221 91.0401 471.392 90.6223 471.51 90.1287C471.628 89.6297 471.687 89.0576 471.687 88.4128Z" fill="white"/>
<path d="M480.957 81.9946V94.2424H478.442V81.9946H480.957ZM484.726 81.9946V83.9715H474.732V81.9946H484.726Z" fill="white"/>
<path d="M494.381 92.2741V94.2424H487.861V92.2741H494.381ZM488.686 81.9946V94.2424H486.162V81.9946H488.686ZM493.531 86.9829V88.9008H487.861V86.9829H493.531ZM494.372 81.9946V83.9715H487.861V81.9946H494.372Z" fill="white"/>
<path d="M503.727 92.2741V94.2424H497.561V92.2741H503.727ZM498.377 81.9946V94.2424H495.854V81.9946H498.377Z" fill="white"/>
<path d="M507.249 81.9946L509.553 86.2679L511.858 81.9946H514.744L511.185 88.068L514.836 94.2424H511.926L509.553 89.8851L507.181 94.2424H504.254L507.913 88.068L504.346 81.9946H507.249Z" fill="white"/>
<path d="M455.023 61.9729L455.174 61.7017C455.758 60.6532 456.051 60.1289 456.488 60.1289C456.924 60.1289 457.217 60.6531 457.801 61.7017L457.952 61.9729C458.119 62.271 458.202 62.4199 458.331 62.5182C458.461 62.6165 458.622 62.6529 458.944 62.726L459.238 62.7924C460.373 63.0492 460.941 63.1776 461.076 63.6118C461.211 64.046 460.824 64.4984 460.05 65.4033L459.85 65.6373C459.63 65.8945 459.52 66.023 459.471 66.1821C459.421 66.3412 459.438 66.5127 459.471 66.8558L459.501 67.1681C459.618 68.3753 459.677 68.979 459.323 69.2473C458.97 69.5156 458.438 69.271 457.376 68.7817L457.101 68.655C456.799 68.5161 456.648 68.4465 456.488 68.4465C456.328 68.4465 456.177 68.5161 455.874 68.655L455.6 68.7817C454.537 69.271 454.006 69.5156 453.652 69.2473C453.299 68.979 453.357 68.3753 453.474 67.1681L453.504 66.8558C453.538 66.5127 453.554 66.3412 453.505 66.1821C453.455 66.023 453.345 65.8945 453.125 65.6373L452.925 65.4033C452.151 64.4984 451.765 64.046 451.9 63.6118C452.035 63.1776 452.602 63.0492 453.737 62.7924L454.031 62.726C454.353 62.6529 454.515 62.6165 454.644 62.5182C454.774 62.4199 454.857 62.271 455.023 61.9729Z" fill="#19CFBD"/>
<path d="M466.302 61.9729L466.453 61.7017C467.038 60.6532 467.33 60.1289 467.767 60.1289C468.204 60.1289 468.496 60.6531 469.081 61.7017L469.232 61.9729C469.398 62.271 469.481 62.4199 469.61 62.5182C469.74 62.6165 469.901 62.6529 470.224 62.726L470.517 62.7924C471.652 63.0492 472.22 63.1776 472.355 63.6118C472.49 64.046 472.103 64.4984 471.329 65.4033L471.129 65.6373C470.909 65.8945 470.799 66.023 470.75 66.1821C470.7 66.3412 470.717 66.5127 470.75 66.8558L470.78 67.1681C470.897 68.3753 470.956 68.979 470.602 69.2473C470.249 69.5156 469.718 69.271 468.655 68.7817L468.38 68.655C468.078 68.5161 467.927 68.4465 467.767 68.4465C467.607 68.4465 467.456 68.5161 467.154 68.655L466.879 68.7817C465.816 69.271 465.285 69.5156 464.931 69.2473C464.578 68.979 464.636 68.3753 464.753 67.1681L464.784 66.8558C464.817 66.5127 464.833 66.3412 464.784 66.1821C464.734 66.023 464.625 65.8945 464.405 65.6373L464.204 65.4033C463.431 64.4984 463.044 64.046 463.179 63.6118C463.314 63.1776 463.881 63.0492 465.016 62.7924L465.31 62.726C465.633 62.6529 465.794 62.6165 465.923 62.5182C466.053 62.4199 466.136 62.271 466.302 61.9729Z" fill="#19CFBD"/>
<path d="M477.585 61.9729L477.736 61.7017C478.321 60.6532 478.613 60.1289 479.05 60.1289C479.487 60.1289 479.779 60.6531 480.364 61.7017L480.515 61.9729C480.681 62.271 480.764 62.4199 480.894 62.5182C481.023 62.6165 481.184 62.6529 481.507 62.726L481.801 62.7924C482.936 63.0492 483.503 63.1776 483.638 63.6118C483.773 64.046 483.386 64.4984 482.612 65.4033L482.412 65.6373C482.192 65.8945 482.082 66.023 482.033 66.1821C481.983 66.3412 482 66.5127 482.033 66.8558L482.064 67.1681C482.181 68.3753 482.239 68.979 481.886 69.2473C481.532 69.5156 481.001 69.271 479.938 68.7817L479.663 68.655C479.361 68.5161 479.21 68.4465 479.05 68.4465C478.89 68.4465 478.739 68.5161 478.437 68.655L478.162 68.7817C477.099 69.271 476.568 69.5156 476.215 69.2473C475.861 68.979 475.92 68.3753 476.037 67.1681L476.067 66.8558C476.1 66.5127 476.117 66.3412 476.067 66.1821C476.018 66.023 475.908 65.8945 475.688 65.6373L475.488 65.4033C474.714 64.4984 474.327 64.046 474.462 63.6118C474.597 63.1776 475.165 63.0492 476.3 62.7924L476.593 62.726C476.916 62.6529 477.077 62.6165 477.207 62.5182C477.336 62.4199 477.419 62.271 477.585 61.9729Z" fill="#19CFBD"/>
<path d="M488.864 61.9729L489.016 61.7017C489.6 60.6532 489.892 60.1289 490.329 60.1289C490.766 60.1289 491.059 60.6531 491.643 61.7017L491.794 61.9729C491.96 62.271 492.043 62.4199 492.173 62.5182C492.302 62.6165 492.464 62.6529 492.786 62.726L493.08 62.7924C494.215 63.0492 494.782 63.1776 494.917 63.6118C495.052 64.046 494.666 64.4984 493.892 65.4033L493.692 65.6373C493.472 65.8945 493.362 66.023 493.312 66.1821C493.263 66.3412 493.279 66.5127 493.313 66.8558L493.343 67.1681C493.46 68.3753 493.518 68.979 493.165 69.2473C492.811 69.5156 492.28 69.271 491.217 68.7817L490.942 68.655C490.64 68.5161 490.489 68.4465 490.329 68.4465C490.169 68.4465 490.018 68.5161 489.716 68.655L489.441 68.7817C488.379 69.271 487.847 69.5156 487.494 69.2473C487.14 68.979 487.199 68.3753 487.316 67.1681L487.346 66.8558C487.379 66.5127 487.396 66.3412 487.346 66.1821C487.297 66.023 487.187 65.8945 486.967 65.6373L486.767 65.4033C485.993 64.4984 485.606 64.046 485.741 63.6118C485.876 63.1776 486.444 63.0492 487.579 62.7924L487.873 62.726C488.195 62.6529 488.356 62.6165 488.486 62.5182C488.615 62.4199 488.698 62.271 488.864 61.9729Z" fill="#19CFBD"/>
<path d="M510.735 123.912C518.4 123.912 524.613 117.699 524.613 110.034C524.613 102.37 518.4 96.1562 510.735 96.1562C503.071 96.1562 496.857 102.37 496.857 110.034C496.857 117.699 503.071 123.912 510.735 123.912Z" fill="#CEDEF8"/>
<path d="M505.372 105.884C505.704 105.944 505.855 106.276 505.704 106.578L504.738 108.874C504.617 109.206 504.285 109.296 504.013 109.145L501.959 107.877C501.687 107.696 501.567 107.303 501.687 106.971L502.171 105.823C502.292 105.521 502.684 105.31 502.986 105.37L505.372 105.884Z" fill="white"/>
<path d="M504.015 110.867C504.287 110.686 504.619 110.806 504.77 111.139L505.737 113.434C505.857 113.766 505.706 114.068 505.404 114.129L503.049 114.642C502.716 114.703 502.354 114.521 502.233 114.189L501.75 113.041C501.629 112.709 501.75 112.317 502.022 112.135L504.015 110.867Z" fill="white"/>
<path d="M506.581 115.367C506.642 115.035 506.974 114.884 507.276 115.035L509.571 116.001C509.904 116.122 509.994 116.454 509.843 116.756L508.544 118.78C508.363 119.052 507.971 119.172 507.638 119.052L506.491 118.568C506.189 118.448 505.977 118.055 506.038 117.753L506.581 115.367Z" fill="white"/>
<path d="M511.565 116.726C511.383 116.454 511.504 116.122 511.836 115.971L514.132 115.004C514.464 114.883 514.766 115.034 514.826 115.336L515.34 117.692C515.4 118.024 515.219 118.387 514.887 118.508L513.739 118.991C513.407 119.112 513.014 118.991 512.833 118.719L511.565 116.726Z" fill="white"/>
<path d="M516.065 114.158C515.733 114.098 515.581 113.766 515.733 113.464L516.699 111.168C516.82 110.866 517.152 110.746 517.454 110.897L519.508 112.195C519.78 112.376 519.9 112.769 519.78 113.101L519.296 114.249C519.176 114.551 518.783 114.762 518.481 114.702L516.065 114.158Z" fill="white"/>
<path d="M517.421 109.175C517.15 109.356 516.817 109.235 516.666 108.903L515.7 106.608C515.579 106.276 515.73 105.973 516.032 105.913L518.388 105.4C518.72 105.339 519.083 105.52 519.203 105.853L519.687 107C519.807 107.302 519.687 107.725 519.415 107.906L517.421 109.175Z" fill="white"/>
<path d="M514.858 104.675C514.798 105.007 514.465 105.158 514.163 105.007L511.868 104.041C511.536 103.92 511.445 103.588 511.596 103.286L512.865 101.262C513.046 100.99 513.439 100.869 513.771 100.99L514.918 101.473C515.22 101.594 515.432 101.987 515.371 102.289L514.858 104.675Z" fill="white"/>
<path d="M509.875 103.316C510.056 103.588 509.935 103.92 509.603 104.071L507.308 105.038C507.005 105.159 506.673 105.008 506.613 104.706L506.099 102.35C506.039 102.018 506.22 101.655 506.552 101.534L507.7 101.051C508.032 100.93 508.425 101.051 508.606 101.323L509.875 103.316Z" fill="white"/>
<path d="M510.717 102.379C506.489 102.379 503.076 105.792 503.076 110.021C503.076 114.249 506.489 117.662 510.717 117.662C514.946 117.662 518.358 114.249 518.358 110.021C518.358 105.792 514.946 102.379 510.717 102.379ZM510.717 114.823C508.06 114.823 505.915 112.678 505.915 110.021C505.915 107.363 508.06 105.218 510.717 105.218C513.375 105.218 515.519 107.363 515.519 110.021C515.519 112.678 513.375 114.823 510.717 114.823Z" fill="white"/>
<path d="M858.597 68.4318C860.123 68.4318 861.614 67.9792 862.883 67.1311C864.152 66.2829 865.14 65.0775 865.724 63.6672C866.308 62.2568 866.461 60.7049 866.163 59.2077C865.866 57.7105 865.131 56.3352 864.052 55.2558C862.973 54.1763 861.599 53.4412 860.102 53.1434C858.606 52.8456 857.055 52.9985 855.645 53.5826C854.236 54.1668 853.031 55.1561 852.183 56.4254C851.335 57.6947 850.883 59.1869 850.883 60.7135C850.885 62.7598 851.699 64.7217 853.145 66.1687C854.591 67.6157 856.552 68.4296 858.597 68.4318ZM858.597 55.0915C859.709 55.0917 860.795 55.4215 861.719 56.0394C862.643 56.6572 863.363 57.5353 863.788 58.5626C864.213 59.5899 864.324 60.7202 864.107 61.8107C863.891 62.9012 863.355 63.9029 862.569 64.6891C861.784 65.4752 860.782 66.0106 859.692 66.2275C858.602 66.4443 857.473 66.3329 856.446 65.9074C855.419 65.4819 854.542 64.7613 853.924 63.8368C853.307 62.9123 852.978 61.8254 852.978 60.7135C852.979 59.2228 853.572 57.7937 854.625 56.7397C855.679 55.6857 857.107 55.093 858.597 55.0915ZM884.594 74.8625C884.592 73.7524 884.15 72.6883 883.366 71.9036C882.581 71.1189 881.517 70.6776 880.408 70.6766H851.86C849.464 70.6795 847.167 71.6329 845.473 73.3278C843.779 75.0228 842.826 77.3208 842.822 79.718V93.9501C842.822 94.6849 843.015 95.407 843.382 96.0435C843.749 96.6801 844.277 97.2088 844.913 97.5764C845.549 97.9441 846.27 98.1377 847.005 98.1378C847.739 98.1379 848.461 97.9445 849.097 97.5771V114.496C849.097 115.605 849.446 116.685 850.094 117.584C850.743 118.483 851.658 119.155 852.71 119.504C853.761 119.853 854.896 119.861 855.953 119.528C857.01 119.195 857.935 118.537 858.597 117.648C859.259 118.537 860.184 119.194 861.241 119.527C862.298 119.86 863.433 119.851 864.484 119.503C865.536 119.154 866.451 118.482 867.099 117.583C867.748 116.685 868.097 115.604 868.097 114.496L868.105 79.0892L880.412 79.0469C881.52 79.0426 882.581 78.6004 883.365 77.8166C884.148 77.0327 884.59 75.9709 884.594 74.8625ZM867.054 76.9981C866.777 76.9991 866.511 77.11 866.315 77.3063C866.12 77.5027 866.01 77.7686 866.01 78.0459L866.001 114.496C866.008 114.918 865.93 115.337 865.774 115.728C865.617 116.12 865.384 116.476 865.088 116.777C864.792 117.077 864.44 117.316 864.051 117.479C863.662 117.642 863.244 117.726 862.823 117.726C862.401 117.726 861.984 117.642 861.595 117.479C861.206 117.316 860.854 117.077 860.558 116.777C860.262 116.476 860.029 116.12 859.872 115.728C859.715 115.337 859.638 114.918 859.645 114.496V101.708C859.648 101.568 859.624 101.429 859.573 101.298C859.522 101.168 859.446 101.049 859.348 100.949C859.25 100.848 859.133 100.768 859.005 100.714C858.876 100.659 858.737 100.631 858.597 100.631C858.457 100.631 858.318 100.659 858.189 100.714C858.06 100.768 857.944 100.848 857.846 100.949C857.748 101.049 857.672 101.168 857.621 101.298C857.57 101.429 857.545 101.568 857.549 101.708V114.496C857.549 115.339 857.214 116.148 856.618 116.745C856.022 117.341 855.214 117.676 854.371 117.676C853.528 117.676 852.719 117.341 852.123 116.745C851.527 116.148 851.192 115.339 851.192 114.496V83.9077C851.185 83.6347 851.071 83.3752 850.875 83.1847C850.68 82.9942 850.417 82.8875 850.144 82.8875C849.871 82.8875 849.609 82.9942 849.413 83.1847C849.218 83.3752 849.104 83.6347 849.097 83.9077V93.9501C849.086 94.4976 848.861 95.0192 848.471 95.4027C848.08 95.7862 847.554 96.001 847.007 96.001C846.46 96.001 845.934 95.7862 845.544 95.4027C845.153 95.0192 844.928 94.4976 844.918 93.9501V79.718C844.92 77.8764 845.652 76.1108 846.954 74.8085C848.255 73.5063 850.02 72.7737 851.86 72.7715H880.408C880.685 72.7664 880.961 72.8168 881.22 72.9197C881.478 73.0226 881.713 73.176 881.911 73.3708C882.109 73.5657 882.266 73.7981 882.374 74.0545C882.481 74.3109 882.536 74.5861 882.536 74.8641C882.535 75.1421 882.48 75.4172 882.372 75.6734C882.264 75.9296 882.106 76.1617 881.908 76.3562C881.709 76.5507 881.474 76.7036 881.216 76.806C880.958 76.9085 880.682 76.9584 880.404 76.9528L867.054 76.9981ZM907.9 101.203H900.452V84.3144C900.458 83.7915 900.256 83.2879 899.89 82.9139C899.525 82.5399 899.026 82.3262 898.504 82.3195H881.432C880.91 82.3266 880.412 82.5406 880.047 82.9145C879.682 83.2885 879.48 83.7919 879.486 84.3144V101.203H872.033C871.516 101.204 871.021 101.41 870.656 101.775C870.29 102.14 870.085 102.636 870.084 103.153V120.234C870.085 120.751 870.29 121.246 870.656 121.612C871.021 121.977 871.516 122.183 872.033 122.184H907.9C908.417 122.183 908.912 121.977 909.277 121.612C909.642 121.246 909.848 120.751 909.849 120.234V103.153C909.848 102.636 909.642 102.14 909.277 101.775C908.912 101.41 908.417 101.204 907.9 101.203ZM898.19 103.3H900.538V105.573L900.171 105.129C900.073 105.01 899.949 104.915 899.81 104.849C899.671 104.784 899.518 104.75 899.364 104.75C899.21 104.75 899.058 104.784 898.919 104.849C898.779 104.915 898.656 105.01 898.558 105.129L898.191 105.573L898.19 103.3ZM889.469 84.4167H891.818V86.6899L891.451 86.2455C891.353 86.1268 891.23 86.0311 891.09 85.9655C890.951 85.8999 890.799 85.8658 890.644 85.8658C890.49 85.8658 890.338 85.8999 890.199 85.9655C890.059 86.0311 889.936 86.1268 889.838 86.2455L889.47 86.6899L889.469 84.4167ZM881.579 84.4167H887.374V89.602C887.373 89.8178 887.44 90.0284 887.564 90.205C887.688 90.3816 887.863 90.5156 888.066 90.5887C888.269 90.6618 888.49 90.6704 888.698 90.6134C888.906 90.5563 889.091 90.4364 889.228 90.27L890.644 88.5587L892.058 90.27C892.156 90.389 892.28 90.4848 892.419 90.5506C892.559 90.6164 892.711 90.6505 892.866 90.6505C892.987 90.6507 893.107 90.6296 893.221 90.5883C893.423 90.515 893.599 90.381 893.722 90.2045C893.846 90.028 893.912 89.8176 893.912 89.602V84.4167H898.356V101.203H881.579V84.4167ZM879.397 103.3H881.746V105.573L881.379 105.129C881.281 105.01 881.157 104.914 881.018 104.849C880.878 104.783 880.726 104.749 880.572 104.749C880.418 104.749 880.266 104.783 880.126 104.849C879.987 104.914 879.864 105.01 879.765 105.129L879.398 105.573L879.397 103.3ZM872.182 103.3H877.301V108.486C877.301 108.702 877.368 108.912 877.492 109.089C877.616 109.265 877.791 109.399 877.994 109.472C878.197 109.545 878.418 109.554 878.626 109.497C878.834 109.44 879.019 109.32 879.157 109.154L880.571 107.442L881.987 109.154C882.124 109.32 882.309 109.44 882.517 109.497C882.725 109.554 882.946 109.546 883.149 109.473C883.352 109.399 883.527 109.265 883.651 109.089C883.775 108.912 883.842 108.702 883.841 108.486V103.3H888.92V120.087H872.186L872.182 103.3ZM907.757 120.087H891.016V103.3H896.094V108.486C896.094 108.702 896.16 108.912 896.284 109.089C896.408 109.265 896.584 109.399 896.787 109.472C896.99 109.545 897.21 109.554 897.418 109.497C897.626 109.44 897.812 109.32 897.949 109.154L899.364 107.442L900.779 109.154C900.916 109.32 901.102 109.44 901.31 109.497C901.518 109.554 901.738 109.546 901.941 109.473C902.144 109.399 902.32 109.265 902.444 109.089C902.568 108.912 902.634 108.702 902.634 108.486V103.3H907.753L907.757 120.087ZM879.025 117.879C879.025 118.157 878.914 118.423 878.718 118.62C878.521 118.817 878.255 118.927 877.977 118.927H874.402C874.262 118.931 874.123 118.907 873.993 118.856C873.862 118.805 873.743 118.728 873.643 118.63C873.543 118.533 873.463 118.416 873.408 118.287C873.354 118.158 873.326 118.019 873.326 117.879C873.326 117.739 873.354 117.6 873.408 117.471C873.463 117.342 873.543 117.225 873.643 117.127C873.743 117.03 873.862 116.953 873.993 116.902C874.123 116.851 874.262 116.827 874.402 116.831H877.977C878.255 116.831 878.521 116.941 878.718 117.138C878.914 117.334 879.024 117.601 879.025 117.879ZM897.817 117.879C897.817 118.156 897.707 118.421 897.511 118.617C897.316 118.814 897.05 118.924 896.774 118.926H893.195C893.055 118.929 892.915 118.905 892.785 118.854C892.654 118.803 892.536 118.726 892.435 118.629C892.335 118.531 892.255 118.414 892.201 118.285C892.146 118.156 892.118 118.017 892.118 117.877C892.118 117.737 892.146 117.599 892.201 117.47C892.255 117.34 892.335 117.224 892.435 117.126C892.536 117.028 892.654 116.952 892.785 116.901C892.915 116.85 893.055 116.825 893.195 116.829H896.774C897.051 116.83 897.317 116.941 897.512 117.138C897.708 117.335 897.817 117.601 897.817 117.879ZM889.097 98.9939C889.097 99.1316 889.07 99.268 889.018 99.3954C888.965 99.5227 888.888 99.6384 888.791 99.7358C888.693 99.8333 888.578 99.9106 888.451 99.9633C888.324 100.016 888.187 100.043 888.05 100.043H884.474C884.201 100.036 883.942 99.9222 883.751 99.7264C883.561 99.5306 883.454 99.2682 883.454 98.9951C883.454 98.7219 883.561 98.4595 883.751 98.2637C883.942 98.0679 884.201 97.9542 884.474 97.9468H888.05C888.327 97.9471 888.593 98.0574 888.79 98.2537C888.986 98.45 889.097 98.7162 889.097 98.9939Z" fill="white"/>
</svg>
