<svg width="960" height="232" viewBox="0 0 960 232" fill="none" xmlns="http://www.w3.org/2000/svg">
<path fill-rule="evenodd" clip-rule="evenodd" d="M0 232V68L66 2H960V165L893 232H0Z" fill="url(#paint0_linear_244_9792)"/>
<path d="M138.102 149.912H178.302C181.162 149.912 183.802 148.392 185.232 145.912L205.332 111.102C206.762 108.622 206.762 105.582 205.332 103.102L185.232 68.2922C183.802 65.8122 181.162 64.2922 178.302 64.2922H138.102C135.242 64.2922 132.602 65.8122 131.172 68.2922L111.072 103.102C109.642 105.582 109.642 108.622 111.072 111.102L131.172 145.912C132.602 148.392 135.242 149.912 138.102 149.912Z" fill="#0F64F3"/>
<g style="mix-blend-mode:screen" opacity="0.5">
<path d="M242.62 110.372C245.09 110.372 247.4 111.702 248.63 113.842L261.17 135.572C262.41 137.712 262.41 140.372 261.17 142.512L248.63 164.242C247.39 166.382 245.09 167.712 242.62 167.712H217.53C215.06 167.712 212.75 166.382 211.52 164.242L198.98 142.512C197.74 140.372 197.74 137.712 198.98 135.572L211.52 113.842C212.76 111.702 215.06 110.372 217.53 110.372H242.62ZM242.62 109.312H217.53C214.67 109.312 212.03 110.832 210.6 113.312L198.06 135.042C196.63 137.522 196.63 140.562 198.06 143.042L210.6 164.772C212.03 167.252 214.67 168.772 217.53 168.772H242.62C245.48 168.772 248.12 167.252 249.55 164.772L262.09 143.042C263.52 140.562 263.52 137.522 262.09 135.042L249.55 113.312C248.12 110.832 245.48 109.312 242.62 109.312Z" fill="url(#paint1_linear_244_9792)"/>
</g>
<g style="mix-blend-mode:screen" opacity="0.5">
<path d="M242.62 46.3522C245.09 46.3522 247.4 47.6822 248.63 49.8222L261.17 71.5522C262.41 73.6922 262.41 76.3522 261.17 78.4922L248.63 100.222C247.39 102.362 245.09 103.692 242.62 103.692H217.53C215.06 103.692 212.75 102.362 211.52 100.222L198.98 78.4922C197.74 76.3522 197.74 73.6922 198.98 71.5522L211.52 49.8222C212.76 47.6822 215.06 46.3522 217.53 46.3522H242.62ZM242.62 45.2922H217.53C214.67 45.2922 212.03 46.8122 210.6 49.2922L198.06 71.0222C196.63 73.5022 196.63 76.5422 198.06 79.0222L210.6 100.752C212.03 103.232 214.67 104.752 217.53 104.752H242.62C245.48 104.752 248.12 103.232 249.55 100.752L262.09 79.0222C263.52 76.5422 263.52 73.5022 262.09 71.0222L249.55 49.2922C248.12 46.8122 245.48 45.2922 242.62 45.2922Z" fill="url(#paint2_linear_244_9792)"/>
</g>
<path d="M59.13 194.622H99.33C102.19 194.622 104.83 193.102 106.26 190.622L126.36 155.812C127.79 153.332 127.79 150.292 126.36 147.812L106.26 112.992C104.83 110.512 102.19 108.992 99.33 108.992H59.13C56.27 108.992 53.63 110.512 52.2 112.992L32.1 147.812C30.67 150.292 30.67 153.332 32.1 155.812L52.2 190.622C53.63 193.102 56.27 194.622 59.13 194.622Z" fill="#0A4FC6"/>
<g style="mix-blend-mode:screen">
<path opacity="0.7" d="M79.3297 128.932C92.0097 128.982 102.15 139.212 102.11 151.912C102.06 164.582 91.8297 174.732 79.1297 174.692C66.4597 174.642 56.3097 164.412 56.3597 151.712C56.3997 139.042 66.6497 128.882 79.3397 128.932H79.3297ZM58.6697 153.012C58.9197 157.132 60.2297 160.732 62.5497 163.902C64.5197 162.882 66.3897 161.912 68.1197 161.022C67.5997 158.312 67.0897 155.672 66.5697 153.012H58.6697ZM95.8997 163.922C98.1997 160.682 99.5697 157.122 99.7597 153.032H92.1997C91.6597 155.782 91.1297 158.472 90.6097 161.152C92.2797 162.032 94.0297 162.942 95.9097 163.932L95.8997 163.922ZM62.2097 140.152C60.1197 143.312 58.8397 146.732 58.6897 150.582H66.5897C67.0497 148.052 67.4897 145.622 67.9297 143.192C66.0897 142.212 64.1997 141.212 62.2097 140.152ZM96.2097 140.152C94.2897 141.182 92.4597 142.162 90.7497 143.082C91.2197 145.602 91.6897 148.072 92.1597 150.592H99.7597C99.5797 146.712 98.3297 143.302 96.2197 140.152H96.2097ZM89.8597 153.062H80.4397V158.862C83.0797 159.322 85.6497 159.762 88.4497 160.252C88.9097 157.892 89.3797 155.512 89.8597 153.062ZM77.9797 158.882V153.042H68.8997C69.3797 155.522 69.8397 157.872 70.2897 160.172C72.9897 159.722 75.4397 159.302 77.9797 158.882ZM80.4697 145.422V150.592H89.8497C89.4097 148.272 88.9797 146.072 88.5797 143.992C85.7097 144.502 83.0997 144.962 80.4597 145.422H80.4697ZM68.9397 150.572H77.9997V145.412C75.3697 144.962 72.8397 144.532 70.0997 144.072C69.7197 146.212 69.3397 148.332 68.9397 150.572ZM87.6697 141.832C85.8897 137.712 83.5197 134.382 80.4697 131.322V143.102C82.8997 142.672 85.1997 142.262 87.6697 141.822V141.832ZM78.0197 131.442C75.0197 134.582 72.6997 137.842 71.0297 141.902C73.4397 142.312 75.6797 142.692 78.0197 143.092V131.442ZM80.4397 172.422C83.3897 169.412 85.7097 166.282 87.4297 162.382C84.9897 161.972 82.7397 161.602 80.4397 161.212V172.422ZM77.9897 172.102V161.202C75.7297 161.592 73.5897 161.952 71.2997 162.342C72.9897 166.122 75.1897 169.202 77.9897 172.102ZM74.2397 131.812C70.1397 132.852 66.6197 134.972 63.6397 138.342C65.4497 139.282 67.1197 140.152 68.5997 140.922C70.5697 137.732 72.4197 134.752 74.2497 131.802L74.2397 131.812ZM94.7997 138.322C91.8997 135.092 88.5397 132.952 84.4897 131.912C86.3597 134.912 88.1697 137.832 90.0597 140.852C91.5197 140.072 93.0997 139.222 94.7997 138.322ZM74.3397 171.842C72.5597 169.042 70.7697 166.212 68.8697 163.222C67.3797 163.992 65.7497 164.832 64.0097 165.732C67.0197 168.892 70.4297 170.902 74.3397 171.842ZM84.4897 171.742C88.3397 170.692 91.5897 168.742 94.4197 165.712C92.7597 164.862 91.2097 164.062 89.8097 163.342C87.9797 166.232 86.2697 168.932 84.4897 171.742Z" fill="white"/>
</g>
<g style="mix-blend-mode:screen" opacity="0.5">
<path d="M101.16 58.7422C102.82 58.7422 104.37 59.6422 105.21 61.0822L114.26 76.7622C115.09 78.2022 115.09 79.9922 114.26 81.4322L105.21 97.1122C104.38 98.5522 102.83 99.4522 101.16 99.4522H83.0499C81.3899 99.4522 79.8399 98.5522 78.9999 97.1122L69.9499 81.4322C69.1199 79.9922 69.1199 78.2022 69.9499 76.7622L78.9999 61.0822C79.8299 59.6422 81.3799 58.7422 83.0499 58.7422H101.16ZM101.16 57.9922H83.0499C81.1099 57.9922 79.3199 59.0222 78.3499 60.7022L69.2999 76.3822C68.3299 78.0622 68.3299 80.1222 69.2999 81.8022L78.3499 97.4822C79.3199 99.1622 81.1099 100.192 83.0499 100.192H101.16C103.1 100.192 104.89 99.1622 105.86 97.4822L114.91 81.8022C115.88 80.1222 115.88 78.0622 114.91 76.3822L105.86 60.7022C104.89 59.0222 103.1 57.9922 101.16 57.9922Z" fill="url(#paint3_linear_244_9792)"/>
</g>
<g style="mix-blend-mode:screen" opacity="0.5">
<path d="M96.5599 82.5522C96.5599 80.8622 95.6199 79.3522 94.1499 78.6022V76.8422C96.4999 77.6822 98.1799 79.9322 98.1799 82.5622C98.1799 85.9122 95.4599 88.6322 92.1099 88.6322C88.7599 88.6322 86.0399 85.9122 86.0399 82.5622C86.0399 79.9322 87.7199 77.6822 90.0699 76.8422V78.6022C88.6099 79.3522 87.6599 80.8622 87.6599 82.5522C87.6599 85.0022 89.6499 87.0022 92.0999 87.0022C94.5499 87.0022 96.5499 85.0022 96.5499 82.5522H96.5599ZM98.9299 73.5222H94.1599V75.8222C97.0499 76.7022 99.1599 79.3822 99.1599 82.5522C99.1599 86.4322 95.9999 89.5922 92.1199 89.5922C88.2399 89.5922 85.0799 86.4322 85.0799 82.5522C85.0799 79.3822 87.1899 76.6922 90.0799 75.8122V73.5122H85.3099C84.0799 73.5122 83.0899 74.5122 83.0899 75.7322V89.3522C83.0899 90.5822 84.0899 91.5822 85.3099 91.5822H98.9399C100.17 91.5822 101.16 90.5822 101.16 89.3522V75.7322C101.16 74.5022 100.16 73.5122 98.9399 73.5122L98.9299 73.5222ZM93.1899 79.2422V72.1222C95.1499 71.6422 96.6099 69.8722 96.6099 67.7622C96.6099 65.2822 94.5999 63.2722 92.1199 63.2722C89.6399 63.2722 87.6299 65.2822 87.6299 67.7622C87.6299 69.8722 89.0899 71.6322 91.0499 72.1222V79.2422C89.6499 79.6922 88.6399 81.0022 88.6399 82.5522C88.6399 84.4722 90.1999 86.0322 92.1199 86.0322C94.0399 86.0322 95.5999 84.4722 95.5999 82.5522C95.5999 81.0022 94.5899 79.6922 93.1899 79.2422Z" fill="url(#paint4_linear_244_9792)"/>
</g>
<path d="M177.605 100.241C177.934 100.98 177.688 101.718 177.113 102.292L173.586 105.491C173.668 106.148 173.668 106.886 173.668 107.542C173.668 108.281 173.668 109.019 173.586 109.675L177.113 112.874C177.688 113.366 177.934 114.187 177.605 114.925C177.277 115.909 176.867 116.812 176.375 117.714L175.965 118.37C175.391 119.273 174.816 120.175 174.16 120.913C173.668 121.57 172.848 121.734 172.109 121.488L167.598 120.093C166.449 120.913 165.219 121.57 163.988 122.144L162.922 126.82C162.758 127.558 162.184 128.132 161.445 128.296C160.297 128.46 159.148 128.542 157.918 128.542C156.77 128.542 155.621 128.46 154.473 128.296C153.734 128.132 153.16 127.558 152.996 126.82L151.93 122.144C150.617 121.57 149.469 120.913 148.32 120.093L143.809 121.488C143.07 121.734 142.25 121.57 141.758 120.995C141.102 120.175 140.527 119.273 139.953 118.37L139.543 117.714C139.051 116.812 138.641 115.909 138.312 114.925C137.984 114.187 138.23 113.448 138.805 112.874L142.332 109.675C142.25 109.019 142.25 108.281 142.25 107.542C142.25 106.886 142.25 106.148 142.332 105.491L138.805 102.292C138.23 101.718 137.984 100.98 138.312 100.241C138.641 99.2571 139.051 98.3547 139.543 97.4524L139.953 96.7961C140.527 95.8938 141.102 94.9915 141.758 94.1711C142.25 93.5969 143.07 93.4329 143.809 93.679L148.32 95.0735C149.469 94.2532 150.699 93.5149 151.93 93.0227L152.996 88.3469C153.16 87.6086 153.734 87.0344 154.473 86.8704C155.621 86.7063 156.77 86.5422 158 86.5422C159.148 86.5422 160.297 86.7063 161.445 86.8704C162.184 86.9524 162.758 87.6086 162.922 88.3469L163.988 93.0227C165.301 93.5149 166.449 94.2532 167.598 95.0735L172.109 93.679C172.848 93.4329 173.668 93.5969 174.16 94.1711C174.816 94.9915 175.391 95.8938 175.965 96.7961L176.375 97.4524C176.867 98.3547 177.277 99.2571 177.688 100.241H177.605ZM158 114.105C161.609 114.105 164.562 111.234 164.562 107.542C164.562 103.933 161.609 100.98 158 100.98C154.309 100.98 151.438 103.933 151.438 107.542C151.438 111.234 154.309 114.105 158 114.105Z" fill="#0A4FC6"/>
<g clip-path="url(#clip0_244_9792)">
<g style="mix-blend-mode:screen" opacity="0.5">
<path d="M842.231 22.5585C845.182 22.5585 847.942 24.1473 849.411 26.7037L864.391 52.6619C865.872 55.2183 865.872 58.3959 864.391 60.9523L849.411 86.9105C847.93 89.4669 845.182 91.0557 842.231 91.0557H812.259C809.309 91.0557 806.549 89.4669 805.08 86.9105L790.1 60.9523C788.619 58.3959 788.619 55.2183 790.1 52.6619L805.08 26.7037C806.561 24.1473 809.309 22.5585 812.259 22.5585H842.231ZM842.231 21.2922H812.259C808.843 21.2922 805.689 23.108 803.981 26.0706L789.001 52.0288C787.293 54.9913 787.293 58.6228 789.001 61.5854L803.981 87.5436C805.689 90.5062 808.843 92.3219 812.259 92.3219H842.231C845.648 92.3219 848.802 90.5062 850.51 87.5436L865.49 61.5854C867.198 58.6228 867.198 54.9913 865.49 52.0288L850.51 26.0706C848.802 23.108 845.648 21.2922 842.231 21.2922Z" fill="url(#paint5_linear_244_9792)"/>
</g>
<g style="mix-blend-mode:screen" opacity="0.2">
<path d="M908.351 61.6332C911.302 61.6332 914.062 63.222 915.531 65.7784L930.511 91.7366C931.992 94.293 931.992 97.4706 930.511 100.027L915.531 125.985C914.05 128.542 911.302 130.13 908.351 130.13H878.379C875.429 130.13 872.669 128.542 871.2 125.985L856.22 100.027C854.739 97.4706 854.739 94.293 856.22 91.7366L871.2 65.7784C872.681 63.222 875.429 61.6332 878.379 61.6332H908.351ZM908.351 60.3669H878.379C874.963 60.3669 871.809 62.1827 870.101 65.1453L855.121 91.1035C853.413 94.066 853.413 97.6976 855.121 100.66L870.101 126.618C871.809 129.581 874.963 131.397 878.379 131.397H908.351C911.768 131.397 914.922 129.581 916.63 126.618L931.61 100.66C933.318 97.6976 933.318 94.066 931.61 91.1035L916.63 65.1453C914.922 62.1827 911.768 60.3669 908.351 60.3669Z" fill="url(#paint6_linear_244_9792)"/>
</g>
<path d="M858.107 100.362H810.085C806.669 100.362 803.515 102.177 801.807 105.14L777.796 146.735C776.088 149.698 776.088 153.329 777.796 156.292L801.807 197.875C803.515 200.838 806.669 202.653 810.085 202.653H858.107C861.524 202.653 864.678 200.838 866.386 197.875L890.397 156.292C892.105 153.329 892.105 149.698 890.397 146.735L866.386 105.152C864.678 102.189 861.524 100.374 858.107 100.374V100.362Z" fill="#0B59DE"/>
<g style="mix-blend-mode:screen" opacity="0.4">
<path d="M827.717 43.2964H833.75L827.251 70.2939H821.243L827.717 43.2964ZM846.604 56.7951L836.975 43.2964H842.972L852.553 56.7951L842.972 70.2939H836.975L846.604 56.7951ZM817.516 70.2939H811.519L801.938 56.7951L811.519 43.2964H817.516L807.887 56.7951L817.516 70.2939Z" fill="white"/>
</g>
</g>
<path opacity="0.7" d="M839.269 127.443C837.657 127.443 836.044 127.682 834.431 128.195C829.665 129.688 826.26 132.794 824.003 137.238C823.835 137.131 823.692 137.035 823.549 136.951C821.996 135.972 820.419 135.482 818.818 135.482C817.409 135.482 815.987 135.876 814.566 136.665C811.818 138.194 810.349 140.643 809.99 143.749C809.954 144.035 809.859 144.155 809.608 144.262C806.562 145.481 804.28 147.547 802.811 150.498C802.106 151.92 801.76 153.449 801.592 155.014V156.614C801.616 156.71 801.64 156.805 801.652 156.889C801.76 158.346 802.106 159.744 802.751 161.034C805.104 165.729 808.915 168.285 814.183 168.309C819.989 168.333 825.807 168.345 831.612 168.345C838.6 168.345 845.589 168.345 852.577 168.345C853.365 168.345 854.154 168.345 854.942 168.345C856.603 168.345 858.18 168.011 859.697 167.342C864.654 165.144 867.485 159.732 866.291 154.44C865.252 149.853 862.277 147.046 857.785 145.779C857.308 145.648 856.806 145.576 856.316 145.469C856.854 137.334 851.347 130.465 844.561 128.303C842.793 127.741 841.025 127.443 839.258 127.443H839.269ZM824.994 141.419C825.341 140.511 825.639 139.591 826.034 138.731C828.112 134.252 831.541 131.361 836.379 130.381C837.466 130.166 838.529 130.047 839.556 130.047C843.391 130.047 846.807 131.564 849.71 134.515C852.075 136.916 853.377 139.854 853.7 143.211C853.831 144.597 853.7 145.971 853.509 147.332C853.485 147.476 853.473 147.619 853.449 147.798C853.807 147.798 854.154 147.798 854.488 147.798C854.68 147.798 854.883 147.798 855.074 147.798C858.908 147.846 862.205 150.223 863.472 153.843C864.702 157.367 863.531 161.405 860.629 163.734C858.956 165.072 857.057 165.729 854.918 165.729C847.536 165.729 840.153 165.729 832.771 165.729C826.523 165.729 820.276 165.729 814.028 165.729C809.07 165.729 804.854 161.918 804.256 157.02C803.647 151.967 806.884 147.285 811.818 146.078C812.463 145.923 812.463 145.911 812.427 145.242C812.32 143.247 812.869 141.491 814.267 140.033C815.473 138.767 817.206 138.098 818.95 138.098C820.132 138.098 821.327 138.409 822.342 139.042C823.214 139.58 823.859 140.356 824.576 141.049C824.696 141.168 824.827 141.276 824.958 141.395L824.994 141.419Z" fill="#CEDEF8"/>
<path d="M743.8 89.0122C744.71 89.0122 745.44 89.7522 745.44 90.6522C745.44 91.5522 744.7 92.2922 743.8 92.2922C742.9 92.2922 742.16 91.5522 742.16 90.6522C742.16 89.7522 742.9 89.0122 743.8 89.0122Z" fill="#CEDEF8"/>
<path d="M743.8 141.752C744.71 141.752 745.44 142.492 745.44 143.392C745.44 144.292 744.7 145.032 743.8 145.032C742.9 145.032 742.16 144.292 742.16 143.392C742.16 142.492 742.9 141.752 743.8 141.752Z" fill="#CEDEF8"/>
<path d="M743.8 115.382C744.71 115.382 745.44 116.122 745.44 117.022C745.44 117.922 744.7 118.662 743.8 118.662C742.9 118.662 742.16 117.922 742.16 117.022C742.16 116.122 742.9 115.382 743.8 115.382Z" fill="#CEDEF8"/>
<path d="M602.447 39.1598C604.353 39.1598 606.304 39.1945 608.233 39.2522C608.937 39.2753 609.503 39.8412 609.573 40.5919C609.665 41.6082 609.781 42.7053 609.908 43.7793C609.977 44.3221 610.381 44.9689 611.016 45.1652C612.91 45.7657 614.596 46.5049 616.167 47.4519L616.837 47.8561L617.46 47.371L618.304 46.7243C618.939 46.2277 619.562 45.7542 620.186 45.2691C620.509 45.0151 620.856 44.888 621.191 44.888C621.526 44.888 621.849 45.0266 622.138 45.3038C623.593 46.7127 625.071 48.2372 626.665 49.9348C627.104 50.3968 627.081 51.2052 626.619 51.7942C625.949 52.6603 625.256 53.4919 624.621 54.2541C623.986 55.0048 624.159 55.7208 624.401 56.1712C625.152 57.557 625.752 59.0815 626.191 60.7214C626.434 61.6453 627.104 61.9109 627.612 61.9571C628.524 62.061 629.46 62.1881 630.372 62.3036L630.811 62.3613C631.7 62.4884 632.185 63.0196 632.197 63.8858C632.197 65.2023 632.174 66.542 632.15 67.847L632.127 69.0019C632.127 69.5216 632.104 69.9373 632.07 70.3069C632 71.0806 631.296 71.4964 630.672 71.5541L629.598 71.6696C628.882 71.7389 628.155 71.8198 627.439 71.8775C626.711 71.9352 626.203 72.351 626.007 73.0439C625.556 74.603 624.886 76.1505 624.009 77.6519C623.639 78.2755 623.685 78.9338 624.136 79.4997C624.655 80.158 625.163 80.8163 625.672 81.4861L626.238 82.2252C626.803 82.9643 626.746 83.7265 626.087 84.3733C624.667 85.7591 623.246 87.145 621.826 88.5308C621.468 88.8773 621.087 89.0621 620.694 89.0621C620.348 89.0621 619.978 88.9119 619.62 88.6232L619.435 88.4731C618.673 87.861 617.876 87.2258 617.126 86.5791C616.987 86.4521 616.537 86.0825 615.901 86.0825C615.59 86.0825 615.289 86.1633 614.966 86.3366C613.569 87.0872 612.044 87.6878 610.416 88.1035C609.492 88.3345 609.226 89.0043 609.168 89.524C609.018 90.8406 608.857 91.9955 608.706 93.058C608.568 93.9588 608.106 94.3976 607.24 94.4092C606.801 94.4092 606.362 94.4092 605.923 94.4092C605.08 94.4092 604.237 94.3976 603.382 94.3861C602.84 94.3861 602.285 94.3745 601.743 94.363H601.65H601.465H601.292C601.154 94.363 601.027 94.363 600.888 94.3514C600.114 94.2706 599.583 93.7278 599.502 92.9309V92.827C599.375 91.6606 599.248 90.4826 599.144 89.3162C599.052 88.2652 598.266 87.9418 598.012 87.8264C596.58 87.2258 595.079 86.5675 593.578 85.8862C593.3 85.7591 593.046 85.7014 592.792 85.7014C592.411 85.7014 592.053 85.84 591.707 86.1056C591.014 86.6599 590.321 87.1912 589.628 87.734L588.958 88.2537C588.623 88.5193 588.254 88.6579 587.919 88.6579C587.411 88.6579 587.018 88.3576 586.775 88.1151C585.436 86.7408 584.096 85.378 582.768 83.9922C581.902 83.1029 581.879 82.4677 582.664 81.5092L582.964 81.1396C583.565 80.389 584.165 79.6498 584.777 78.9107C585.228 78.3679 585.32 77.7558 585.043 77.0976C584.431 75.654 583.842 74.1757 583.265 72.7437C582.999 72.0854 582.537 71.7158 581.867 71.635C580.943 71.531 580.031 71.404 579.107 71.277L578.044 71.1268C577.455 71.046 576.89 70.3993 576.901 69.7987C576.913 67.4659 576.947 65.3986 576.994 63.4815C577.017 62.6154 577.513 62.0841 578.402 61.9802C579.523 61.8532 580.643 61.7377 581.705 61.6453C582.71 61.5529 583.091 60.9062 583.241 60.3749C583.669 58.8043 584.292 57.303 585.078 55.894C585.447 55.2357 585.39 54.5774 584.928 53.9885C584.212 53.0761 583.484 52.1407 582.791 51.2052C582.352 50.6162 582.387 49.854 582.872 49.3574C584.408 47.7983 585.967 46.2854 587.48 44.8534C587.803 44.5531 588.161 44.4838 588.404 44.4838C588.727 44.4838 589.062 44.5993 589.339 44.8072C589.79 45.1536 590.24 45.5232 590.679 45.8812C591.106 46.2277 591.522 46.5741 591.949 46.9091C592.238 47.14 592.642 47.2671 593.023 47.2671C593.266 47.2671 593.497 47.2093 593.705 47.0938C595.46 46.1353 597.227 45.4308 599.098 44.9342L599.849 44.7379L599.953 43.9641L600.091 42.9363C600.195 42.1048 600.311 41.2848 600.414 40.4533C600.518 39.6564 601.084 39.1136 601.823 39.1136H602.47M604.618 77.9637C604.791 77.9637 604.976 77.9637 605.149 77.9522C608.302 77.802 611.189 76.4393 613.257 74.118C615.312 71.8082 616.317 68.8286 616.109 65.7336C615.694 59.7628 610.681 55.0856 604.711 55.0856C604.445 55.0856 604.168 55.0856 603.902 55.1087C600.853 55.3281 598.059 56.7371 596.037 59.093C594.04 61.4143 593.081 64.3362 593.312 67.3273C593.797 73.3788 598.659 77.9522 604.63 77.9522M652.349 64.8097C652.465 64.8097 652.592 64.8212 652.707 64.8443L652.857 64.8674C653.62 65.0175 654.382 65.1561 655.144 65.3063C655.964 65.4679 656.449 66.0916 656.391 66.9346C656.391 67.0501 656.368 67.1656 656.345 67.2926C656.276 67.7546 656.172 68.3898 656.472 68.9903C656.772 69.5793 657.327 69.8565 657.731 70.0528C657.846 70.1105 657.95 70.1567 658.054 70.226L658.112 70.2607C658.736 70.6764 659.313 71.0806 659.868 71.5079C659.995 71.6119 660.387 71.9122 660.942 71.9122C661.253 71.9122 661.542 71.8198 661.842 71.635C662.143 71.4502 662.466 71.2885 662.847 71.1153C663.078 71.0113 663.298 70.9536 663.529 70.9536C663.967 70.9536 664.36 71.1615 664.637 71.531C665.203 72.2817 665.723 73.0555 666.208 73.8292C666.6 74.4529 666.508 75.1227 665.942 75.6655C665.642 75.9658 665.295 76.2429 664.972 76.5086C664.591 76.8204 664.187 77.3632 664.395 78.2409C664.66 79.3727 664.868 80.3774 665.03 81.3129C665.157 82.0404 665.573 82.5139 666.277 82.7103C666.716 82.8373 667.143 82.9759 667.559 83.126C668.217 83.3685 668.587 83.9575 668.483 84.6389C668.356 85.5743 668.171 86.4867 667.986 87.3413C667.836 88.0804 667.27 88.5424 666.508 88.5424C666.45 88.5424 666.393 88.5424 666.335 88.5424C666.162 88.5308 665.977 88.5193 665.804 88.5077C665.584 88.5077 665.376 88.4846 665.168 88.4615C665.076 88.45 664.984 88.4384 664.903 88.4384C664.048 88.4384 663.667 89.0505 663.517 89.2815C662.847 90.3324 662.281 91.1755 661.738 91.9377C661.346 92.4921 661.288 93.058 661.577 93.6816C661.658 93.8548 661.738 94.0165 661.819 94.1897C662.062 94.6748 662.281 95.1483 662.397 95.5871C662.501 95.9567 662.489 96.4186 661.75 96.9499C660.918 97.5504 660.226 98.0124 659.59 98.4166C659.348 98.5667 659.071 98.6476 658.794 98.6476C658.412 98.6476 658.054 98.4974 657.789 98.2203C657.454 97.8738 657.142 97.5042 656.772 97.0538C656.426 96.6265 655.987 96.4186 655.479 96.4186C655.329 96.4186 655.179 96.4417 655.017 96.4764C654.393 96.615 653.77 96.742 653.146 96.8575C652.684 96.9499 652.222 97.0307 651.76 97.1347C651.218 97.2502 650.732 97.6544 650.536 98.151C650.398 98.5205 650.282 98.8901 650.178 99.2365C650.132 99.3867 650.086 99.5253 650.04 99.6754C649.809 100.38 649.312 100.773 648.631 100.773C648.515 100.773 648.4 100.773 648.284 100.738C647.453 100.588 646.61 100.426 645.778 100.264C645.027 100.114 644.6 99.5946 644.565 98.8092L644.589 98.405C644.612 98.0008 644.635 97.5851 644.669 97.1693C644.75 96.4533 644.473 95.899 643.849 95.5063C643.041 94.9981 642.221 94.4554 641.343 93.8317C641.02 93.6123 640.697 93.4968 640.362 93.4968C640.073 93.4968 639.796 93.5776 639.507 93.7393C639.207 93.9126 638.895 94.0627 638.595 94.2244L638.283 94.3861C638.006 94.5246 637.729 94.6055 637.474 94.6055C636.886 94.6055 636.493 94.2359 636.262 93.9241C635.742 93.2196 635.211 92.4805 634.737 91.7414C634.345 91.1178 634.46 90.3902 635.038 89.882C635.165 89.7666 635.303 89.6511 635.43 89.5471C635.719 89.3046 636.019 89.0505 636.308 88.7618C636.701 88.3807 636.897 87.734 636.782 87.2027C636.689 86.7292 636.585 86.2442 636.47 85.7707C636.366 85.2856 636.25 84.789 636.158 84.304C635.985 83.4263 635.407 83.0914 634.945 82.9643C634.449 82.8257 633.964 82.6756 633.479 82.5139C632.728 82.2714 632.347 81.6131 632.485 80.8509L632.578 80.3428C632.705 79.6729 632.82 79.0031 632.959 78.3333C633.074 77.7558 633.432 77.0744 634.426 77.0744C634.495 77.0744 634.564 77.0745 634.668 77.086C635.142 77.1322 635.615 77.1784 636.123 77.1784C636.712 77.1784 637.232 76.7973 637.474 76.4162C637.798 75.9311 638.11 75.4345 638.421 74.9379C638.699 74.4991 638.976 74.0602 639.253 73.6214C639.634 73.0324 639.657 72.4318 639.345 71.8429L639.288 71.7505C638.999 71.2192 638.722 70.7226 638.549 70.2145C638.375 69.6948 638.572 69.0943 639.045 68.7593C639.784 68.2281 640.57 67.6853 641.366 67.1656C641.597 67.0155 641.863 66.9346 642.129 66.9346C642.498 66.9346 642.845 67.0732 643.11 67.3388C643.422 67.6507 643.722 68.0087 644.034 68.3898C644.461 68.921 644.981 69.0365 645.328 69.0365C645.478 69.0365 645.639 69.0134 645.813 68.9788C647.048 68.6785 648.146 68.436 649.173 68.2396C649.924 68.0895 650.386 67.6622 650.559 66.9577C650.629 66.669 650.732 66.3803 650.836 66.0685L650.894 65.9068C651.125 65.2254 651.633 64.8328 652.303 64.8328M650.559 90.6558C650.721 90.6558 650.894 90.6558 651.067 90.6443C655.34 90.3902 658.701 86.7292 658.551 82.4908C658.401 78.1138 654.878 74.6839 650.536 74.6839C650.386 74.6839 650.247 74.6839 650.097 74.6954C647.984 74.8109 646.032 75.7463 644.6 77.3401C643.168 78.9454 642.44 81.0126 642.568 83.1491C642.822 87.4337 646.252 90.6558 650.559 90.6558ZM625.117 95.3446C625.914 95.3446 626.445 95.8066 626.596 96.6265L626.653 96.9268C626.769 97.5158 626.884 98.1279 627.023 98.7399C627.138 99.2365 627.577 99.814 628.201 99.9641C629.437 100.264 630.88 100.657 632.231 101.35C632.428 101.454 632.647 101.5 632.878 101.5C633.271 101.5 633.663 101.362 633.987 101.096C634.449 100.703 634.934 100.311 635.373 99.8255C635.615 99.5484 636.031 99.225 636.574 99.225C636.966 99.225 637.371 99.3982 637.763 99.7447C638.098 100.033 638.421 100.322 638.756 100.599C639.438 101.188 640.119 101.766 640.789 102.378C641.401 102.932 641.459 103.66 640.962 104.376L640.904 104.468C640.512 105.034 640.108 105.611 639.738 106.212C639.415 106.732 639.461 107.39 639.669 107.806C639.934 108.372 640.212 108.938 640.489 109.503C640.824 110.185 641.159 110.866 641.482 111.548C641.794 112.206 642.313 112.541 643.029 112.564C643.803 112.575 644.577 112.622 645.316 112.668C645.986 112.714 646.529 113.268 646.586 113.95C646.69 115.324 646.794 116.687 646.887 118.061C646.968 119.147 646.517 119.713 645.42 119.897C644.762 120.001 644.092 120.117 643.411 120.278C642.879 120.405 642.383 120.856 642.198 121.387C641.967 122.057 641.736 122.738 641.505 123.408C641.286 124.066 641.066 124.713 640.835 125.371C640.593 126.053 640.72 126.653 641.205 127.15C641.574 127.531 641.944 127.924 642.302 128.328L642.741 128.813C643.353 129.483 643.364 130.233 642.764 130.926L641.944 131.885C641.332 132.589 640.72 133.305 640.108 134.01C639.761 134.403 639.38 134.599 638.976 134.599C638.664 134.599 638.341 134.483 638.006 134.264L636.447 133.213L635.904 132.843L635.361 132.474L634.772 132.751L633.814 133.19C632.682 133.71 631.585 134.218 630.499 134.726C629.991 134.968 629.598 135.523 629.552 136.077C629.517 136.481 629.506 136.886 629.483 137.29C629.46 137.786 629.437 138.26 629.39 138.733C629.31 139.53 628.824 140.004 628.028 140.085C626.538 140.223 625.152 140.316 623.812 140.385H623.697C622.692 140.385 622.346 139.703 622.23 139.126C622.068 138.329 621.918 137.544 621.78 136.747C621.653 136.008 621.202 135.511 620.463 135.28C619.747 135.061 619.031 134.807 618.327 134.564C617.818 134.391 617.322 134.218 616.814 134.045C616.652 133.987 616.467 133.964 616.282 133.964C615.855 133.964 615.451 134.102 615.174 134.356C614.793 134.68 614.435 135.026 614.065 135.361C613.811 135.592 613.569 135.823 613.314 136.054C612.956 136.366 612.598 136.528 612.24 136.528C611.882 136.528 611.536 136.377 611.189 136.077C610.15 135.188 609.111 134.287 608.083 133.386C607.436 132.82 607.355 132.185 607.806 131.458C608.291 130.684 608.81 129.922 609.261 129.263C609.642 128.709 609.665 128.132 609.342 127.519C608.73 126.376 608.187 125.348 607.702 124.297C607.367 123.581 606.801 123.212 606.016 123.189H605.935C605.149 123.154 604.353 123.131 603.567 123.073C602.84 123.027 602.308 122.496 602.239 121.757C602.135 120.405 602.031 119.054 601.939 117.691C601.858 116.594 602.297 116.04 603.394 115.844C603.671 115.797 603.948 115.74 604.226 115.694C604.595 115.624 604.953 115.555 605.323 115.497C606.085 115.37 606.582 114.908 606.801 114.146C607.124 112.991 607.505 111.779 607.979 110.427C608.233 109.711 608.094 109.076 607.586 108.545C606.997 107.933 606.478 107.367 605.993 106.813C605.531 106.293 605.507 105.508 605.923 104.999C606.859 103.868 607.852 102.724 608.868 101.592C609.145 101.292 609.492 101.131 609.861 101.131C610.127 101.131 610.404 101.211 610.67 101.373C611.34 101.8 611.986 102.251 612.483 102.609C612.806 102.84 613.141 102.955 613.488 102.955C613.869 102.955 614.181 102.817 614.377 102.713C615.601 102.054 616.883 101.396 618.211 100.761C618.488 100.622 619.331 100.218 619.331 99.0633C619.331 98.4512 619.366 97.8391 619.401 97.1924V97.1116C619.447 96.3032 620.001 95.7373 620.81 95.6795C622.195 95.5756 623.581 95.4716 624.967 95.3793C625.013 95.3793 625.06 95.3793 625.117 95.3793M624.482 127.277C624.702 127.277 624.921 127.277 625.14 127.254C630.407 126.896 634.414 122.311 634.056 117.045C633.721 112.056 629.529 108.141 624.505 108.141C624.286 108.141 624.066 108.141 623.858 108.164C621.318 108.337 618.996 109.492 617.322 111.421C615.647 113.349 614.816 115.809 614.989 118.35C615.335 123.35 619.505 127.277 624.494 127.277M602.447 38.005C602.228 38.005 602.02 38.005 601.8 38.005C600.461 38.005 599.421 39.0097 599.248 40.3494C599.098 41.5158 598.948 42.6822 598.798 43.8602C596.8 44.3799 594.917 45.1421 593.139 46.1237C593.104 46.1468 593.058 46.1468 593.012 46.1468C592.885 46.1468 592.735 46.1006 592.654 46.0314C591.776 45.3384 590.921 44.6109 590.032 43.9295C589.547 43.5484 588.97 43.3636 588.392 43.3636C587.769 43.3636 587.168 43.583 586.683 44.045C585.112 45.5232 583.565 47.0361 582.052 48.5721C581.151 49.4844 581.093 50.8818 581.867 51.9212C582.572 52.8682 583.288 53.8152 584.027 54.7391C584.2 54.9586 584.223 55.1202 584.084 55.3628C583.241 56.8641 582.606 58.4463 582.144 60.0978C582.063 60.398 581.925 60.4904 581.625 60.5251C580.504 60.6175 579.396 60.7329 578.287 60.8715C576.832 61.0448 575.885 62.038 575.85 63.4931C575.792 65.6065 575.769 67.7199 575.758 69.8334C575.758 71.0229 576.751 72.1547 577.906 72.3048C579.188 72.478 580.47 72.6628 581.752 72.813C582.029 72.8476 582.121 72.9746 582.214 73.1941C582.803 74.6608 583.38 76.1274 583.992 77.571C584.108 77.8367 584.073 77.9868 583.9 78.1947C583.184 79.0608 582.479 79.927 581.775 80.8047C580.631 82.2137 580.689 83.5071 581.948 84.8121C583.276 86.198 584.627 87.5723 585.967 88.935C586.544 89.524 587.237 89.8243 587.942 89.8243C588.531 89.8243 589.143 89.6049 589.697 89.1776C590.621 88.4615 591.545 87.7571 592.457 87.0179C592.584 86.914 592.7 86.8678 592.815 86.8678C592.908 86.8678 593 86.8909 593.127 86.9487C594.605 87.6185 596.095 88.2768 597.597 88.9004C597.874 89.0159 598.001 89.1198 598.024 89.4201C598.128 90.6327 598.255 91.8453 598.382 93.058C598.52 94.3976 599.479 95.3793 600.796 95.5063C600.969 95.5294 601.142 95.5294 601.315 95.5294C601.431 95.5294 601.558 95.5294 601.673 95.5294C601.696 95.5294 601.731 95.5294 601.754 95.5294C603.152 95.5409 604.537 95.5756 605.935 95.5756C606.385 95.5756 606.824 95.5756 607.274 95.564C608.73 95.5409 609.653 94.6632 609.861 93.2312C610.035 92.0417 610.185 90.8637 610.323 89.6742C610.358 89.4085 610.45 89.3161 610.716 89.2469C612.391 88.8195 614.007 88.2075 615.532 87.376C615.682 87.2951 615.809 87.2605 615.924 87.2605C616.086 87.2605 616.225 87.3413 616.398 87.4799C617.229 88.1844 618.073 88.8657 618.927 89.5471C619.505 90.0091 620.117 90.24 620.717 90.24C621.399 90.24 622.068 89.9513 622.646 89.3854C624.066 87.9996 625.487 86.6137 626.907 85.2279C627.993 84.1654 628.085 82.7449 627.173 81.5438C626.468 80.6315 625.776 79.7076 625.06 78.8068C624.898 78.6104 624.909 78.4719 625.025 78.264C625.926 76.728 626.642 75.1112 627.138 73.3904C627.208 73.1594 627.323 73.067 627.566 73.0555C628.651 72.9631 629.737 72.8361 630.811 72.7321C632.07 72.6051 633.132 71.7043 633.248 70.4339C633.294 69.972 633.305 69.51 633.317 69.0481C633.34 67.3388 633.386 65.6296 633.375 63.9089C633.375 62.4537 632.439 61.4374 630.996 61.2411C629.922 61.0909 628.848 60.9408 627.762 60.8253C627.485 60.7907 627.392 60.6867 627.335 60.4327C626.896 58.7581 626.272 57.1528 625.441 55.6284C625.302 55.3628 625.36 55.2126 625.533 55.0048C626.226 54.1848 626.907 53.3533 627.566 52.5102C628.362 51.4824 628.386 50.0503 627.543 49.1495C626.053 47.5558 624.54 45.9967 622.981 44.4838C622.461 43.9757 621.849 43.7331 621.237 43.7331C620.659 43.7331 620.07 43.941 619.528 44.3568C618.627 45.0497 617.726 45.7426 616.791 46.4587C615.07 45.4308 613.268 44.657 611.386 44.0565C611.247 44.0103 611.097 43.7793 611.074 43.6292C610.947 42.5783 610.843 41.5273 610.739 40.4764C610.612 39.1714 609.607 38.132 608.291 38.0858C606.351 38.0281 604.41 37.9934 602.459 37.9934L602.447 38.005ZM604.595 76.855C599.387 76.855 594.883 72.8823 594.432 67.2926C593.982 61.6915 598.336 56.714 603.937 56.3213C604.179 56.2982 604.422 56.2982 604.664 56.2982C610 56.2982 614.539 60.4558 614.92 65.8721C615.324 71.6234 610.959 76.5779 605.069 76.855C604.907 76.855 604.745 76.855 604.595 76.855ZM652.315 63.7125C651.16 63.7125 650.201 64.4054 649.809 65.5834C649.682 65.9645 649.554 66.3456 649.451 66.7267C649.381 67.0039 649.254 67.0848 648.965 67.1425C647.822 67.3619 646.679 67.616 645.547 67.8932C645.466 67.9163 645.397 67.9278 645.328 67.9278C645.178 67.9278 645.05 67.8701 644.935 67.7084C644.612 67.3157 644.288 66.9115 643.919 66.5535C643.422 66.0685 642.775 65.8259 642.129 65.8259C641.644 65.8259 641.159 65.9645 640.731 66.2417C639.923 66.7614 639.137 67.3042 638.352 67.8701C637.486 68.5053 637.093 69.6255 637.44 70.6418C637.659 71.2654 637.983 71.866 638.306 72.4549C638.433 72.6975 638.398 72.8476 638.26 73.0439C637.659 73.9678 637.082 74.9033 636.481 75.8272C636.4 75.9427 636.227 76.0582 636.1 76.0582C635.638 76.0582 635.176 76.012 634.714 75.9658C634.61 75.9658 634.506 75.9542 634.403 75.9542C633.074 75.9542 632.081 76.7626 631.804 78.1369C631.631 78.98 631.481 79.8346 631.331 80.6777C631.088 82.0058 631.816 83.2184 633.097 83.6457C633.594 83.8074 634.102 83.9691 634.61 84.1192C634.853 84.1885 634.957 84.304 635.003 84.5696C635.188 85.5397 635.43 86.4982 635.627 87.4683C635.661 87.63 635.58 87.8726 635.465 87.988C635.084 88.3692 634.657 88.7041 634.241 89.0736C633.259 89.9513 633.028 91.3141 633.733 92.4228C634.218 93.1965 634.761 93.9241 635.292 94.6632C635.846 95.4255 636.608 95.8181 637.428 95.8181C637.867 95.8181 638.329 95.7026 638.768 95.4716C639.195 95.2522 639.623 95.0443 640.038 94.8018C640.142 94.7441 640.235 94.7094 640.315 94.7094C640.419 94.7094 640.512 94.7556 640.639 94.8365C641.47 95.4255 642.325 95.9913 643.191 96.5341C643.434 96.6843 643.514 96.8113 643.48 97.1C643.411 97.7237 643.399 98.3473 643.364 98.8554C643.411 100.218 644.231 101.188 645.501 101.454C646.344 101.627 647.187 101.789 648.042 101.939C648.226 101.974 648.411 101.985 648.584 101.985C649.762 101.985 650.709 101.281 651.09 100.08C651.241 99.5946 651.379 99.098 651.564 98.6245C651.61 98.4859 651.807 98.3473 651.945 98.3242C653.042 98.0932 654.139 97.9084 655.225 97.6659C655.306 97.6428 655.364 97.6428 655.421 97.6428C655.583 97.6428 655.698 97.7121 655.825 97.8622C656.172 98.278 656.53 98.6938 656.899 99.0864C657.396 99.6061 658.066 99.8717 658.736 99.8717C659.221 99.8717 659.717 99.7331 660.145 99.456C660.895 98.9825 661.635 98.4628 662.362 97.9431C663.251 97.3079 663.736 96.4417 663.459 95.3446C663.263 94.617 662.882 93.9357 662.57 93.2543C662.466 93.0233 662.466 92.8847 662.616 92.6653C663.24 91.776 663.84 90.8752 664.418 89.9513C664.533 89.7665 664.626 89.6511 664.822 89.6511C664.857 89.6511 664.88 89.6511 664.926 89.6511C665.33 89.7088 665.757 89.7088 666.173 89.7435C666.266 89.7435 666.358 89.755 666.45 89.755C667.744 89.755 668.795 88.9235 669.06 87.6416C669.257 86.7177 669.43 85.7938 669.569 84.8583C669.742 83.6342 669.06 82.5255 667.894 82.0982C667.444 81.9365 666.982 81.7863 666.52 81.6593C666.266 81.59 666.15 81.4745 666.104 81.1858C665.919 80.1349 665.7 79.0839 665.457 78.0445C665.399 77.7789 665.446 77.6403 665.642 77.4787C666 77.1899 666.358 76.8897 666.693 76.5663C667.64 75.654 667.825 74.3836 667.132 73.2865C666.624 72.478 666.081 71.6812 665.503 70.9074C664.995 70.226 664.245 69.8565 663.459 69.8565C663.067 69.8565 662.662 69.9489 662.281 70.1336C661.912 70.3069 661.531 70.4917 661.173 70.7111C661.057 70.7804 660.965 70.815 660.872 70.815C660.757 70.815 660.653 70.7573 660.514 70.6533C659.914 70.1798 659.279 69.7525 658.643 69.3137C658.239 69.0365 657.639 68.8864 657.454 68.5168C657.258 68.1357 657.454 67.5583 657.5 67.0617C657.592 65.6412 656.715 64.5094 655.317 64.2322C654.497 64.0705 653.689 63.9204 652.869 63.7587C652.673 63.7241 652.476 63.701 652.292 63.701L652.315 63.7125ZM650.571 89.5356C646.933 89.5356 643.953 86.7754 643.734 83.1145C643.514 79.3611 646.413 76.0813 650.167 75.8849C650.294 75.8849 650.421 75.8849 650.548 75.8849C654.405 75.8849 657.292 79.0031 657.408 82.5717C657.523 86.1171 654.671 89.3161 650.998 89.5356C650.848 89.5356 650.709 89.5471 650.559 89.5471L650.571 89.5356ZM625.129 94.2244C625.06 94.2244 624.979 94.2244 624.909 94.2244C623.524 94.3168 622.126 94.4207 620.74 94.5246C619.343 94.6286 618.338 95.6564 618.269 97.0538C618.234 97.7237 618.2 98.3935 618.2 99.0633C618.2 99.4213 618.049 99.5715 617.726 99.7216C616.421 100.357 615.128 101.015 613.846 101.696C613.719 101.766 613.603 101.8 613.511 101.8C613.407 101.8 613.303 101.754 613.176 101.673C612.564 101.234 611.94 100.807 611.305 100.403C610.855 100.114 610.37 99.9757 609.884 99.9757C609.203 99.9757 608.533 100.264 608.025 100.819C607.009 101.939 606.004 103.094 605.046 104.26C604.249 105.219 604.306 106.628 605.126 107.575C605.658 108.175 606.2 108.764 606.743 109.342C606.951 109.561 606.986 109.746 606.882 110.058C606.443 111.305 606.039 112.575 605.681 113.846C605.588 114.192 605.438 114.319 605.126 114.365C604.48 114.469 603.833 114.596 603.186 114.712C601.5 115.012 600.657 116.086 600.784 117.784C600.876 119.147 600.98 120.498 601.084 121.849C601.188 123.154 602.17 124.136 603.486 124.228C604.318 124.286 605.149 124.309 605.981 124.344C606.304 124.355 606.501 124.448 606.662 124.794C607.182 125.903 607.759 126.988 608.337 128.074C608.452 128.293 608.464 128.42 608.337 128.617C607.829 129.356 607.332 130.095 606.859 130.857C606.096 132.07 606.281 133.329 607.344 134.264C608.372 135.176 609.411 136.077 610.462 136.966C611.028 137.451 611.651 137.694 612.263 137.694C612.876 137.694 613.534 137.44 614.111 136.92C614.735 136.366 615.324 135.777 615.948 135.234C616.028 135.165 616.179 135.13 616.306 135.13C616.363 135.13 616.421 135.13 616.467 135.153C617.691 135.557 618.904 136.019 620.14 136.389C620.475 136.493 620.602 136.643 620.659 136.955C620.798 137.763 620.948 138.56 621.11 139.357C621.375 140.72 622.357 141.551 623.708 141.551C623.766 141.551 623.824 141.551 623.87 141.551C625.291 141.482 626.711 141.378 628.132 141.251C629.471 141.135 630.407 140.223 630.545 138.872C630.638 137.983 630.638 137.082 630.707 136.193C630.718 136.042 630.869 135.858 630.996 135.788C632.381 135.13 633.767 134.495 635.257 133.814C635.869 134.229 636.608 134.726 637.359 135.234C637.89 135.592 638.433 135.765 638.976 135.765C639.703 135.765 640.408 135.43 640.974 134.784C641.875 133.767 642.752 132.728 643.642 131.7C644.623 130.568 644.6 129.159 643.595 128.062C643.076 127.496 642.567 126.919 642.036 126.365C641.84 126.168 641.851 126.03 641.932 125.787C642.394 124.459 642.822 123.131 643.295 121.803C643.353 121.653 643.526 121.468 643.688 121.433C644.323 121.283 644.97 121.179 645.616 121.064C647.291 120.787 648.157 119.689 648.042 118.015C647.949 116.641 647.845 115.266 647.741 113.892C647.637 112.645 646.656 111.64 645.408 111.548C644.623 111.49 643.849 111.455 643.064 111.432C642.787 111.432 642.66 111.34 642.533 111.086C641.944 109.827 641.309 108.591 640.72 107.344C640.65 107.205 640.65 106.974 640.72 106.859C641.101 106.247 641.517 105.658 641.921 105.069C642.741 103.891 642.625 102.516 641.574 101.558C640.581 100.657 639.553 99.7909 638.537 98.9132C637.902 98.3588 637.232 98.1163 636.585 98.1163C635.823 98.1163 635.095 98.4628 634.53 99.0864C634.137 99.5253 633.675 99.9064 633.225 100.276C633.155 100.334 633.017 100.38 632.901 100.38C632.855 100.38 632.809 100.38 632.774 100.357C631.411 99.6523 629.956 99.225 628.478 98.867C628.351 98.8323 628.189 98.6476 628.155 98.4974C627.993 97.816 627.866 97.1231 627.739 96.4302C627.473 95.0674 626.468 94.2128 625.117 94.2128L625.129 94.2244ZM624.494 126.122C620.14 126.122 616.456 122.715 616.144 118.269C615.821 113.661 619.331 109.63 623.951 109.319C624.147 109.307 624.332 109.296 624.528 109.296C628.882 109.296 632.636 112.726 632.924 117.114C633.236 121.757 629.725 125.776 625.083 126.087C624.886 126.099 624.702 126.111 624.505 126.111L624.494 126.122Z" fill="url(#paint7_linear_244_9792)"/>
<path d="M402.205 69.9352H402.852C403.591 69.9352 404.157 70.478 404.261 71.2748C404.365 72.0717 404.469 72.8801 404.573 73.677L404.723 74.7857L404.827 75.5594L405.577 75.7558C407.46 76.2408 409.227 76.9568 410.971 77.9154C411.178 78.0309 411.398 78.0886 411.652 78.0886C412.033 78.0886 412.437 77.95 412.726 77.7306C413.153 77.3957 413.581 77.0492 413.996 76.7028C414.447 76.3447 414.886 75.9752 415.336 75.6287C415.613 75.4208 415.936 75.3054 416.271 75.3054C416.514 75.3054 416.872 75.3746 417.195 75.6749C418.708 77.0954 420.256 78.6083 421.803 80.1789C422.288 80.6755 422.323 81.4378 421.884 82.0267C421.18 82.9737 420.464 83.9092 419.748 84.81C419.274 85.399 419.228 86.0573 419.597 86.7155C420.383 88.1129 420.995 89.6258 421.434 91.1965C421.584 91.7277 421.965 92.3744 422.97 92.4668C424.044 92.5592 425.152 92.6747 426.273 92.8017C427.162 92.9057 427.658 93.4369 427.682 94.3031C427.728 96.2202 427.762 98.2874 427.774 100.62C427.774 101.221 427.22 101.868 426.631 101.948L425.557 102.099C424.644 102.226 423.72 102.353 422.808 102.457C422.138 102.537 421.676 102.907 421.411 103.565C420.845 104.997 420.256 106.475 419.632 107.919C419.355 108.577 419.436 109.189 419.898 109.732C420.51 110.471 421.11 111.222 421.722 111.961L422.011 112.319C422.796 113.278 422.762 113.913 421.907 114.802C420.579 116.176 419.239 117.551 417.9 118.925C417.657 119.179 417.253 119.468 416.756 119.468C416.41 119.468 416.052 119.329 415.717 119.064L415.059 118.556C414.366 118.013 413.661 117.481 412.968 116.927C412.622 116.65 412.276 116.523 411.883 116.523C411.629 116.523 411.375 116.581 411.098 116.708C409.585 117.401 408.095 118.047 406.663 118.648C406.409 118.752 405.623 119.087 405.531 120.138C405.427 121.304 405.312 122.482 405.185 123.649V123.752C405.092 124.549 404.561 125.092 403.787 125.173C403.66 125.185 403.522 125.184 403.383 125.184H403.21H403.025H402.933C402.39 125.184 401.835 125.196 401.293 125.208C400.45 125.219 399.607 125.231 398.752 125.231C398.313 125.231 397.874 125.231 397.435 125.231C396.569 125.219 396.107 124.78 395.969 123.879C395.819 122.829 395.657 121.674 395.507 120.346C395.449 119.826 395.183 119.168 394.259 118.925C392.631 118.509 391.107 117.909 389.709 117.158C389.386 116.985 389.086 116.904 388.774 116.904C388.139 116.904 387.7 117.274 387.55 117.401C386.799 118.047 386.002 118.671 385.24 119.295L385.044 119.445C384.686 119.733 384.328 119.884 383.969 119.884C383.588 119.884 383.207 119.71 382.838 119.352C381.417 117.967 379.997 116.592 378.576 115.195C377.906 114.548 377.86 113.774 378.426 113.047L379.004 112.296C379.512 111.638 380.008 110.98 380.528 110.321C380.978 109.755 381.013 109.109 380.655 108.473C379.777 106.972 379.107 105.425 378.657 103.865C378.461 103.173 377.941 102.757 377.225 102.699C376.509 102.641 375.793 102.56 375.077 102.491L374.003 102.376C373.379 102.318 372.663 101.891 372.606 101.128C372.571 100.759 372.548 100.343 372.548 99.8234L372.525 98.6685C372.502 97.3751 372.478 96.0238 372.478 94.7188C372.478 93.8527 372.975 93.3099 373.864 93.1944L374.303 93.1367C375.204 93.0096 376.139 92.8826 377.063 92.7902C377.583 92.7325 378.241 92.4784 378.484 91.5545C378.923 89.9261 379.523 88.3901 380.274 87.0043C380.528 86.5423 380.69 85.8378 380.054 85.0872C379.408 84.3134 378.715 83.4819 378.057 82.6273C377.595 82.0383 377.571 81.2299 378.01 80.7679C379.604 79.0702 381.082 77.5458 382.537 76.1369C382.826 75.8597 383.138 75.7211 383.484 75.7211C383.831 75.7211 384.166 75.8481 384.489 76.1022C385.113 76.5757 385.736 77.0608 386.36 77.5458L387.215 78.2041L387.838 78.6891L388.508 78.2849C390.079 77.3379 391.765 76.5988 393.659 75.9983C394.294 75.8019 394.698 75.1437 394.768 74.6124C394.906 73.5384 395.01 72.4413 395.103 71.425C395.172 70.6743 395.738 70.1084 396.442 70.0853C398.371 70.0276 400.323 69.9929 402.228 69.9929M400.08 108.843C406.039 108.843 410.901 104.281 411.398 98.2181C411.64 95.227 410.67 92.3051 408.672 89.9838C406.651 87.6279 403.856 86.2189 400.808 85.9995C400.53 85.9764 400.265 85.9764 399.999 85.9764C394.028 85.9764 389.016 90.6537 388.601 96.6244C388.381 99.7195 389.397 102.699 391.453 105.009C393.52 107.33 396.396 108.693 399.56 108.843C399.734 108.843 399.918 108.855 400.092 108.855M352.372 95.712C353.042 95.712 353.55 96.1047 353.781 96.7861L353.839 96.9478C353.943 97.2596 354.047 97.5598 354.116 97.837C354.289 98.5415 354.751 98.9688 355.502 99.1189C356.53 99.3153 357.627 99.5578 358.862 99.858C359.036 99.9042 359.197 99.9158 359.359 99.9158C359.717 99.9158 360.225 99.8003 360.653 99.2691C360.953 98.8879 361.253 98.5299 361.576 98.2181C361.842 97.964 362.189 97.8139 362.558 97.8139C362.835 97.8139 363.089 97.8948 363.32 98.0449C364.129 98.5646 364.902 99.0958 365.642 99.6386C366.115 99.9851 366.323 100.574 366.138 101.094C365.965 101.59 365.688 102.099 365.399 102.63L365.341 102.722C365.018 103.311 365.053 103.912 365.434 104.501C365.711 104.94 365.988 105.378 366.265 105.817C366.577 106.314 366.889 106.799 367.212 107.295C367.455 107.677 367.974 108.058 368.563 108.058C369.072 108.058 369.557 108.011 370.053 107.965C370.123 107.965 370.192 107.965 370.261 107.965C371.266 107.965 371.612 108.647 371.728 109.224C371.866 109.894 371.993 110.564 372.109 111.245L372.201 111.742C372.34 112.504 371.947 113.162 371.208 113.405C370.723 113.566 370.238 113.717 369.741 113.855C369.279 113.982 368.69 114.317 368.529 115.195C368.436 115.691 368.321 116.176 368.217 116.662C368.113 117.135 368.009 117.609 367.905 118.094C367.801 118.625 367.998 119.272 368.39 119.653C368.679 119.941 368.979 120.195 369.268 120.438C369.395 120.553 369.534 120.657 369.661 120.773C370.238 121.281 370.353 122.009 369.961 122.632C369.487 123.371 368.956 124.11 368.436 124.815C368.217 125.127 367.824 125.496 367.235 125.496C366.97 125.496 366.704 125.427 366.427 125.277L366.115 125.115C365.803 124.954 365.503 124.803 365.203 124.63C364.914 124.468 364.637 124.388 364.348 124.388C364.002 124.388 363.678 124.492 363.366 124.723C362.489 125.335 361.68 125.877 360.86 126.386C360.237 126.778 359.96 127.344 360.04 128.049C360.087 128.453 360.11 128.88 360.121 129.284L360.144 129.689C360.11 130.474 359.671 130.994 358.932 131.144C358.1 131.317 357.269 131.479 356.426 131.617C356.31 131.64 356.195 131.652 356.079 131.652C355.398 131.652 354.901 131.259 354.67 130.555C354.624 130.416 354.578 130.266 354.532 130.116C354.428 129.758 354.312 129.4 354.174 129.019C353.977 128.522 353.492 128.118 352.949 128.002C352.488 127.91 352.026 127.818 351.564 127.725C350.94 127.61 350.316 127.483 349.693 127.344C349.531 127.309 349.381 127.286 349.231 127.286C348.723 127.286 348.295 127.506 347.937 127.922C347.637 128.291 347.279 128.707 346.921 129.088C346.655 129.365 346.297 129.515 345.916 129.515C345.639 129.515 345.362 129.434 345.119 129.284C344.484 128.88 343.803 128.418 342.96 127.818C342.209 127.286 342.209 126.824 342.313 126.455C342.429 126.004 342.66 125.543 342.891 125.057C342.971 124.896 343.052 124.723 343.133 124.561C343.422 123.937 343.376 123.371 342.971 122.817C342.429 122.055 341.863 121.212 341.193 120.161C341.043 119.93 340.662 119.318 339.807 119.318C339.726 119.318 339.634 119.318 339.541 119.341C339.333 119.375 339.114 119.387 338.906 119.387C338.721 119.387 338.548 119.41 338.375 119.422C338.317 119.422 338.259 119.422 338.202 119.422C337.439 119.422 336.874 118.96 336.723 118.221C336.55 117.366 336.365 116.442 336.227 115.518C336.134 114.837 336.492 114.248 337.151 114.005C337.555 113.855 337.994 113.717 338.433 113.59C339.137 113.393 339.553 112.931 339.68 112.204C339.842 111.268 340.05 110.263 340.315 109.132C340.523 108.254 340.107 107.711 339.738 107.399C339.414 107.134 339.068 106.857 338.768 106.556C338.213 106.014 338.109 105.344 338.502 104.72C338.987 103.946 339.518 103.173 340.073 102.422C340.35 102.052 340.742 101.844 341.181 101.844C341.412 101.844 341.643 101.902 341.863 102.006C342.232 102.179 342.567 102.341 342.867 102.526C343.168 102.711 343.468 102.803 343.768 102.803C344.323 102.803 344.715 102.503 344.842 102.399C345.397 101.96 345.974 101.567 346.586 101.152L346.644 101.105C346.736 101.036 346.852 100.99 346.967 100.932C347.371 100.736 347.926 100.459 348.226 99.8696C348.526 99.2691 348.422 98.6339 348.353 98.1719C348.33 98.0564 348.318 97.9294 348.307 97.8139C348.249 96.9708 348.734 96.3472 349.566 96.1855C350.316 96.0354 351.067 95.8968 351.818 95.7582L352.002 95.7236C352.13 95.7005 352.245 95.6889 352.361 95.6889M354.104 121.512C358.401 121.512 361.842 118.278 362.096 114.005C362.223 111.869 361.507 109.813 360.064 108.196C358.631 106.603 356.691 105.656 354.566 105.552C354.416 105.552 354.266 105.54 354.127 105.54C349.774 105.54 346.263 108.97 346.113 113.347C345.974 117.585 349.335 121.246 353.596 121.5C353.769 121.5 353.931 121.512 354.104 121.512ZM379.546 126.201C379.546 126.201 379.639 126.201 379.696 126.201C381.082 126.293 382.468 126.397 383.854 126.501C384.662 126.559 385.217 127.125 385.263 127.933V128.014C385.298 128.661 385.332 129.273 385.332 129.885C385.332 131.051 386.175 131.455 386.452 131.594C387.769 132.229 389.063 132.888 390.287 133.546C390.483 133.65 390.783 133.788 391.176 133.788C391.522 133.788 391.857 133.673 392.181 133.442C392.666 133.095 393.324 132.633 393.994 132.206C394.248 132.044 394.525 131.964 394.802 131.964C395.183 131.964 395.53 132.125 395.795 132.426C396.823 133.557 397.816 134.701 398.74 135.832C399.168 136.341 399.133 137.126 398.671 137.646C398.186 138.2 397.666 138.766 397.077 139.378C396.569 139.909 396.442 140.544 396.685 141.26C397.158 142.612 397.539 143.836 397.863 144.979C398.082 145.753 398.567 146.203 399.341 146.33C399.71 146.388 400.08 146.457 400.438 146.527C400.715 146.573 400.992 146.631 401.27 146.677C402.367 146.873 402.806 147.427 402.725 148.525C402.632 149.876 402.528 151.227 402.424 152.59C402.367 153.329 401.835 153.86 401.096 153.906C400.311 153.964 399.514 153.987 398.729 154.01H398.648C397.863 154.045 397.297 154.414 396.962 155.13C396.477 156.181 395.934 157.209 395.322 158.353C394.999 158.965 395.022 159.554 395.391 160.096C395.946 160.905 396.408 161.598 396.846 162.291C397.308 163.018 397.216 163.653 396.569 164.219C395.541 165.12 394.502 166.021 393.463 166.91C393.116 167.21 392.758 167.361 392.412 167.361C392.065 167.361 391.696 167.199 391.338 166.887C391.084 166.656 390.829 166.425 390.587 166.194C390.217 165.859 389.859 165.513 389.478 165.189C389.19 164.947 388.785 164.808 388.37 164.808C388.185 164.808 388.012 164.831 387.838 164.889C387.33 165.051 386.834 165.236 386.325 165.409C385.621 165.651 384.893 165.905 384.189 166.125C383.438 166.356 382.999 166.852 382.872 167.592C382.734 168.388 382.584 169.174 382.422 169.971C382.306 170.548 381.96 171.241 380.955 171.241H380.84C379.5 171.172 378.114 171.079 376.624 170.941C375.828 170.871 375.343 170.386 375.262 169.59C375.216 169.128 375.192 168.654 375.169 168.146C375.146 167.742 375.135 167.338 375.1 166.933C375.054 166.379 374.661 165.825 374.153 165.582C373.067 165.062 371.982 164.566 370.85 164.046L369.892 163.607L369.303 163.33L368.76 163.7L368.136 164.127L366.669 165.12C366.335 165.34 366.011 165.455 365.699 165.455C365.295 165.455 364.914 165.259 364.568 164.866C363.944 164.162 363.332 163.446 362.731 162.741L361.911 161.783C361.311 161.09 361.322 160.339 361.934 159.669L362.385 159.173C362.743 158.78 363.101 158.376 363.47 157.995C363.955 157.498 364.071 156.909 363.84 156.216C363.609 155.569 363.39 154.911 363.17 154.253C362.939 153.571 362.72 152.902 362.477 152.232C362.292 151.7 361.796 151.239 361.265 151.123C360.583 150.961 359.913 150.846 359.255 150.742C358.17 150.557 357.719 149.991 357.788 148.906C357.881 147.531 357.985 146.169 358.089 144.794C358.146 144.113 358.689 143.559 359.359 143.512C360.098 143.455 360.872 143.42 361.646 143.408C362.362 143.397 362.881 143.05 363.193 142.392C363.517 141.711 363.852 141.029 364.186 140.348C364.464 139.782 364.741 139.216 365.018 138.65C365.214 138.235 365.272 137.576 364.949 137.057C364.568 136.456 364.163 135.867 363.771 135.313L363.713 135.22C363.216 134.504 363.286 133.777 363.886 133.222C364.544 132.622 365.226 132.033 365.907 131.455C366.242 131.167 366.577 130.878 366.9 130.589C367.293 130.243 367.697 130.07 368.09 130.07C368.633 130.07 369.037 130.393 369.291 130.67C369.73 131.144 370.203 131.548 370.712 131.975C370.989 132.206 371.393 132.345 371.774 132.345C372.005 132.345 372.224 132.299 372.421 132.195C373.783 131.502 375.227 131.097 376.451 130.809C377.075 130.659 377.514 130.081 377.629 129.585C377.768 128.972 377.895 128.36 377.999 127.771L378.057 127.471C378.218 126.64 378.738 126.189 379.535 126.189M380.17 158.087C385.147 158.087 389.328 154.172 389.675 149.16C389.848 146.619 389.028 144.159 387.342 142.23C385.667 140.302 383.334 139.147 380.805 138.974C380.586 138.962 380.366 138.951 380.158 138.951C375.135 138.951 370.942 142.866 370.608 147.855C370.261 153.121 374.257 157.694 379.523 158.064C379.743 158.075 379.962 158.087 380.181 158.087M402.228 68.8149C400.288 68.8149 398.348 68.8496 396.408 68.9073C395.091 68.9535 394.075 69.9929 393.959 71.2979C393.855 72.3489 393.751 73.3998 393.624 74.4507C393.601 74.6124 393.451 74.8434 393.312 74.878C391.43 75.467 389.628 76.2408 387.908 77.2802C386.972 76.5642 386.071 75.8597 385.171 75.1783C384.639 74.7741 384.05 74.5547 383.461 74.5547C382.838 74.5547 382.226 74.7972 381.717 75.3054C380.158 76.8298 378.646 78.3889 377.156 79.9711C376.313 80.8719 376.336 82.3039 377.133 83.3317C377.791 84.1748 378.472 85.0063 379.165 85.8263C379.338 86.0342 379.396 86.1958 379.258 86.4499C378.426 87.9744 377.814 89.5796 377.364 91.2542C377.294 91.5083 377.213 91.6122 376.936 91.6469C375.862 91.7624 374.788 91.9125 373.703 92.0626C372.259 92.259 371.324 93.2752 371.324 94.7304C371.324 96.4396 371.358 98.1488 371.381 99.8696C371.381 100.332 371.404 100.793 371.451 101.255C371.566 102.526 372.64 103.427 373.887 103.554C374.973 103.658 376.047 103.785 377.133 103.877C377.375 103.9 377.491 103.981 377.56 104.212C378.057 105.921 378.773 107.55 379.673 109.086C379.8 109.293 379.8 109.432 379.639 109.628C378.923 110.529 378.23 111.453 377.525 112.365C376.613 113.555 376.705 114.987 377.791 116.049C379.211 117.435 380.632 118.821 382.052 120.207C382.641 120.773 383.311 121.062 383.981 121.062C384.582 121.062 385.205 120.831 385.771 120.369C386.626 119.687 387.469 119.006 388.3 118.301C388.474 118.151 388.612 118.082 388.774 118.082C388.889 118.082 389.016 118.117 389.166 118.197C390.691 119.017 392.308 119.63 393.982 120.068C394.248 120.138 394.34 120.23 394.375 120.496C394.514 121.685 394.664 122.875 394.837 124.053C395.045 125.485 395.969 126.362 397.424 126.386C397.874 126.386 398.313 126.397 398.763 126.397C400.161 126.397 401.547 126.362 402.944 126.351C402.967 126.351 403.002 126.351 403.025 126.351C403.14 126.351 403.267 126.351 403.383 126.351C403.556 126.351 403.729 126.351 403.903 126.328C405.219 126.189 406.178 125.219 406.316 123.879C406.443 122.667 406.57 121.454 406.674 120.242C406.697 119.941 406.825 119.837 407.102 119.722C408.603 119.098 410.093 118.44 411.571 117.77C411.687 117.712 411.79 117.689 411.883 117.689C412.01 117.689 412.114 117.736 412.241 117.839C413.153 118.567 414.077 119.283 415.001 119.988C415.555 120.415 416.156 120.634 416.756 120.634C417.461 120.634 418.142 120.334 418.731 119.745C420.071 118.371 421.422 116.996 422.75 115.622C424.021 114.306 424.067 113.024 422.924 111.615C422.219 110.749 421.515 109.871 420.799 109.005C420.625 108.797 420.591 108.647 420.706 108.381C421.318 106.926 421.907 105.459 422.485 104.004C422.577 103.773 422.669 103.658 422.947 103.623C424.229 103.473 425.51 103.288 426.792 103.115C427.947 102.953 428.952 101.833 428.94 100.643C428.929 98.5299 428.894 96.4165 428.848 94.3146C428.813 92.8595 427.878 91.8663 426.411 91.6931C425.303 91.566 424.182 91.4505 423.074 91.3466C422.773 91.3235 422.635 91.2311 422.554 90.9193C422.104 89.2678 421.457 87.6856 420.614 86.1843C420.475 85.9418 420.487 85.7801 420.66 85.5607C421.399 84.6368 422.115 83.6898 422.82 82.7428C423.582 81.7149 423.536 80.3175 422.635 79.3936C421.122 77.8576 419.574 76.3447 418.004 74.8665C417.519 74.4046 416.907 74.1851 416.295 74.1851C415.717 74.1851 415.14 74.3814 414.655 74.751C413.765 75.4324 412.911 76.16 412.033 76.8529C411.952 76.9222 411.79 76.9684 411.675 76.9684C411.629 76.9684 411.583 76.9684 411.548 76.9453C409.758 75.9636 407.887 75.2014 405.889 74.6817C405.739 73.5153 405.577 72.3373 405.439 71.1709C405.265 69.8312 404.238 68.8265 402.886 68.8265C402.667 68.8265 402.448 68.8265 402.24 68.8265L402.228 68.8149ZM400.08 107.665C399.918 107.665 399.768 107.665 399.607 107.665C393.705 107.388 389.351 102.433 389.755 96.6821C390.137 91.2773 394.664 87.1082 400.011 87.1082C400.253 87.1082 400.496 87.1082 400.738 87.1313C406.339 87.524 410.693 92.5015 410.243 98.1026C409.793 103.681 405.289 107.665 400.08 107.665ZM352.361 94.5225C352.176 94.5225 351.979 94.5456 351.783 94.5803C350.963 94.7304 350.155 94.8921 349.335 95.0538C347.937 95.3309 347.06 96.4627 347.152 97.8832C347.187 98.3798 347.383 98.9572 347.198 99.3383C347.013 99.7079 346.413 99.858 346.009 100.135C345.374 100.563 344.738 101.001 344.138 101.475C343.999 101.579 343.895 101.637 343.78 101.637C343.687 101.637 343.595 101.602 343.48 101.533C343.121 101.313 342.752 101.14 342.371 100.955C341.99 100.77 341.586 100.678 341.193 100.678C340.408 100.678 339.657 101.036 339.149 101.729C338.583 102.503 338.028 103.288 337.52 104.108C336.827 105.205 337.012 106.475 337.959 107.388C338.294 107.711 338.652 108.011 339.01 108.3C339.206 108.462 339.253 108.6 339.195 108.866C338.952 109.905 338.733 110.956 338.548 112.007C338.502 112.296 338.398 112.412 338.132 112.481C337.67 112.608 337.209 112.758 336.77 112.92C335.603 113.347 334.922 114.444 335.095 115.68C335.222 116.615 335.407 117.539 335.603 118.463C335.869 119.757 336.92 120.577 338.213 120.577C338.306 120.577 338.398 120.577 338.49 120.565C338.906 120.53 339.322 120.53 339.738 120.473C339.772 120.473 339.807 120.473 339.842 120.473C340.05 120.473 340.13 120.588 340.246 120.773C340.823 121.685 341.424 122.598 342.047 123.487C342.209 123.706 342.209 123.845 342.094 124.076C341.77 124.769 341.389 125.439 341.204 126.166C340.916 127.263 341.412 128.129 342.302 128.765C343.029 129.284 343.757 129.792 344.519 130.278C344.958 130.555 345.443 130.693 345.928 130.693C346.598 130.693 347.268 130.428 347.764 129.908C348.134 129.515 348.492 129.1 348.838 128.684C348.965 128.534 349.069 128.464 349.242 128.464C349.3 128.464 349.369 128.464 349.439 128.487C350.524 128.742 351.633 128.915 352.719 129.146C352.869 129.18 353.053 129.319 353.1 129.446C353.284 129.919 353.411 130.416 353.573 130.901C353.954 132.102 354.901 132.807 356.079 132.807C356.252 132.807 356.437 132.795 356.622 132.76C357.477 132.61 358.32 132.449 359.163 132.275C360.433 132.01 361.253 131.04 361.299 129.677C361.265 129.157 361.253 128.534 361.184 127.922C361.149 127.633 361.23 127.506 361.472 127.356C362.339 126.813 363.182 126.247 364.025 125.658C364.14 125.577 364.244 125.531 364.348 125.531C364.441 125.531 364.521 125.566 364.625 125.623C365.041 125.866 365.468 126.074 365.896 126.293C366.346 126.524 366.796 126.64 367.235 126.64C368.055 126.64 368.829 126.247 369.372 125.485C369.903 124.746 370.446 124.007 370.931 123.244C371.635 122.136 371.416 120.773 370.423 119.895C370.019 119.537 369.591 119.202 369.199 118.81C369.083 118.694 369.002 118.452 369.037 118.29C369.222 117.32 369.476 116.361 369.661 115.391C369.707 115.126 369.811 115.01 370.053 114.941C370.561 114.802 371.058 114.64 371.566 114.479C372.86 114.051 373.576 112.839 373.333 111.511C373.183 110.668 373.033 109.813 372.86 108.97C372.582 107.607 371.589 106.787 370.261 106.787C370.157 106.787 370.053 106.787 369.949 106.799C369.487 106.845 369.025 106.891 368.563 106.891C368.436 106.891 368.252 106.776 368.182 106.66C367.582 105.736 367.004 104.801 366.404 103.877C366.265 103.669 366.231 103.519 366.358 103.288C366.681 102.699 367.004 102.11 367.224 101.475C367.57 100.459 367.178 99.3384 366.311 98.7032C365.538 98.1373 364.741 97.5945 363.932 97.0748C363.505 96.7976 363.02 96.659 362.535 96.659C361.888 96.659 361.242 96.9016 360.745 97.3866C360.375 97.7446 360.052 98.1373 359.729 98.5415C359.602 98.6916 359.486 98.7609 359.336 98.7609C359.267 98.7609 359.197 98.7609 359.117 98.7263C357.985 98.4491 356.841 98.195 355.698 97.9756C355.421 97.9178 355.282 97.837 355.213 97.5598C355.121 97.1672 354.982 96.7976 354.855 96.4165C354.462 95.2385 353.504 94.5456 352.349 94.5456L352.361 94.5225ZM354.104 120.346C353.966 120.346 353.816 120.346 353.666 120.334C350.005 120.115 347.14 116.916 347.256 113.37C347.371 109.802 350.259 106.683 354.116 106.683C354.243 106.683 354.37 106.683 354.497 106.683C358.25 106.88 361.149 110.16 360.93 113.913C360.71 117.574 357.731 120.334 354.093 120.334L354.104 120.346ZM379.546 125.034C378.207 125.034 377.19 125.889 376.925 127.252C376.798 127.945 376.671 128.638 376.509 129.319C376.474 129.458 376.313 129.654 376.186 129.689C374.707 130.047 373.252 130.474 371.889 131.178C371.855 131.19 371.809 131.201 371.762 131.201C371.647 131.201 371.508 131.155 371.439 131.097C370.989 130.716 370.527 130.335 370.134 129.908C369.568 129.284 368.841 128.938 368.078 128.938C367.432 128.938 366.762 129.192 366.127 129.735C365.11 130.612 364.083 131.479 363.089 132.379C362.038 133.338 361.923 134.701 362.743 135.89C363.159 136.479 363.563 137.068 363.944 137.68C364.025 137.796 364.013 138.038 363.944 138.165C363.343 139.413 362.72 140.648 362.131 141.907C362.004 142.173 361.877 142.254 361.6 142.254C360.814 142.265 360.029 142.311 359.255 142.369C358.008 142.461 357.026 143.466 356.922 144.713C356.818 146.088 356.714 147.462 356.622 148.836C356.507 150.523 357.373 151.608 359.047 151.885C359.694 151.989 360.341 152.105 360.976 152.255C361.126 152.289 361.311 152.474 361.369 152.624C361.831 153.952 362.269 155.281 362.731 156.609C362.812 156.851 362.824 156.99 362.627 157.186C362.085 157.729 361.588 158.318 361.068 158.884C360.064 159.981 360.04 161.39 361.022 162.522C361.911 163.55 362.789 164.589 363.69 165.605C364.267 166.263 364.96 166.587 365.688 166.587C366.219 166.587 366.773 166.414 367.305 166.056C368.044 165.559 368.783 165.051 369.406 164.635C370.885 165.316 372.282 165.952 373.668 166.61C373.807 166.679 373.945 166.864 373.957 167.014C374.026 167.903 374.026 168.804 374.118 169.693C374.257 171.033 375.192 171.957 376.532 172.073C377.953 172.2 379.373 172.303 380.794 172.373C380.851 172.373 380.909 172.373 380.955 172.373C382.306 172.373 383.288 171.53 383.554 170.179C383.715 169.382 383.866 168.573 384.004 167.776C384.062 167.465 384.189 167.314 384.524 167.21C385.76 166.829 386.972 166.379 388.196 165.975C388.243 165.963 388.3 165.952 388.358 165.952C388.497 165.952 388.635 165.986 388.716 166.056C389.34 166.598 389.94 167.187 390.552 167.742C391.13 168.261 391.765 168.515 392.4 168.515C393.035 168.515 393.636 168.273 394.202 167.788C395.253 166.899 396.292 165.998 397.32 165.086C398.382 164.15 398.567 162.891 397.805 161.679C397.331 160.916 396.823 160.177 396.327 159.438C396.188 159.242 396.2 159.103 396.327 158.895C396.904 157.81 397.482 156.724 398.001 155.616C398.163 155.269 398.348 155.177 398.683 155.165C399.514 155.13 400.346 155.107 401.177 155.05C402.482 154.957 403.475 153.976 403.579 152.671C403.683 151.319 403.787 149.957 403.88 148.605C403.995 146.908 403.152 145.834 401.477 145.533C400.831 145.418 400.184 145.291 399.537 145.187C399.225 145.129 399.075 145.002 398.983 144.667C398.625 143.397 398.221 142.127 397.782 140.879C397.678 140.567 397.701 140.394 397.92 140.163C398.475 139.586 399.018 138.997 399.537 138.396C400.357 137.461 400.415 136.04 399.618 135.082C398.648 133.915 397.655 132.761 396.638 131.64C396.13 131.086 395.472 130.797 394.779 130.797C394.294 130.797 393.809 130.936 393.359 131.225C392.723 131.629 392.1 132.056 391.488 132.495C391.361 132.587 391.257 132.622 391.153 132.622C391.049 132.622 390.945 132.587 390.818 132.518C389.536 131.825 388.243 131.167 386.938 130.543C386.626 130.393 386.464 130.243 386.464 129.885C386.464 129.215 386.429 128.545 386.395 127.875C386.325 126.478 385.321 125.45 383.923 125.346C382.537 125.242 381.14 125.138 379.754 125.046C379.673 125.046 379.604 125.046 379.535 125.046L379.546 125.034ZM380.181 156.932C379.985 156.932 379.8 156.932 379.604 156.909C374.961 156.586 371.451 152.567 371.762 147.936C372.051 143.547 375.805 140.117 380.158 140.117C380.343 140.117 380.54 140.117 380.736 140.14C385.355 140.464 388.855 144.482 388.543 149.09C388.231 153.525 384.547 156.944 380.193 156.944L380.181 156.932Z" fill="url(#paint8_linear_244_9792)"/>
<path style="mix-blend-mode:screen" d="M602.311 170.42H628.884C632.072 170.42 635.017 168.723 636.61 165.963L680.369 90.1681C681.962 87.4079 681.962 84.0126 680.369 81.2524L636.61 5.45783C635.017 2.69767 632.072 1 628.884 1" stroke="#CEDEF8" stroke-opacity="0.31" stroke-width="1.34" stroke-miterlimit="10"/>
<path d="M609.632 153.813C609.863 152.901 609.448 151.908 608.581 151.469L606.445 150.372C605.429 149.852 604.181 150.256 603.662 151.273L600.624 157.197L593.314 153.444C592.736 153.143 592.032 153.374 591.732 153.952C591.431 154.529 591.662 155.234 592.24 155.534L599.55 159.287L595.601 166.99L588.29 163.237C587.713 162.937 587.008 163.168 586.708 163.745C586.408 164.323 586.639 165.027 587.216 165.327L594.527 169.081L591.986 174.047C591.466 175.063 591.87 176.31 592.887 176.83L595.023 177.927C595.924 178.389 597.009 178.123 597.598 177.338C604.054 180.502 611.884 177.939 615.187 171.506C618.49 165.073 615.996 157.209 609.632 153.813Z" fill="#0A4FC6"/>
<g style="mix-blend-mode:screen" opacity="0.3">
<path d="M401.351 30.011H377.422C374.234 30.011 371.29 31.7087 369.696 34.4688L325.937 110.263C324.344 113.024 324.344 116.419 325.937 119.179L369.696 194.974C371.29 197.734 374.234 199.431 377.422 199.431" stroke="#CEDEF8" stroke-width="1.34" stroke-miterlimit="10"/>
</g>
<path d="M409.851 23.105C410.463 22.3889 411.502 22.158 412.38 22.6084L414.505 23.7286C415.51 24.2598 415.902 25.5071 415.371 26.5119L403.499 49.2052C402.968 50.2099 401.72 50.6026 400.716 50.0713L398.591 48.9511C397.69 48.4776 397.286 47.4382 397.586 46.5028C391.269 43.0497 388.855 35.1734 392.204 28.7754C395.553 22.3658 403.418 19.8598 409.851 23.105Z" fill="#0A4FC6"/>
<path opacity="0.5" d="M276 121.89V110.861C285.17 108.69 288.473 102.315 288.473 94.5428C288.473 82.4281 286.024 65.4861 286.024 52.2858C286.024 37.0646 293.485 29.2922 304.248 29.2922H311.339V41.5686H306.327C300.206 41.5686 296.903 44.8369 296.903 53.2213C296.903 65.0241 299.225 82.1163 299.225 95.0163C299.225 105.583 295.31 113.656 286.013 116.151V116.462C295.31 119.107 299.225 127.18 299.225 137.747C299.225 150.647 296.903 167.739 296.903 179.542C296.903 187.926 300.206 191.194 306.327 191.194H311.339V203.471H304.248C293.485 203.471 286.024 195.698 286.024 180.477C286.024 167.265 288.473 150.335 288.473 138.22C288.473 130.448 285.17 124.085 276 121.902V121.89Z" fill="#0B59DE"/>
<path opacity="0.5" d="M702.566 138.22C702.566 150.335 705.014 167.277 705.014 180.477C705.014 195.698 697.554 203.471 686.79 203.471H679.699V191.194H684.711C690.832 191.194 694.135 187.926 694.135 179.542C694.135 167.739 691.814 150.647 691.814 137.747C691.814 127.18 695.729 119.107 705.026 116.462V116.151C695.729 113.668 691.814 105.583 691.814 95.0163C691.814 82.1163 694.135 65.0241 694.135 53.2213C694.135 44.8369 690.832 41.5686 684.711 41.5686H679.699V29.2922H686.79C697.554 29.2922 705.014 37.0646 705.014 52.2858C705.014 65.4976 702.566 82.4281 702.566 94.5428C702.566 102.315 705.869 108.678 715.039 110.861V121.89C705.869 124.061 702.566 130.436 702.566 138.209V138.22Z" fill="#0B59DE"/>
<path d="M542.943 38.2922H455.643C452.783 38.2922 450.143 39.8122 448.713 42.2922L405.072 117.902C403.643 120.382 403.643 123.422 405.072 125.902L448.722 201.502C450.152 203.982 452.792 205.502 455.652 205.502H542.952C545.812 205.502 548.453 203.982 549.883 201.502L593.533 125.902C594.963 123.422 594.963 120.382 593.533 117.902L549.873 42.2922C548.443 39.8122 545.803 38.2922 542.943 38.2922Z" fill="#0B59DE"/>
<path d="M454.733 144.292H445.593L462.235 97.0195H472.807L489.472 144.292H480.332L467.706 106.714H467.336L454.733 144.292ZM455.033 125.757H479.962V132.636H455.033V125.757ZM495.699 144.292V97.0195H513.426C517.058 97.0195 520.105 97.6966 522.567 99.0508C525.044 100.405 526.914 102.267 528.176 104.637C529.453 106.991 530.092 109.669 530.092 112.669C530.092 115.701 529.453 118.394 528.176 120.748C526.898 123.103 525.013 124.957 522.521 126.311C520.028 127.65 516.958 128.319 513.311 128.319H501.562V121.279H512.157C514.28 121.279 516.019 120.91 517.373 120.171C518.727 119.433 519.728 118.417 520.374 117.124C521.036 115.832 521.366 114.347 521.366 112.669C521.366 110.992 521.036 109.515 520.374 108.238C519.728 106.96 518.72 105.968 517.35 105.26C515.996 104.537 514.249 104.175 512.11 104.175H504.262V144.292H495.699ZM546.093 97.0195V144.292H537.53V97.0195H546.093Z" fill="white"/>
<defs>
<linearGradient id="paint0_linear_244_9792" x1="1149" y1="202" x2="-32" y2="45.0002" gradientUnits="userSpaceOnUse">
<stop stop-color="#0B59DE"/>
<stop offset="1" stop-color="#0C2340"/>
</linearGradient>
<linearGradient id="paint1_linear_244_9792" x1="230.08" y1="168.762" x2="230.08" y2="109.312" gradientUnits="userSpaceOnUse">
<stop stop-color="#7E50D5"/>
<stop offset="1" stop-color="#A06CEC" stop-opacity="0.5"/>
</linearGradient>
<linearGradient id="paint2_linear_244_9792" x1="18" y1="104.742" x2="19" y2="45.2922" gradientUnits="userSpaceOnUse">
<stop stop-color="#7E50D5"/>
<stop offset="1" stop-color="#A06CEC" stop-opacity="0.5"/>
</linearGradient>
<linearGradient id="paint3_linear_244_9792" x1="92.1099" y1="100.192" x2="92.1099" y2="57.9922" gradientUnits="userSpaceOnUse">
<stop stop-color="#7E50D5"/>
<stop offset="1" stop-color="#A06CEC" stop-opacity="0.5"/>
</linearGradient>
<linearGradient id="paint4_linear_244_9792" x1="83.0699" y1="77.4322" x2="101.14" y2="77.4322" gradientUnits="userSpaceOnUse">
<stop stop-color="#7E50D5"/>
<stop offset="1" stop-color="#A06CEC" stop-opacity="0.5"/>
</linearGradient>
<linearGradient id="paint5_linear_244_9792" x1="827.251" y1="92.31" x2="827.251" y2="21.2922" gradientUnits="userSpaceOnUse">
<stop stop-color="#559DCF"/>
<stop offset="1" stop-color="#71AAE6" stop-opacity="0.5"/>
</linearGradient>
<linearGradient id="paint6_linear_244_9792" x1="893.371" y1="131.397" x2="893.371" y2="60.3669" gradientUnits="userSpaceOnUse">
<stop stop-color="#559DCF"/>
<stop offset="1" stop-color="#71AAE6" stop-opacity="0.5"/>
</linearGradient>
<linearGradient id="paint7_linear_244_9792" x1="619.828" y1="36.7346" x2="627.208" y2="141.366" gradientUnits="userSpaceOnUse">
<stop stop-color="#376ED0" stop-opacity="0.1"/>
<stop offset="1" stop-color="#4991EF"/>
</linearGradient>
<linearGradient id="paint8_linear_244_9792" x1="384.836" y1="67.4984" x2="377.456" y2="172.13" gradientUnits="userSpaceOnUse">
<stop stop-color="#376ED0" stop-opacity="0.1"/>
<stop offset="1" stop-color="#4991EF"/>
</linearGradient>
<clipPath id="clip0_244_9792">
<rect width="171.9" height="203.688" fill="white" transform="translate(761 21.2922)"/>
</clipPath>
</defs>
</svg>
