<svg width="136" height="53" viewBox="0 0 136 53" fill="none" xmlns="http://www.w3.org/2000/svg">
<path d="M0 26.5C0 11.8645 11.8645 0 26.5 0H106C122.569 0 136 13.4315 136 30V53H26.5C11.8645 53 0 41.1355 0 26.5V26.5Z" fill="#0B59DE"/>
<circle cx="26.5" cy="26.5" r="20.5" fill="white"/>
<g clip-path="url(#clip0_1683_2209)">
<path fill-rule="evenodd" clip-rule="evenodd" d="M15.1032 15.4331L22.6612 26.4052L14.0464 39.2859H20.7284L29.6362 26.3301L21.9991 15.4331H15.1032Z" fill="#0B59DE"/>
<path fill-rule="evenodd" clip-rule="evenodd" d="M31.5575 13.4277L26.8105 20.3934L30.3828 25.2948L38.4489 13.4277H31.5575Z" fill="#0B59DE"/>
<path fill-rule="evenodd" clip-rule="evenodd" d="M30.3087 27.3403L37.2001 37.309H35.8209H30.3044L26.8105 32.2635" fill="#0B59DE"/>
</g>
<path d="M99.7051 43H96.3301L102.475 25.5454H106.378L112.532 43H109.157L104.495 29.125H104.358L99.7051 43ZM99.8159 36.1562H109.02V38.696H99.8159V36.1562Z" fill="white"/>
<path d="M94.0181 25.5454V43H91.2056L82.9811 31.1108H82.8362V43H79.6743V25.5454H82.5039L90.7198 37.4431H90.8732V25.5454H94.0181Z" fill="white"/>
<path d="M76.2503 25.5454V43H73.0884V25.5454H76.2503Z" fill="white"/>
<path d="M57.9629 43H54.5879L60.7328 25.5454H64.6362L70.7896 43H67.4146L62.7527 29.125H62.6163L57.9629 43ZM58.0737 36.1562H67.2782V38.696H58.0737V36.1562Z" fill="white"/>
<path d="M72.6294 18V8.54541H74.3421V12.8895H74.4575L78.1461 8.54541H80.2374L76.5811 12.788L80.2697 18H78.2107L75.39 13.9467L74.3421 15.1839V18H72.6294Z" fill="white"/>
<path d="M69.3255 11.1444C69.2824 10.7412 69.1008 10.4273 68.7807 10.2026C68.4637 9.97792 68.0513 9.86559 67.5435 9.86559C67.1865 9.86559 66.8803 9.91945 66.6248 10.0272C66.3694 10.1349 66.1739 10.2811 66.0385 10.4657C65.9031 10.6504 65.8339 10.8612 65.8308 11.0982C65.8308 11.2952 65.8754 11.466 65.9647 11.6106C66.057 11.7553 66.1816 11.8784 66.3386 11.9799C66.4956 12.0784 66.6694 12.1615 66.8603 12.2292C67.0511 12.2969 67.2434 12.3539 67.4373 12.4L68.3237 12.6216C68.6807 12.7047 69.0239 12.8171 69.3532 12.9586C69.6855 13.1002 69.9825 13.2787 70.2441 13.4941C70.5088 13.7096 70.7181 13.9696 70.872 14.2743C71.0259 14.579 71.1028 14.936 71.1028 15.3453C71.1028 15.8993 70.9612 16.3871 70.6781 16.8088C70.3949 17.2273 69.9856 17.5551 69.4501 17.7921C68.9177 18.026 68.2729 18.1429 67.5158 18.1429C66.7802 18.1429 66.1416 18.0291 65.6 17.8013C65.0614 17.5736 64.6397 17.2412 64.335 16.8042C64.0334 16.3671 63.8703 15.8347 63.8457 15.2069H65.5307C65.5553 15.5362 65.6569 15.8101 65.8354 16.0286C66.0139 16.2471 66.2463 16.4102 66.5325 16.5179C66.8218 16.6257 67.1449 16.6795 67.502 16.6795C67.8743 16.6795 68.2006 16.6241 68.4806 16.5133C68.7638 16.3994 68.9854 16.2425 69.1454 16.0424C69.3055 15.8393 69.387 15.6023 69.3901 15.3315C69.387 15.0853 69.3147 14.8822 69.1731 14.7221C69.0315 14.559 68.833 14.4236 68.5776 14.3159C68.3252 14.2051 68.0298 14.1066 67.6912 14.0204L66.6156 13.7434C65.8369 13.5434 65.2214 13.2402 64.769 12.834C64.3197 12.4247 64.095 11.8815 64.095 11.2044C64.095 10.6473 64.2458 10.1595 64.5474 9.74094C64.8521 9.32238 65.266 8.99769 65.7892 8.76687C66.3124 8.53297 66.9049 8.41602 67.5666 8.41602C68.2375 8.41602 68.8253 8.53297 69.3301 8.76687C69.8379 8.99769 70.2364 9.31931 70.5257 9.73171C70.815 10.141 70.9643 10.6119 70.9735 11.1444H69.3255Z" fill="white"/>
<path d="M56.1465 18H54.3184L57.6468 8.54541H59.7612L63.0943 18H61.2662L58.7409 10.4843H58.6671L56.1465 18ZM56.2065 14.2929H61.1923V15.6686H56.2065V14.2929Z" fill="white"/>
<defs>
<clipPath id="clip0_1683_2209">
<rect width="24.7585" height="25.9964" fill="white" transform="translate(14.0464 13.4277)"/>
</clipPath>
</defs>
</svg>
