<svg width="72" height="72" viewBox="0 0 72 72" fill="none" xmlns="http://www.w3.org/2000/svg">
<circle cx="36" cy="36" r="34.65" fill="#0F64F3" stroke="#CEDEF8" stroke-width="2.7"/>
<path d="M54.5216 31.209C54.7879 31.2609 54.7879 31.6008 54.5216 31.6525L47.4969 33.0568C44.9681 33.5592 43.0011 36.1978 42.6758 39.5088L41.9585 46.8403C41.9289 47.1138 41.4853 47.1138 41.4631 46.8403L40.7458 39.5088C40.4205 36.1903 38.4535 33.5592 35.9246 33.0568L28.9 31.6525C28.6339 31.6008 28.6412 31.2609 28.9 31.209L35.8507 29.9378C38.4166 29.4648 40.4205 26.8116 40.7458 23.4562L41.4631 16.0287C41.4926 15.7552 41.9364 15.7552 41.9585 16.0287L42.6758 23.4562C43.0011 26.8116 45.0051 29.4648 47.5709 29.9378L54.5216 31.209Z" fill="white"/>
<path d="M39.0033 18.3128C39.1453 18.3386 39.1453 18.5086 39.0033 18.5345L35.2568 19.2365C33.908 19.4879 32.8591 20.8071 32.6855 22.4626L32.3031 26.1284C32.2872 26.2651 32.0506 26.2651 32.0388 26.1284L31.6563 22.4626C31.4826 20.8035 30.4337 19.4879 29.0849 19.2365L25.3384 18.5345C25.1964 18.5086 25.2004 18.3386 25.3384 18.3128L29.0455 17.6772C30.414 17.4407 31.4826 16.114 31.6563 14.4364L32.0388 10.7225C32.0546 10.5858 32.2911 10.5858 32.3031 10.7225L32.6855 14.4364C32.8591 16.114 33.9277 17.4407 35.2962 17.6772L39.0033 18.3128Z" fill="white"/>
<path d="M26.8879 27.0105C26.9944 27.0305 26.9944 27.1628 26.8879 27.1829L24.0781 27.729C23.0665 27.9244 22.2798 28.9505 22.1495 30.238L21.8627 33.0892C21.8509 33.1956 21.6733 33.1956 21.6646 33.0892L21.3776 30.238C21.2475 28.9476 20.4607 27.9244 19.4491 27.729L16.6393 27.1829C16.5329 27.1628 16.5357 27.0305 16.6393 27.0105L19.4195 26.516C20.4459 26.3322 21.2475 25.3003 21.3776 23.9954L21.6646 21.107C21.6764 21.0006 21.8538 21.0006 21.8627 21.107L22.1495 23.9954C22.2798 25.3003 23.0813 26.3322 24.1076 26.516L26.8879 27.0105Z" fill="white"/>
<path d="M44.4679 58.4791C44.0697 58.4791 43.7097 58.4055 43.3879 58.2582C43.0661 58.1082 42.8111 57.8914 42.6229 57.6077C42.4375 57.3241 42.3447 56.9764 42.3447 56.5645C42.3447 56.21 42.4129 55.9182 42.5493 55.6891C42.6856 55.46 42.8697 55.2786 43.1015 55.145C43.3334 55.0114 43.5925 54.9105 43.8788 54.8423C44.1652 54.7741 44.457 54.7223 44.7543 54.6868C45.1306 54.6432 45.4361 54.6077 45.6706 54.5805C45.9052 54.5505 46.0756 54.5027 46.182 54.4373C46.2884 54.3718 46.3415 54.2655 46.3415 54.1182V54.0895C46.3415 53.7323 46.2406 53.4555 46.0388 53.2591C45.8397 53.0627 45.5425 52.9645 45.147 52.9645C44.7352 52.9645 44.4106 53.0559 44.1734 53.2386C43.9388 53.4186 43.7765 53.6191 43.6865 53.84L42.537 53.5782C42.6734 53.1964 42.8725 52.8882 43.1343 52.6536C43.3988 52.4164 43.7029 52.2445 44.0465 52.1382C44.3902 52.0291 44.7515 51.9745 45.1306 51.9745C45.3815 51.9745 45.6475 52.0045 45.9284 52.0645C46.212 52.1218 46.4765 52.2282 46.722 52.3836C46.9702 52.5391 47.1734 52.7614 47.3315 53.0505C47.4897 53.3368 47.5688 53.7091 47.5688 54.1673V58.34H46.3743V57.4809H46.3252C46.2461 57.6391 46.1275 57.7945 45.9693 57.9473C45.8111 58.1 45.6079 58.2268 45.3597 58.3277C45.1115 58.4286 44.8143 58.4791 44.4679 58.4791ZM44.7338 57.4973C45.072 57.4973 45.3611 57.4305 45.6011 57.2968C45.8438 57.1632 46.0279 56.9886 46.1534 56.7732C46.2815 56.555 46.3456 56.3218 46.3456 56.0736V55.2636C46.302 55.3073 46.2175 55.3482 46.092 55.3864C45.9693 55.4218 45.8288 55.4532 45.6706 55.4805C45.5125 55.505 45.3584 55.5282 45.2084 55.55C45.0584 55.5691 44.9329 55.5855 44.832 55.5991C44.5947 55.6291 44.3779 55.6795 44.1815 55.7505C43.9879 55.8214 43.8325 55.9236 43.7152 56.0573C43.6006 56.1882 43.5434 56.3627 43.5434 56.5809C43.5434 56.8836 43.6552 57.1127 43.8788 57.2682C44.1025 57.4209 44.3875 57.4973 44.7338 57.4973Z" fill="white"/>
<path d="M36.9771 54.6091V58.34H35.7539V52.0564H36.928V53.0791H37.0057C37.1503 52.7464 37.3766 52.4791 37.6848 52.2773C37.9957 52.0755 38.3871 51.9745 38.8589 51.9745C39.2871 51.9745 39.6621 52.0645 39.9839 52.2445C40.3057 52.4218 40.5553 52.6864 40.7325 53.0382C40.9098 53.39 40.9985 53.825 40.9985 54.3432V58.34H39.7753V54.4905C39.7753 54.035 39.6566 53.6791 39.4194 53.4227C39.1821 53.1636 38.8562 53.0341 38.4416 53.0341C38.158 53.0341 37.9057 53.0955 37.6848 53.2182C37.4666 53.3409 37.2935 53.5209 37.1653 53.7582C37.0398 53.9927 36.9771 54.2764 36.9771 54.6091Z" fill="white"/>
<path d="M34.0112 49.9618V58.34H32.7471V49.9618H34.0112Z" fill="white"/>
<path d="M25.3887 58.34H24.0469L27.0619 49.9618H28.5223L31.5373 58.34H30.1955L27.8269 51.4836H27.7614L25.3887 58.34ZM25.6137 55.0591H29.9664V56.1227H25.6137V55.0591Z" fill="white"/>
</svg>
